<?xml version="1.0" standalone="no"?>
<!DOCTYPE svg PUBLIC "-//W3C//DTD SVG 20010904//EN"
 "http://www.w3.org/TR/2001/REC-SVG-20010904/DTD/svg10.dtd">
<svg version="1.0" xmlns="http://www.w3.org/2000/svg"
 width="720.000000pt" height="961.000000pt" viewBox="0 0 720.000000 961.000000"
 preserveAspectRatio="xMidYMid meet">

<g transform="translate(0.000000,961.000000) scale(0.100000,-0.100000)"
fill="#000000" stroke="none">
<path d="M0 8059 l0 -1551 24 -82 c13 -44 45 -155 70 -246 95 -340 158 -567
172 -615 41 -147 115 -469 123 -534 5 -42 12 -84 16 -93 4 -10 3 -18 -3 -18
-6 0 -14 15 -17 32 -4 18 -15 49 -25 68 -10 19 -33 66 -50 103 -18 38 -34 67
-36 64 -2 -2 0 -28 6 -57 5 -29 10 -69 10 -90 0 -33 -3 -38 -34 -47 -24 -7
-38 -7 -45 0 -6 6 -27 11 -46 12 -34 1 -36 -1 -31 -25 4 -14 13 -59 20 -100
14 -77 36 -160 86 -335 16 -55 38 -136 50 -180 23 -85 24 -87 64 -235 15 -52
42 -153 61 -225 110 -410 101 -386 132 -374 35 13 154 78 173 94 8 7 26 16 40
20 14 4 43 19 65 34 22 14 72 41 110 61 84 44 182 98 212 118 15 9 34 12 58 8
31 -6 35 -10 35 -38 0 -31 0 -31 -20 -13 -16 15 -26 17 -48 9 -22 -8 -26 -15
-24 -38 5 -36 25 -58 46 -50 19 7 20 0 5 -27 -8 -15 -14 -18 -23 -9 -27 22
-69 -23 -44 -48 6 -6 10 -40 10 -77 0 -61 -3 -69 -36 -105 -37 -41 -52 -86
-21 -60 9 7 18 11 20 8 11 -10 -9 -40 -31 -49 -22 -8 -24 -15 -24 -71 0 -34
-5 -76 -12 -94 -13 -37 4 -96 26 -88 7 3 18 -2 25 -10 10 -12 8 -17 -11 -27
-34 -18 -48 -41 -37 -61 18 -33 11 -41 -34 -36 -45 5 -67 -10 -67 -47 0 -8
-10 -25 -22 -37 -19 -19 -23 -35 -24 -89 -1 -36 -7 -75 -13 -87 -17 -32 -13
-61 12 -85 15 -16 21 -32 19 -52 -5 -52 12 -110 31 -107 24 4 21 -11 -14 -63
-22 -32 -32 -61 -36 -103 -3 -31 -10 -66 -16 -76 -13 -26 14 -46 61 -46 34 0
35 0 17 -20 -11 -12 -29 -19 -46 -18 -15 1 -34 -3 -42 -10 -18 -15 -28 -50
-17 -57 5 -3 5 -17 1 -33 -6 -21 -13 -27 -36 -27 -20 0 -31 -6 -34 -20 -8 -28
-52 -75 -70 -75 -8 0 -23 7 -33 17 -24 22 -32 11 -30 -37 3 -46 -10 -76 -45
-105 l-24 -20 23 -41 c21 -39 21 -45 9 -107 -14 -73 -11 -87 22 -87 20 0 22
-4 19 -41 -4 -43 6 -59 39 -59 11 0 18 11 21 30 5 33 -5 56 -20 46 -5 -3 -12
1 -16 9 -5 14 28 45 49 45 8 0 12 -125 6 -171 -2 -11 -51 -17 -57 -8 -3 5 -12
9 -20 9 -10 0 -14 -13 -14 -52 0 -48 -3 -56 -44 -98 -42 -43 -74 -102 -46 -85
18 11 103 10 107 -2 2 -5 -5 -20 -15 -33 -16 -20 -22 -22 -49 -13 -44 16 -95
2 -113 -30 -12 -21 -12 -29 -2 -39 9 -9 15 -9 24 0 7 7 16 12 20 12 12 0 9
-28 -3 -32 -9 -3 -9 -9 0 -25 9 -19 8 -23 -10 -28 -11 -4 -23 -4 -26 -1 -3 3
-18 -1 -32 -9 -15 -7 -36 -13 -46 -12 -15 2 -27 -11 -43 -45 -26 -51 -21 -73
25 -111 13 -10 23 -29 23 -42 0 -13 9 -30 21 -39 26 -18 20 -28 -50 -90 -41
-37 -59 -46 -77 -42 -28 7 -71 -8 -101 -36 -12 -11 -26 -17 -31 -14 -6 3 -13
-1 -16 -10 -11 -28 -7 -35 13 -25 15 8 20 7 24 -8 2 -10 1 -25 -4 -32 -15 -24
-10 -55 14 -77 13 -12 29 -22 35 -22 7 0 12 -6 12 -14 0 -7 7 -19 15 -26 20
-17 19 -40 -2 -56 -17 -12 -17 -14 3 -36 41 -44 58 -102 33 -110 -7 -2 -8 -24
-3 -66 l7 -63 41 3 c39 3 41 5 49 46 6 32 13 42 28 42 15 0 19 7 19 34 0 39
-8 66 -21 66 -4 0 -20 -12 -34 -27 l-25 -28 0 77 c0 76 21 158 41 158 5 0 9
11 9 25 0 22 57 95 74 95 2 0 0 -17 -5 -37 -11 -47 -11 -55 -1 -71 5 -7 16
-10 26 -6 14 5 16 14 11 41 -7 41 1 73 21 73 16 0 20 -65 4 -75 -5 -3 -12 -32
-16 -65 -7 -60 -18 -72 -42 -48 -15 15 -22 8 -28 -34 -6 -32 -4 -34 21 -33 37
2 80 54 96 115 11 42 17 50 36 50 22 0 24 4 23 58 -1 75 7 220 14 230 3 5 -2
39 -11 76 -15 67 -15 70 7 113 29 59 23 73 -32 66 -40 -4 -42 -3 -24 11 11 9
28 14 37 11 18 -6 53 21 44 35 -2 4 -18 10 -35 13 -37 8 -39 23 -5 39 18 8 32
8 47 1 13 -6 37 -8 54 -6 26 4 32 1 37 -18 8 -29 1 -39 -28 -39 -30 0 -39 -25
-19 -56 16 -23 17 -23 30 -7 12 16 13 16 14 -10 0 -16 11 -38 25 -53 15 -15
22 -30 18 -37 -9 -15 -4 -58 9 -74 6 -7 21 -13 33 -13 13 0 25 -5 27 -11 4
-12 38 -1 38 12 0 4 -12 20 -26 34 -20 20 -24 32 -20 53 11 43 40 112 49 112
4 0 7 10 7 23 1 12 9 40 20 62 11 22 19 51 20 63 0 30 35 75 63 82 25 7 35 30
12 30 -17 0 -46 56 -39 75 3 6 15 11 27 11 21 -1 22 3 21 62 -1 54 1 62 18 62
10 0 18 -7 18 -15 0 -8 9 -15 20 -15 16 0 20 7 20 34 0 19 4 37 9 40 19 12 51
98 51 137 0 22 5 50 12 62 14 27 28 77 38 142 4 28 15 97 25 155 13 78 15 115
8 147 -6 24 -6 43 -2 43 5 0 9 15 9 34 0 19 4 37 9 40 15 10 63 115 56 126 -3
5 0 10 8 10 21 0 38 25 31 44 -9 24 -22 20 -39 -14 -15 -29 -38 -39 -49 -21
-3 5 3 20 14 34 15 19 20 38 18 69 -2 34 1 43 15 46 14 3 17 -4 17 -42 0 -49
8 -56 32 -28 16 18 25 51 32 112 2 19 11 59 20 89 9 30 13 64 10 75 -4 16 4
30 30 54 20 18 43 32 53 33 10 0 0 6 -22 14 -22 7 -34 13 -27 14 6 1 12 8 12
16 0 8 15 43 34 78 44 83 96 242 96 292 0 23 9 53 20 70 11 17 20 43 20 58 0
15 17 55 38 88 l38 60 52 -41 c81 -65 131 -71 176 -21 36 39 52 29 85 -51 10
-26 9 -28 -12 -29 -21 0 -21 -1 -2 -8 37 -15 106 -104 146 -187 21 -44 39 -87
39 -93 0 -14 38 -90 55 -111 7 -8 20 -38 29 -66 10 -29 37 -75 67 -110 28 -32
57 -72 66 -87 8 -16 29 -42 47 -58 33 -29 72 -121 54 -127 -15 -6 19 -53 90
-123 72 -70 142 -152 142 -166 0 -4 14 -26 30 -47 31 -40 38 -70 20 -81 -19
-12 -10 -23 34 -45 25 -11 61 -41 80 -65 22 -26 48 -46 65 -50 16 -3 58 -29
93 -56 124 -98 177 -144 177 -154 1 -6 10 -16 21 -22 19 -13 100 -116 100
-129 0 -4 9 -17 19 -28 17 -18 64 -97 161 -271 78 -140 180 -361 180 -390 0
-10 48 -60 51 -52 0 1 4 43 9 92 5 50 13 108 19 130 19 79 42 191 47 230 3 22
9 49 14 60 15 37 42 160 52 235 9 71 37 173 38 139 0 -9 7 -22 15 -29 12 -10
22 -6 55 20 22 17 40 36 40 41 0 17 -29 9 -40 -11 -22 -40 -33 -22 -28 44 5
52 3 63 -8 59 -8 -3 -14 1 -14 9 0 30 39 191 49 201 5 5 22 10 38 11 30 1 53
33 53 74 0 13 9 33 20 44 22 24 22 43 -1 43 -8 0 -15 -10 -17 -22 -2 -12 -18
-36 -35 -53 l-32 -31 -8 26 c-8 23 9 126 30 185 3 8 7 42 9 75 3 56 45 276 65
341 5 17 9 39 9 49 0 34 65 249 98 325 17 39 27 93 37 185 7 72 21 185 30 253
16 113 19 121 34 108 9 -9 48 -30 86 -47 68 -31 71 -31 140 -20 38 7 96 24
128 38 61 29 71 26 82 -20 6 -22 4 -27 -11 -27 -17 -1 -17 -2 -3 -13 9 -7 19
-22 23 -35 4 -12 12 -22 17 -22 6 0 10 -17 8 -37 -1 -21 8 -59 20 -86 11 -27
21 -51 21 -53 0 -2 11 -22 25 -45 22 -34 27 -55 32 -153 4 -79 3 -115 -5 -120
-14 -9 6 -46 25 -46 15 0 43 -51 43 -79 0 -11 14 -47 30 -79 17 -33 30 -64 30
-70 0 -5 7 -15 16 -22 19 -17 15 -65 -6 -64 -8 1 -30 4 -48 9 -32 7 -34 6 -27
-16 10 -32 13 -35 27 -21 21 21 26 13 26 -33 -1 -44 -1 -44 -19 -24 -10 12
-20 26 -22 32 -4 13 -57 -37 -57 -53 0 -5 9 -14 20 -20 26 -14 41 -43 49 -99
6 -41 9 -46 29 -43 13 2 30 -2 38 -8 19 -17 18 -116 -1 -154 -9 -18 -15 -56
-15 -103 0 -73 2 -78 46 -144 25 -38 49 -71 55 -74 16 -11 10 -25 -16 -37 -25
-11 -26 -14 -19 -79 6 -59 4 -72 -15 -103 l-22 -34 41 -44 41 -43 -7 -188 c-6
-174 -5 -189 12 -201 13 -10 19 -30 22 -82 2 -38 7 -80 11 -94 5 -14 17 -52
27 -85 10 -33 32 -78 50 -100 57 -73 74 -113 62 -148 -6 -18 -15 -36 -19 -41
-19 -21 -7 -51 32 -87 l42 -39 -6 -75 c-4 -46 -3 -75 3 -75 5 0 16 -15 24 -34
8 -18 19 -37 25 -40 6 -4 11 -18 11 -32 0 -13 9 -41 20 -61 11 -21 20 -52 20
-70 0 -17 5 -35 10 -38 6 -4 10 -14 9 -23 -5 -55 -25 -51 306 -52 323 0 324 1
290 46 -8 10 -15 27 -15 37 0 11 -6 31 -14 45 -7 15 -18 38 -24 52 -6 14 -18
41 -26 60 -26 59 -63 120 -69 113 -4 -3 -6 7 -6 23 0 16 -5 52 -12 81 -9 37
-10 63 -3 90 10 39 5 55 -43 143 -38 69 -54 116 -48 140 4 14 9 55 12 92 4 57
1 76 -20 120 -14 29 -28 68 -32 86 -4 18 -18 44 -31 57 -24 24 -25 26 -9 70
18 55 11 139 -16 193 -11 20 -19 41 -19 47 0 6 -14 24 -30 40 -24 23 -33 27
-39 16 -5 -7 -15 -11 -22 -9 -10 3 -6 11 12 29 40 37 59 83 59 139 0 56 -25
156 -45 180 -7 8 -15 28 -19 43 -4 17 -16 31 -32 37 -40 16 -41 38 -2 73 32
30 35 38 42 110 4 43 4 83 -1 90 -4 6 -6 26 -4 43 1 21 -8 47 -28 80 -37 57
-37 58 -11 109 25 48 35 101 22 109 -6 3 -13 24 -17 46 -5 32 -18 51 -67 94
-57 52 -59 56 -52 90 5 29 9 34 20 25 7 -6 18 -7 25 -3 6 4 21 8 33 9 11 1 25
3 29 4 5 0 7 7 4 14 -2 7 -16 11 -34 9 -29 -3 -30 -2 -37 47 -4 34 -11 49 -19
45 -8 -3 -20 11 -30 34 -17 38 -69 102 -85 102 -4 0 -15 7 -25 14 -17 13 -17
16 2 77 12 34 21 72 21 85 0 53 62 35 89 -27 l18 -39 28 30 28 29 -44 19 c-36
16 -48 28 -66 68 -26 58 -45 146 -37 171 4 11 3 14 -3 7 -4 -6 -19 -17 -31
-23 -17 -9 -22 -19 -19 -32 8 -29 -24 -20 -40 11 -7 14 -46 59 -88 102 -72 73
-87 99 -65 113 6 3 10 19 10 35 0 31 15 48 23 28 4 -8 6 -7 6 3 1 9 -6 30 -14
45 -17 34 -19 70 -5 79 6 4 7 11 4 17 -4 6 -10 5 -15 -3 -7 -11 -9 -10 -9 3 0
9 -11 29 -25 44 -13 14 -24 29 -23 33 3 24 -4 31 -25 26 -30 -8 -51 16 -45 52
3 16 17 71 31 123 46 168 60 304 54 500 -6 188 -19 269 -68 414 -46 138 -94
222 -170 298 -67 66 -67 67 -58 105 20 86 -1 347 -30 376 -6 6 -11 53 -11 107
0 52 -11 205 -24 340 -27 262 -42 453 -39 485 1 11 3 43 4 70 1 28 6 55 9 60
4 6 10 34 13 64 5 43 2 60 -15 90 -18 31 -20 46 -14 103 6 51 11 67 25 71 13
3 20 18 25 56 4 28 4 56 1 61 -4 6 1 13 9 16 39 15 3 63 -46 64 -31 0 -32 3
-19 29 11 20 4 35 -24 45 -14 5 -16 9 -7 15 20 12 18 102 -2 113 -9 5 -16 19
-16 32 0 13 -7 29 -15 36 -8 7 -17 28 -20 49 -11 66 -28 111 -46 116 -9 3 -20
17 -23 30 -5 18 -13 25 -31 25 -33 0 -75 17 -75 31 0 6 -13 28 -29 48 -32 41
-46 76 -42 109 1 13 -4 25 -13 28 -9 3 -16 17 -16 29 0 15 -8 26 -19 30 -12 3
-18 12 -15 20 3 7 -8 40 -24 73 -17 33 -33 78 -37 101 -5 30 -11 41 -25 41
-13 0 -21 11 -27 38 -7 27 -14 36 -26 34 -9 -2 -17 2 -17 8 0 5 5 10 11 10 5
0 7 5 4 10 -3 6 -17 10 -30 10 -13 0 -28 6 -32 14 -4 8 -21 18 -37 22 -21 5
-27 4 -22 -5 4 -6 2 -11 -4 -11 -7 0 -10 6 -7 14 8 21 -31 66 -57 66 -16 0
-32 12 -49 38 -38 55 -98 114 -113 108 -7 -3 -16 -1 -20 5 -3 6 -17 14 -30 19
-17 7 -24 17 -24 36 0 23 -3 25 -25 20 -26 -7 -65 18 -65 42 0 7 -8 15 -17 19
-10 3 -27 14 -38 23 -11 10 -33 20 -50 23 -16 3 -48 10 -70 16 -22 6 -75 11
-118 11 -63 0 -89 5 -133 26 -30 14 -54 30 -54 35 0 5 -18 12 -39 15 -22 4
-42 13 -45 20 -8 21 -61 17 -77 -6 -11 -16 -28 -21 -82 -24 -59 -3 -70 -1 -80
15 -6 10 -16 19 -21 19 -5 0 -19 9 -30 19 -40 37 -146 27 -146 -14 0 -7 -8
-23 -18 -35 -17 -21 -19 -21 -34 -6 -9 8 -19 39 -23 68 -3 29 -10 76 -16 103
-10 56 -49 299 -49 309 0 3 1042 6 2315 6 1537 0 2315 3 2315 10 0 7 -1207 10
-3600 10 l-3600 0 0 -1551z m800 1505 c0 -14 4 -33 9 -42 5 -10 17 -53 26 -97
10 -44 21 -96 25 -115 12 -57 69 -281 85 -335 8 -27 23 -78 32 -112 10 -35 21
-63 25 -63 4 0 8 -11 8 -25 0 -14 7 -28 16 -32 12 -4 14 -14 9 -42 l-7 -36 21
27 c12 14 21 31 21 37 0 16 64 71 72 63 3 -4 8 -18 10 -32 1 -14 12 -30 23
-35 11 -6 21 -21 23 -33 3 -17 10 -22 33 -22 33 0 35 -5 15 -26 -13 -12 -10
-18 16 -44 16 -17 34 -28 38 -25 11 7 32 -30 23 -39 -4 -3 8 -3 25 0 34 7 39
-1 19 -27 -27 -34 -97 -34 -97 1 0 29 -11 50 -26 50 -8 0 -14 7 -14 15 0 8 -4
15 -10 15 -12 0 -13 -5 -1 -28 5 -9 14 -48 21 -87 6 -38 15 -83 20 -100 4 -16
18 -73 30 -125 11 -52 28 -122 36 -155 9 -33 26 -112 39 -175 13 -63 27 -125
30 -137 5 -14 0 -32 -12 -50 -10 -15 -31 -59 -46 -96 -23 -56 -26 -78 -21
-118 4 -27 3 -49 -2 -49 -13 0 -18 -64 -14 -170 0 -25 -4 -59 -10 -75 -8 -20
-9 -66 -4 -139 l7 -109 -39 8 c-21 4 -42 9 -45 11 -3 2 -12 32 -18 66 -7 35
-21 99 -31 143 -10 44 -31 132 -45 195 -15 63 -35 151 -45 195 -16 67 -135
600 -160 715 -24 106 -29 131 -45 200 -9 41 -21 93 -27 115 -5 22 -13 58 -17
80 -4 22 -13 50 -19 62 -7 12 -12 32 -12 45 0 13 -6 32 -14 43 -7 11 -17 54
-20 95 -4 41 -16 102 -26 135 -10 33 -30 116 -45 185 -14 69 -30 143 -35 165
-10 44 -30 143 -30 150 0 3 41 5 90 5 90 0 90 0 90 -26z m-127 -681 c11 -11
-14 -33 -37 -33 -12 0 -27 -5 -33 -11 -13 -13 -78 -8 -78 6 1 6 28 17 60 26
72 20 80 21 88 12z m-189 -42 c7 -11 -18 -33 -36 -30 -7 1 -30 -5 -50 -14 -42
-19 -66 -21 -87 -8 -23 15 -3 29 52 36 28 4 61 11 72 16 27 11 43 11 49 0z
m-194 -41 c0 -5 -10 -10 -22 -10 -19 0 -20 2 -8 10 19 13 30 13 30 0z m-55
-30 c16 -7 14 -9 -12 -7 -18 1 -33 5 -33 9 0 10 19 9 45 -2z m3799 -121 c-3
-5 -10 -7 -15 -3 -5 3 -7 10 -3 15 3 5 10 7 15 3 5 -3 7 -10 3 -15z m-2633
-224 c18 -6 27 -25 12 -25 -14 0 -43 34 -42 49 1 13 2 13 6 -1 2 -9 13 -20 24
-23z m89 -60 c0 -8 -4 -15 -9 -15 -5 0 -11 7 -15 15 -3 9 0 15 9 15 8 0 15 -7
15 -15z m1856 -311 c40 -19 82 -34 93 -34 12 0 21 -5 21 -11 0 -5 5 -7 10 -4
6 3 10 2 10 -2 0 -5 24 -17 53 -27 28 -10 63 -27 76 -37 13 -11 30 -19 37 -19
7 0 17 -7 22 -16 5 -9 12 -15 15 -15 21 3 27 0 21 -11 -6 -10 -4 -10 8 0 9 7
18 9 20 5 6 -14 98 -73 114 -73 8 0 20 -12 27 -27 15 -35 29 -46 39 -30 4 7 8
9 8 5 0 -5 0 -10 1 -12 0 -3 20 -27 45 -53 25 -26 61 -72 80 -100 20 -29 40
-50 45 -47 5 3 12 -8 15 -25 4 -17 10 -31 15 -31 16 0 56 -95 49 -115 -5 -13
-1 -28 11 -44 11 -13 19 -36 19 -52 0 -15 5 -31 11 -35 6 -3 9 -19 5 -34 -3
-18 0 -33 9 -40 11 -9 15 -34 15 -89 0 -42 5 -82 11 -88 6 -6 12 -30 13 -54 2
-40 26 -71 26 -34 0 10 7 15 18 13 9 -2 17 -10 17 -18 0 -10 -16 -18 -50 -23
-73 -12 -153 -53 -170 -87 -19 -37 -20 -77 -2 -62 8 7 18 8 27 1 13 -8 11 -13
-8 -26 -13 -9 -35 -18 -50 -19 -45 -5 -73 -64 -31 -64 12 0 35 6 52 14 78 35
167 48 271 40 56 -5 106 -9 111 -9 18 -1 52 -41 59 -68 3 -15 20 -42 36 -60
16 -19 26 -37 22 -41 -4 -4 -7 -13 -7 -19 -3 -86 -51 -111 -155 -82 -8 2 -60
0 -115 -4 l-100 -7 62 -8 c82 -11 90 -31 15 -39 -194 -21 -304 -63 -392 -152
-65 -66 -51 -80 20 -19 57 49 84 53 88 14 1 -14 7 -43 13 -64 8 -30 8 -41 -2
-47 -25 -15 41 -30 100 -23 48 6 53 5 48 -10 -5 -12 0 -16 23 -16 16 0 40 -5
53 -11 19 -9 42 -6 108 11 75 19 84 20 95 6 15 -21 19 -21 69 14 24 16 45 40
49 55 5 21 12 25 41 25 25 0 37 6 46 23 7 12 12 23 11 25 -7 9 1 31 17 48 10
11 24 30 30 43 10 18 15 20 27 10 8 -6 14 -18 14 -27 0 -8 7 -24 16 -34 16
-17 19 -44 11 -98 -7 -50 -19 -80 -30 -73 -6 3 -7 1 -3 -6 4 -6 12 -9 17 -6
13 9 23 -23 12 -38 -11 -13 5 -167 17 -167 8 0 4 -87 -10 -195 -30 -228 -33
-241 -66 -309 -19 -38 -34 -74 -34 -81 0 -18 -131 -145 -172 -166 -21 -11 -38
-25 -38 -31 0 -6 -3 -8 -7 -5 -3 4 -12 2 -19 -4 -7 -6 -31 -12 -53 -13 -30 -2
-46 -10 -62 -30 -12 -15 -38 -34 -58 -42 -20 -8 -46 -29 -57 -47 -17 -26 -28
-32 -50 -31 -17 1 -38 -7 -50 -18 -19 -17 -22 -17 -27 -3 -5 12 -16 14 -49 9
-24 -4 -48 -12 -54 -20 -7 -8 -39 -14 -88 -16 -70 -3 -76 -5 -74 -23 2 -12 12
-21 26 -23 13 -2 22 -10 22 -21 0 -9 5 -22 12 -29 19 -19 -4 -35 -34 -23 -16
6 -75 6 -159 1 -206 -14 -252 -23 -314 -65 -30 -21 -39 -23 -60 -13 -29 13
-55 -3 -55 -33 0 -17 -8 -19 -62 -18 -35 1 -74 4 -88 8 -23 6 -24 7 -5 15 11
4 48 10 82 13 34 3 60 10 57 14 -7 12 -81 11 -89 -1 -3 -6 -19 -10 -36 -10
-16 0 -29 -4 -29 -10 0 -5 -8 -11 -17 -11 -16 -1 -16 -2 0 -6 11 -3 16 -11 13
-18 -12 -31 253 -74 314 -51 55 20 170 45 236 51 73 6 77 5 60 -9 -11 -9 -26
-16 -33 -16 -7 0 -13 -8 -13 -17 0 -14 2 -15 9 -4 12 18 31 5 31 -22 0 -26
-16 -54 -26 -45 -3 4 -14 -1 -23 -11 -24 -27 -116 -53 -146 -41 -14 5 -25 14
-25 20 0 5 -11 10 -24 10 -14 0 -28 5 -31 10 -10 15 -28 12 -22 -4 3 -8 1 -16
-6 -19 -7 -2 -12 -12 -12 -23 0 -10 -8 -20 -17 -22 -11 -2 -18 3 -18 11 0 21
-23 37 -39 27 -8 -4 -11 -15 -8 -24 5 -13 -2 -16 -43 -18 -90 -3 -110 -5 -117
-12 -3 -3 7 -6 23 -6 58 0 103 -12 97 -25 -2 -8 5 -19 17 -25 21 -11 21 -11
-7 -35 -22 -20 -25 -27 -15 -37 10 -10 15 -10 22 2 7 12 12 12 21 3 9 -9 9
-16 -1 -28 -11 -13 -2 -15 78 -15 50 0 144 8 209 17 146 22 312 21 329 -2 7
-9 19 -13 30 -9 11 3 15 2 9 -3 -5 -4 -11 -26 -12 -47 -1 -23 -8 -43 -17 -48
-30 -17 -45 -39 -71 -110 -15 -40 -33 -78 -40 -83 -7 -6 -16 -21 -20 -35 -8
-27 -38 -60 -54 -60 -5 0 -16 -9 -24 -21 -18 -25 -161 -99 -191 -99 -13 0 -26
-3 -30 -7 -4 -5 -69 -9 -144 -10 -75 -2 -164 -4 -197 -5 -33 -1 -86 2 -119 6
-41 5 -56 5 -52 -3 4 -6 20 -11 36 -11 16 0 31 -4 34 -9 3 -4 25 -12 48 -15
55 -10 243 -27 285 -26 18 0 35 -4 38 -10 4 -6 15 -6 31 0 14 6 29 8 34 5 4
-3 24 2 44 10 19 8 49 15 65 15 16 0 33 5 36 10 3 6 19 10 35 10 16 0 32 5 35
10 8 13 45 13 45 0 0 -5 -5 -10 -12 -10 -18 0 -3 -10 23 -15 13 -3 45 -10 72
-16 45 -10 47 -13 47 -46 0 -39 15 -73 33 -73 7 -1 22 -9 35 -20 20 -17 22
-24 16 -76 -3 -32 -9 -67 -13 -78 -5 -12 -6 -27 -4 -34 3 -7 0 -19 -7 -27 -12
-15 -12 -177 1 -170 3 3 12 -16 19 -42 11 -37 11 -52 1 -77 -7 -17 -12 -35
-12 -41 16 -132 16 -157 -1 -175 -10 -11 -24 -17 -32 -14 -20 8 -30 -14 -15
-32 10 -13 10 -17 -2 -25 -8 -5 -10 -9 -5 -9 5 0 4 -6 -2 -13 -7 -8 -7 -18 -2
-27 6 -8 10 -32 10 -52 0 -21 5 -38 10 -38 6 0 10 18 10 40 0 45 19 53 52 23
36 -33 13 -84 -36 -79 -14 2 -29 -1 -32 -5 -3 -5 -18 -16 -35 -24 -26 -14 -31
-14 -55 2 -25 16 -27 16 -40 -1 -7 -10 -17 -15 -23 -11 -7 3 -8 0 -5 -9 3 -9
1 -16 -5 -16 -6 0 -11 5 -11 10 0 13 -57 13 -62 -1 -2 -5 -10 -11 -18 -13 -24
-4 -80 -36 -80 -45 0 -5 -15 -12 -34 -15 -25 -5 -36 -13 -40 -31 -5 -20 -13
-25 -36 -25 -16 0 -32 -5 -35 -10 -9 -14 -59 -12 -74 2 -10 11 -11 10 -6 -3 5
-14 -6 -18 -77 -25 -80 -9 -128 -1 -128 20 0 5 -6 3 -14 -3 -11 -10 -20 -10
-36 -1 -12 6 -41 12 -64 13 -39 2 -46 6 -72 46 -20 30 -40 47 -66 56 -57 19
-255 146 -270 173 -7 13 -36 45 -64 71 -28 26 -64 67 -79 91 -15 25 -44 63
-65 85 -20 22 -61 90 -90 150 -30 61 -72 139 -94 174 -69 111 -116 262 -116
373 0 38 -6 96 -14 127 -19 75 -18 522 2 528 17 6 15 62 -3 69 -8 4 -15 11
-15 16 0 6 -13 23 -30 38 -16 15 -30 23 -30 18 0 -7 -5 -6 -13 1 -17 14 -27 5
-28 -28 -1 -17 -4 -10 -10 18 -5 25 -14 48 -20 52 -7 4 -9 17 -5 32 8 32 -50
108 -76 101 -13 -4 -16 -1 -12 10 6 15 -11 42 -73 115 -18 21 -33 45 -33 53 0
9 -8 26 -19 39 -10 13 -22 38 -25 56 -8 35 -30 58 -46 48 -5 -3 -10 -2 -10 4
0 5 5 13 10 16 15 9 12 51 -4 64 -8 7 -14 20 -14 29 0 9 -7 46 -17 82 -9 36
-21 81 -26 101 -6 24 -17 39 -32 44 -19 6 -19 8 -4 12 27 7 20 30 -13 42 -33
11 -37 28 -15 71 18 35 10 90 -14 90 -9 0 -24 -12 -34 -27 l-18 -28 5 30 c2
17 9 47 14 68 15 55 3 248 -19 339 -10 42 -19 90 -19 106 0 16 -7 35 -15 42
-9 7 -15 23 -13 34 2 16 9 20 29 18 l26 -2 6 127 c4 100 10 137 26 169 12 24
20 60 19 86 0 24 6 57 15 74 11 22 12 33 3 46 -8 14 -7 21 8 35 15 14 19 15
23 4 3 -7 18 18 34 55 16 38 40 79 54 92 27 25 55 83 55 114 0 10 7 21 15 24
8 4 15 14 15 24 0 9 9 25 20 35 11 10 20 22 20 26 0 16 53 60 66 55 9 -3 14 1
15 12 0 9 3 12 5 6 3 -7 14 -10 24 -7 11 3 20 0 20 -6 0 -6 8 -11 18 -11 16 1
16 1 -1 11 -9 6 -15 14 -12 20 4 5 -9 9 -27 9 -33 1 -77 24 -61 33 4 2 20 7
35 11 29 7 40 32 24 57 -14 25 22 65 54 61 14 -2 40 4 58 14 30 16 33 22 29
54 -2 21 1 41 10 50 36 39 72 93 68 101 -3 4 -1 10 5 14 5 3 10 15 10 26 0 10
5 19 11 19 5 0 7 4 4 10 -3 5 12 29 34 51 22 23 47 57 56 76 9 18 21 33 28 33
7 0 25 28 41 63 15 34 41 73 56 87 15 14 30 35 34 47 4 13 13 22 19 20 6 -1
16 13 21 31 7 20 16 32 28 32 10 0 18 5 18 12 0 6 3 8 7 5 3 -4 25 9 49 28 28
23 53 35 73 35 17 0 31 4 31 9 0 13 26 21 94 27 33 3 76 10 93 15 18 6 38 7
44 3 7 -4 9 -3 6 3 -10 16 123 60 137 46 2 -3 15 1 28 8 31 18 120 28 187 21
31 -3 85 -19 127 -38z m1431 -656 c-3 -7 -5 -2 -5 12 0 14 2 19 5 13 2 -7 2
-19 0 -25z m-4730 -380 c-3 -8 -6 -5 -6 6 -1 11 2 17 5 13 3 -3 4 -12 1 -19z
m123 -453 c0 -17 -2 -17 -10 -5 -5 8 -10 24 -10 35 0 17 2 17 10 5 5 -8 10
-24 10 -35z m1090 20 c0 -9 -9 -15 -25 -15 -16 0 -25 6 -25 15 0 9 9 15 25 15
16 0 25 -6 25 -15z m-1049 -120 c6 -22 16 -51 21 -65 6 -14 16 -47 23 -75 7
-27 27 -104 45 -170 251 -949 306 -1213 258 -1223 -12 -2 -18 3 -18 14 0 9
-11 40 -25 68 -29 61 -56 161 -85 316 -24 130 -87 423 -126 580 -14 58 -36
155 -49 215 -13 61 -30 135 -38 165 -8 30 -20 82 -27 115 -7 33 -16 74 -20 92
-17 70 22 40 41 -32z m789 -193 c0 -5 9 -17 19 -29 24 -26 63 -139 101 -293 5
-19 18 -69 29 -110 18 -65 20 -69 17 -30 -2 25 -18 119 -36 210 -34 174 -46
260 -37 260 16 0 115 -364 247 -910 60 -246 76 -402 47 -459 -10 -20 -13 -41
-8 -63 4 -18 4 -46 0 -63 -11 -50 -10 -61 11 -85 31 -35 23 -69 -8 -38 -9 9
-12 6 -12 -14 0 -14 7 -31 16 -38 26 -22 37 -50 24 -65 -6 -7 -9 -18 -8 -25 4
-16 -47 -54 -61 -46 -6 4 -11 25 -11 47 0 21 -4 39 -9 39 -5 0 -12 20 -15 45
-4 24 -12 47 -17 51 -5 3 -7 13 -4 23 6 19 -21 131 -36 146 -5 5 -9 21 -9 36
0 19 -5 26 -17 25 -12 -1 -17 5 -15 17 2 10 -7 21 -22 28 -14 7 -23 15 -21 19
8 13 -22 43 -35 35 -9 -6 -10 -22 -5 -64 5 -31 9 -68 10 -84 1 -15 5 -30 8
-34 4 -3 7 -21 7 -39 0 -17 7 -45 15 -60 17 -32 20 -80 6 -88 -5 -3 -12 6 -15
20 -7 25 -8 25 -20 8 -12 -15 -16 -16 -29 -5 -21 17 -10 43 15 36 16 -6 18 -2
15 27 -4 46 -15 61 -39 55 -31 -8 -45 2 -41 27 3 16 -2 28 -14 37 -23 16 -38
65 -23 74 13 8 2 26 -13 23 -32 -6 -66 14 -82 48 -9 20 -18 42 -19 48 -1 6 -6
17 -10 25 -14 22 -7 114 10 130 5 5 41 17 79 27 39 10 74 21 78 24 7 6 -15
113 -59 281 -12 49 -32 166 -37 224 -1 11 -6 26 -11 33 -10 17 -1 70 20 112
13 26 15 52 9 149 -12 208 -12 261 2 261 7 0 13 -4 13 -8z m3402 -20 c25 -15
48 -56 48 -87 0 -25 -71 -84 -120 -100 -63 -21 -75 -13 -45 30 20 30 22 44 19
101 -2 37 -1 71 2 75 7 11 63 0 96 -19z m-222 -31 c0 -17 -18 -31 -41 -31 -5
0 -9 11 -9 25 0 20 5 25 25 25 18 0 25 -5 25 -19z m-2830 4 c0 -2 -5 -16 -12
-29 -9 -22 -8 -29 7 -46 10 -11 15 -26 11 -36 -6 -16 -8 -15 -21 2 -20 26 -20
114 0 114 8 0 15 -2 15 -5z m3545 -852 c137 -145 225 -430 225 -733 0 -144
-26 -335 -60 -430 -4 -14 -11 -36 -14 -50 -9 -38 -21 -51 -40 -44 -12 5 -14
10 -5 20 8 10 5 23 -12 53 -17 32 -21 49 -16 88 4 36 0 58 -14 87 -10 22 -19
49 -19 60 0 25 -108 136 -132 136 -18 0 -23 17 -18 68 1 13 -5 33 -13 45 -8
13 -18 56 -22 96 -7 68 -19 112 -46 167 -9 17 -3 44 30 134 23 61 41 121 41
133 0 26 71 197 82 197 4 0 19 -12 33 -27z m-3360 -293 c-12 -19 -35 10 -35
44 l0 31 21 -32 c11 -18 18 -37 14 -43z m-42 -72 c6 -20 -4 -49 -17 -45 -18 6
-20 57 -2 57 8 0 16 -6 19 -12z m77 -35 c-8 -3 -22 -11 -30 -17 -13 -10 -13
-9 -1 7 7 9 21 17 30 16 13 0 14 -1 1 -6z m-24 -85 c4 -5 -1 -8 -12 -9 -10 0
-31 -2 -46 -4 -18 -2 -28 1 -28 9 0 13 73 17 86 4z m70 -75 c-10 -10 -19 5
-10 18 6 11 8 11 12 0 2 -7 1 -15 -2 -18z m-86 -34 c0 -14 -17 -10 -23 5 -4
10 -1 13 9 9 7 -3 14 -9 14 -14z m-35 -79 c3 -5 1 -10 -4 -10 -6 0 -11 5 -11
10 0 6 2 10 4 10 3 0 8 -4 11 -10z m2800 -10 c4 -6 0 -21 -8 -33 -7 -12 -17
-34 -21 -49 -3 -16 -13 -28 -21 -28 -8 0 -19 -9 -25 -20 -6 -11 -15 -18 -21
-15 -5 4 -7 11 -4 16 9 13 -30 5 -49 -10 -22 -18 -31 -8 -11 12 8 9 15 19 15
24 0 16 60 81 80 86 11 3 18 1 14 -4 -3 -5 -1 -9 5 -9 5 0 13 9 16 20 7 22 20
26 30 10z m400 -30 c3 -5 1 -10 -4 -10 -6 0 -11 5 -11 10 0 6 2 10 4 10 3 0 8
-4 11 -10z m452 -147 c-2 -21 -4 -4 -4 37 0 41 2 58 4 38 2 -21 2 -55 0 -75z
m-1834 90 c-7 -2 -21 -2 -30 0 -10 3 -4 5 12 5 17 0 24 -2 18 -5z m-1847 -134
c8 -46 16 -113 19 -149 l5 -65 -15 60 c-8 33 -14 81 -15 108 0 26 -4 47 -10
47 -5 0 -10 21 -10 47 0 65 9 49 26 -48z m324 69 c0 -16 -3 -19 -11 -11 -6 6
-8 16 -5 22 11 17 16 13 16 -11z m-355 -78 c3 -5 2 -10 -4 -10 -5 0 -13 5 -16
10 -3 6 -2 10 4 10 5 0 13 -4 16 -10z m2993 -70 c13 -22 27 -38 32 -35 5 3 17
-9 26 -27 9 -17 23 -38 30 -46 8 -7 14 -21 14 -30 0 -8 9 -25 19 -36 10 -12
26 -43 36 -71 9 -27 21 -55 26 -62 6 -6 11 -26 11 -44 1 -17 16 -57 35 -87 18
-31 33 -63 33 -72 0 -8 18 -46 40 -84 22 -37 40 -72 40 -76 0 -14 -53 -46
-104 -64 -93 -30 -159 -19 -250 43 -49 34 -55 47 -101 214 -26 95 -26 99 -8
112 10 8 13 15 6 15 -17 0 -59 80 -66 125 -3 22 -9 49 -12 60 -7 26 73 114 86
93 6 -9 9 -5 9 13 0 14 9 34 20 44 11 10 22 26 25 36 10 30 28 22 53 -21z
m-978 20 c0 -5 -4 -10 -10 -10 -5 0 -10 5 -10 10 0 6 5 10 10 10 6 0 10 -4 10
-10z m-2054 -46 c-7 -18 -40 -18 -55 0 -9 11 -5 17 21 29 29 14 33 14 36 1 2
-8 1 -22 -2 -30z m2074 11 c0 -8 -7 -15 -15 -15 -16 0 -20 12 -8 23 11 12 23
8 23 -8z m-1553 -25 c-4 -16 -2 -32 4 -35 5 -4 8 -14 7 -23 -2 -13 4 -17 28
-16 l31 2 5 -82 c10 -156 4 -586 -8 -594 -6 -4 -15 -31 -19 -61 -8 -57 -39
-101 -71 -101 -24 0 -101 66 -120 102 -12 23 -13 36 -5 60 10 28 8 61 -6 98
-4 8 -7 20 -7 25 -1 6 -5 33 -10 62 -9 62 -1 93 25 93 23 0 26 25 4 34 -22 8
-1 48 23 44 13 -2 16 3 14 22 -8 83 -1 191 14 214 9 13 10 25 3 37 -6 12 -5
20 1 24 8 5 8 11 0 20 -7 9 -6 16 5 25 8 7 15 17 15 23 0 16 42 57 58 57 11 0
13 -8 9 -30z m1603 -16 c0 -2 -9 -4 -21 -4 -11 0 -18 4 -14 10 5 8 35 3 35 -6z
m-2079 -29 c-1 -15 -24 -12 -29 3 -3 9 2 13 12 10 10 -1 17 -7 17 -13z m3219
5 c0 -5 -4 -10 -10 -10 -5 0 -10 5 -10 10 0 6 5 10 10 10 6 0 10 -4 10 -10z
m-3335 -25 c13 0 21 -8 23 -23 4 -28 -17 -57 -31 -43 -5 5 -15 7 -22 5 -6 -3
-18 2 -25 11 -17 20 3 71 23 58 6 -4 21 -8 32 -8z m385 -40 c11 -13 10 -14 -4
-9 -9 3 -16 10 -16 15 0 13 6 11 20 -6z m3020 1 c0 -2 -7 -9 -15 -16 -12 -10
-15 -10 -15 4 0 9 7 16 15 16 8 0 15 -2 15 -4z m-3223 -53 c-3 -10 -5 -2 -5
17 0 19 2 27 5 18 2 -10 2 -26 0 -35z m-110 -20 c-5 -12 -14 -23 -19 -23 -12
0 -10 44 4 58 18 18 29 -6 15 -35z m-57 -32 c0 -26 -14 -41 -39 -40 -25 0 -25
0 -3 9 12 5 22 16 22 25 0 8 5 15 10 15 6 0 10 -4 10 -9z m414 -28 c3 -7 2
-13 -2 -13 -13 1 -42 27 -42 39 0 14 37 -8 44 -26z m3206 7 c0 -5 -4 -10 -10
-10 -5 0 -10 5 -10 10 0 6 5 10 10 10 6 0 10 -4 10 -10z m-3456 -46 c4 -9 4
-19 2 -21 -8 -8 -26 8 -26 23 0 19 16 18 24 -2z m186 6 c0 -5 -5 -10 -11 -10
-5 0 -7 5 -4 10 3 6 8 10 11 10 2 0 4 -4 4 -10z m-344 -37 c-10 -10 -19 5 -10
18 6 11 8 11 12 0 2 -7 1 -15 -2 -18z m88 -74 c-8 -13 -24 -1 -24 18 0 13 3
13 15 3 8 -7 12 -16 9 -21z m282 -16 c-10 -10 -19 5 -10 18 6 11 8 11 12 0 2
-7 1 -15 -2 -18z m-396 -6 c0 -2 -9 -12 -20 -22 -19 -18 -20 -17 -20 3 0 15 6
22 20 22 11 0 20 -2 20 -3z m397 -29 c-3 -8 -6 -5 -6 6 -1 11 2 17 5 13 3 -3
4 -12 1 -19z m-347 -31 c0 -20 -9 -25 -31 -20 -28 8 -24 33 6 33 14 0 25 -6
25 -13z m117 -53 c-3 -3 -12 -4 -19 -1 -8 3 -5 6 6 6 11 1 17 -2 13 -5z m-199
-71 c-6 -7 -14 -13 -19 -13 -13 0 -11 24 3 38 16 16 31 -7 16 -25z m3742 15
c17 -12 30 -27 30 -32 0 -6 -4 -5 -9 3 -5 8 -18 12 -29 9 -29 -8 -56 10 -41
28 15 18 14 18 49 -8z m-3703 -10 c-3 -8 -6 -5 -6 6 -1 11 2 17 5 13 3 -3 4
-12 1 -19z m3633 -34 c0 -33 -16 -30 -35 5 -11 23 -12 30 -2 34 19 7 37 -13
37 -39z m-3430 10 c0 -8 -4 -14 -10 -14 -5 0 -10 9 -10 21 0 11 5 17 10 14 6
-3 10 -13 10 -21z m78 -25 c2 -23 2 -23 -13 -5 -18 24 -20 39 -2 34 6 -3 13
-15 15 -29z m3470 -63 c3 -14 -2 -17 -30 -14 -18 2 -32 8 -30 13 1 6 6 10 11
10 5 0 13 3 17 8 12 11 29 3 32 -17z m-3508 -23 c0 -10 -4 -24 -9 -32 -7 -11
-11 -10 -19 6 -8 14 -8 23 0 31 17 17 28 15 28 -5z m60 -22 c0 -23 -16 -36
-25 -21 -9 14 1 40 15 40 5 0 10 -9 10 -19z m-360 -35 c0 -11 -19 -15 -25 -6
-3 5 1 10 9 10 9 0 16 -2 16 -4z m3834 -32 c3 -9 3 -20 0 -25 -8 -13 -34 9
-34 27 0 19 26 18 34 -2z m-3734 -44 c0 -12 -28 -25 -36 -17 -9 9 6 27 22 27
8 0 14 -5 14 -10z m-162 -48 c3 -9 -2 -13 -14 -10 -9 1 -19 9 -22 16 -3 9 2
13 14 10 9 -1 19 -9 22 -16z m369 -15 c-6 -20 -27 -19 -27 2 0 14 5 19 15 14
9 -3 14 -10 12 -16z m-289 -32 c-3 -20 -36 -29 -66 -20 -25 9 4 40 37 40 26 0
31 -4 29 -20z m4154 -37 l-5 -33 -8 29 c-8 30 -3 50 10 42 4 -3 5 -20 3 -38z
m-4292 -19 c0 -6 9 -22 20 -36 15 -20 17 -28 8 -43 -19 -30 -38 -12 -38 36 0
34 -3 42 -15 38 -8 -4 -15 -1 -15 5 0 6 9 11 20 11 11 0 20 -5 20 -11z m4330
-3 c0 -3 -4 -8 -10 -11 -5 -3 -10 -1 -10 4 0 6 5 11 10 11 6 0 10 -2 10 -4z
m-345 -16 c3 -5 -1 -10 -10 -10 -9 0 -13 5 -10 10 3 6 8 10 10 10 2 0 7 -4 10
-10z m90 -20 c3 -5 1 -10 -4 -10 -6 0 -11 5 -11 10 0 6 2 10 4 10 3 0 8 -4 11
-10z m-3747 -33 c2 -12 -3 -17 -17 -17 -12 0 -21 6 -21 13 0 31 32 34 38 4z
m-58 -6 c0 -11 3 -26 6 -35 3 -9 2 -16 -3 -16 -13 0 -35 49 -28 61 10 16 25
10 25 -10z m3786 -28 c27 -29 24 -45 -4 -20 -10 10 -24 17 -30 17 -13 0 -16
13 -5 23 10 10 12 9 39 -20z m-4116 -23 c0 -11 -6 -20 -14 -20 -9 0 -12 7 -9
20 3 11 9 20 14 20 5 0 9 -9 9 -20z m4032 -18 c-19 -6 -44 6 -37 18 4 7 14 6
28 -2 14 -7 17 -13 9 -16z m189 -70 c9 -17 10 -28 2 -40 -6 -10 -7 -26 -2 -39
5 -13 4 -25 -1 -28 -6 -4 -10 1 -10 9 0 9 -6 16 -14 16 -16 0 -31 68 -21 99 3
11 2 22 -4 25 -5 3 -7 16 -4 27 6 20 8 19 24 -12 10 -19 24 -44 30 -57z
m-4131 69 c0 -10 -30 -24 -37 -17 -3 3 -2 9 2 15 8 13 35 15 35 2z m287 -37
c16 -14 20 -23 11 -26 -15 -5 -20 -128 -6 -128 6 0 19 11 30 25 26 33 42 32
34 -2 -8 -35 -46 -69 -57 -52 -5 9 -16 6 -38 -10 l-31 -22 0 34 c0 19 7 40 15
47 8 7 15 23 15 35 0 12 -7 39 -15 58 -31 75 -13 92 42 41z m83 1 c0 -8 -4
-15 -10 -15 -5 0 -10 7 -10 15 0 8 5 15 10 15 6 0 10 -7 10 -15z m3645 -55 c3
-5 2 -10 -4 -10 -5 0 -13 5 -16 10 -3 6 -2 10 4 10 5 0 13 -4 16 -10z m-4045
-114 c0 -22 -24 -38 -38 -24 -20 20 -14 38 13 38 15 0 25 -6 25 -14z m4090
-10 c0 -11 -19 -15 -25 -6 -3 5 1 10 9 10 9 0 16 -2 16 -4z m-3836 -61 c-4 -8
-8 -15 -10 -15 -2 0 -4 7 -4 15 0 8 4 15 10 15 5 0 7 -7 4 -15z m-234 -30 c0
-21 -28 -31 -43 -16 -9 9 -8 14 3 21 22 14 40 12 40 -5z m-183 -28 c-2 -7 -11
-13 -20 -15 -12 -3 -17 4 -17 23 0 23 2 25 21 15 11 -6 18 -17 16 -23z m58 23
c-3 -5 -10 -10 -16 -10 -5 0 -9 5 -9 10 0 6 7 10 16 10 8 0 12 -4 9 -10z
m4032 -22 c-3 -8 -6 -5 -6 6 -1 11 2 17 5 13 3 -3 4 -12 1 -19z m248 2 c3 -5
-1 -10 -9 -10 -9 0 -16 5 -16 10 0 6 4 10 9 10 6 0 13 -4 16 -10z m-4105 -9
c0 -16 -41 -61 -56 -61 -22 0 -17 20 12 46 26 25 44 31 44 15z m4030 -27 c13
-33 13 -34 -3 -34 -8 0 -19 11 -25 25 -15 33 -15 35 3 35 9 0 20 -12 25 -26z
m-4000 -44 c9 -16 8 -18 -5 -14 -8 4 -15 12 -15 20 0 20 7 17 20 -6z m3917
-12 c-3 -8 -6 -5 -6 6 -1 11 2 17 5 13 3 -3 4 -12 1 -19z m-1137 2 c0 -5 -7
-10 -16 -10 -8 0 -12 5 -9 10 3 6 10 10 16 10 5 0 9 -4 9 -10z m-3025 -15
c-21 -15 -53 -19 -79 -9 -28 11 -9 20 45 22 49 2 51 1 34 -13z m-82 -40 c-7
-21 -13 -19 -13 6 0 11 4 18 10 14 5 -3 7 -12 3 -20z m3057 5 c0 -13 -7 -20
-20 -20 -11 0 -20 -4 -20 -10 0 -5 -4 -10 -10 -10 -5 0 -10 9 -10 21 0 18 4
20 25 15 19 -5 23 -3 19 9 -4 8 -1 15 5 15 6 0 11 -9 11 -20z m22 -57 c6 -22
-1 -43 -13 -43 -5 0 -9 14 -9 30 0 33 15 41 22 13z m-3052 -33 c0 -5 -4 -10
-10 -10 -5 0 -10 5 -10 10 0 6 5 10 10 10 6 0 10 -4 10 -10z m4412 -37 c21
-19 23 -33 6 -33 -17 1 -53 50 -37 50 7 0 21 -7 31 -17z m-4374 -77 c-25 -38
-38 -45 -38 -21 0 18 48 70 56 62 3 -3 -5 -21 -18 -41z m4026 23 c-3 -5 -10
-7 -15 -3 -5 3 -7 10 -3 15 3 5 10 7 15 3 5 -3 7 -10 3 -15z m-3728 -26 c-10
-10 -19 5 -10 18 6 11 8 11 12 0 2 -7 1 -15 -2 -18z m4174 -14 c0 -6 -7 -12
-16 -16 -18 -7 -34 12 -34 40 0 16 2 16 25 1 14 -9 25 -20 25 -25z m-4360 23
c0 -13 -39 -46 -46 -40 -8 9 19 48 33 48 7 0 13 -4 13 -8z m4312 -89 c8 -16 7
-27 -6 -44 l-16 -23 0 32 c0 17 -4 32 -10 32 -5 0 -10 -4 -10 -10 0 -5 -4 -10
-10 -10 -18 0 -10 32 12 52 17 14 23 16 26 6 2 -7 8 -23 14 -35z m138 33 c0
-8 -4 -18 -10 -21 -5 -3 -10 3 -10 14 0 12 5 21 10 21 6 0 10 -6 10 -14z
m-4504 -46 c21 -8 25 -13 15 -20 -8 -4 -20 -6 -28 -3 -8 3 -25 -5 -38 -17 -14
-13 -28 -21 -31 -18 -11 11 34 80 47 72 3 -2 19 -8 35 -14z m4489 -31 c0 -21
-4 -24 -39 -23 -26 1 -44 7 -50 18 -15 23 7 36 54 31 29 -2 35 -7 35 -26z
m-135 -44 c8 -10 10 -29 7 -52 -5 -26 -2 -42 9 -55 21 -23 11 -73 -13 -64 -8
4 -22 1 -30 -5 -16 -14 -37 2 -47 38 -7 20 -4 21 28 16 33 -5 36 -4 36 20 0
16 -10 33 -27 45 -25 18 -26 22 -15 46 13 29 33 33 52 11z m-105 -46 c4 -17 5
-32 3 -35 -9 -8 -50 45 -43 55 12 21 33 11 40 -20z m181 5 c-3 -9 -6 -18 -6
-20 0 -2 -7 -4 -15 -4 -18 0 -19 12 -3 28 17 17 31 15 24 -4z m-4506 -33 c-5
-10 -16 -23 -24 -31 -14 -11 -16 -9 -16 17 0 36 18 57 37 42 8 -8 10 -17 3
-28z m4268 -42 c2 -23 2 -23 -13 -5 -18 24 -20 39 -2 34 6 -3 13 -15 15 -29z
m92 -105 c0 -29 -15 -31 -30 -5 -15 29 -12 40 10 34 13 -3 20 -14 20 -29z
m-4367 -35 c-6 -6 -21 -9 -34 -6 -22 4 -22 4 4 6 15 0 27 6 27 13 0 6 3 8 7 5
4 -4 2 -12 -4 -18z m42 -49 c-8 -24 -5 -24 40 -6 31 13 36 13 52 -2 16 -16 15
-17 -8 -20 -61 -7 -67 -10 -61 -39 3 -16 14 -34 25 -42 11 -8 35 -48 55 -90
28 -61 35 -87 34 -135 -1 -32 -5 -63 -10 -68 -5 -5 -22 9 -41 32 -32 41 -32
41 -22 106 11 73 7 91 -26 117 -13 10 -23 26 -23 35 0 22 -50 72 -72 72 -22 0
-23 9 -2 38 9 13 26 22 40 22 21 0 24 -4 19 -20z m-101 -46 c13 -5 14 -9 5
-20 -6 -8 -17 -14 -24 -14 -6 0 -20 -9 -30 -20 -25 -28 -37 -25 -33 7 2 17 12
32 28 40 29 15 33 15 54 7z m4625 -38 c10 -12 8 -17 -9 -26 -11 -6 -25 -8 -30
-5 -14 9 -12 32 3 38 20 9 24 8 36 -7z m-4719 -69 c0 -13 -6 -32 -14 -42 -11
-16 -17 -17 -29 -7 -8 7 -18 9 -21 4 -11 -19 1 -118 18 -145 13 -19 16 -37 12
-62 -7 -34 -26 -59 -26 -32 0 8 -11 26 -24 40 -21 23 -25 24 -39 10 -30 -30
-39 -6 -32 79 6 65 12 84 32 104 13 13 28 24 33 24 5 0 15 9 23 21 13 18 16
19 24 5 8 -14 10 -13 23 4 18 25 20 25 20 -3z m4545 -5 c-8 -8 -25 10 -19 20
4 6 9 5 15 -3 4 -7 6 -15 4 -17z m-4197 -11 c9 -25 8 -29 -4 -24 -8 3 -14 16
-14 29 0 32 6 30 18 -5z m4322 5 c0 -33 -16 -42 -30 -16 -12 23 -6 40 16 40 8
0 14 -10 14 -24z m-63 -17 c7 -7 9 -25 6 -40 -4 -24 -1 -30 19 -38 32 -12 45
-41 19 -41 -11 0 -21 6 -24 13 -2 6 -8 9 -12 5 -4 -4 2 -19 14 -34 23 -29 21
-40 -4 -30 -21 8 -65 108 -65 146 0 22 5 30 18 30 10 0 23 -5 29 -11z m-4497
-109 c0 -11 -2 -20 -5 -20 -2 0 -9 9 -15 20 -9 16 -8 20 5 20 8 0 15 -9 15
-20z m-124 -17 c-10 -10 -19 5 -10 18 6 11 8 11 12 0 2 -7 1 -15 -2 -18z m74
-82 c0 -39 -25 -60 -39 -32 -15 26 -14 48 2 54 27 12 37 6 37 -22z m219 -140
c-12 -47 -14 -49 -26 -30 -17 23 -13 65 5 61 7 -1 15 5 19 13 12 34 14 3 2
-44z m4477 38 c3 -6 2 -15 -2 -19 -12 -12 -38 5 -30 19 9 14 23 14 32 0z
m-4702 -7 c8 -13 -32 -72 -49 -72 -8 0 -15 -4 -15 -9 0 -5 -7 -11 -15 -15 -21
-8 -19 26 3 47 9 9 26 25 37 36 22 22 31 25 39 13z m4756 -36 c0 -16 -18 -31
-27 -22 -8 8 5 36 17 36 5 0 10 -6 10 -14z m-130 -136 c0 -12 -28 -25 -36 -17
-9 9 6 27 22 27 8 0 14 -5 14 -10z m-4750 -103 c0 -17 -20 -37 -37 -37 -7 0
-13 11 -13 25 0 20 5 25 25 25 14 0 25 -6 25 -13z m177 -39 c-2 -13 -4 -5 -4
17 -1 22 1 32 4 23 2 -10 2 -28 0 -40z m-120 -10 c-3 -7 -5 -2 -5 12 0 14 2
19 5 13 2 -7 2 -19 0 -25z m103 -32 c0 -20 -50 -77 -61 -71 -4 3 -1 21 9 39 9
19 20 32 24 30 4 -2 9 0 13 6 9 14 15 12 15 -4z m-130 -31 c-10 -12 -10 -18 1
-31 11 -14 10 -18 -6 -30 -26 -19 -35 -18 -35 7 0 21 15 54 34 75 15 17 21 -3
6 -21z m4708 3 c7 -7 12 -19 12 -27 0 -11 -4 -10 -20 4 -21 19 -26 35 -12 35
4 0 13 -5 20 -12z m36 -65 c4 -4 24 -8 44 -8 31 0 38 -4 40 -22 4 -27 -23 -31
-54 -9 -10 8 -29 12 -41 9 -16 -3 -23 -1 -23 9 0 24 19 36 34 21z m39 -98 c37
-8 21 -31 -20 -30 -21 0 -29 5 -31 22 -2 15 1 22 10 19 7 -2 26 -7 41 -11z
m94 -27 c-3 -8 -6 -5 -6 6 -1 11 2 17 5 13 3 -3 4 -12 1 -19z m-5172 -67 c6
-11 -58 -34 -82 -29 -13 2 -8 8 17 20 40 20 56 22 65 9z m320 0 c3 -5 1 -12
-5 -16 -5 -3 -10 1 -10 9 0 18 6 21 15 7z m4777 -53 c-9 -9 -15 -9 -24 0 -9 9
-7 12 12 12 19 0 21 -3 12 -12z m-4972 -7 c0 -12 -20 -25 -27 -18 -7 7 6 27
18 27 5 0 9 -4 9 -9z m-11 -75 c7 -8 11 -26 9 -41 l-3 -25 -27 25 c-16 15 -25
31 -22 40 8 19 28 19 43 1z m-89 -6 c0 -9 -31 -30 -45 -30 -3 0 -1 9 5 20 11
20 40 28 40 10z m5278 -42 c-6 -18 -28 -21 -28 -4 0 9 7 16 16 16 9 0 14 -5
12 -12z m-123 -60 c24 -11 35 -38 15 -38 -6 0 -7 -23 -4 -59 4 -39 3 -61 -5
-65 -6 -4 -11 -16 -11 -27 0 -28 -35 -24 -59 7 -12 15 -21 35 -21 45 0 17 5
18 40 13 47 -8 53 7 20 49 -20 25 -27 67 -13 80 8 9 8 9 38 -5z m-5075 -59 c0
-28 -30 -51 -47 -37 -14 11 -17 40 -6 51 3 4 17 7 30 7 17 0 23 -6 23 -21z
m-103 -31 c-3 -8 -6 -5 -6 6 -1 11 2 17 5 13 3 -3 4 -12 1 -19z m19 -75 c-11
-11 -19 6 -11 24 8 17 8 17 12 0 3 -10 2 -21 -1 -24z m-196 7 c0 -5 -14 -17
-31 -25 -24 -13 -33 -14 -45 -4 -13 11 -12 14 8 25 27 16 68 18 68 4z m120 -5
c10 -13 10 -19 -5 -35 -28 -31 -45 -25 -45 15 0 28 4 35 19 35 10 0 24 -7 31
-15z m5420 -66 c0 -13 -62 -89 -73 -89 -9 0 11 39 30 58 7 7 13 20 13 28 0 8
7 14 15 14 8 0 15 -5 15 -11z m2 -153 c-2 -22 -11 -50 -21 -62 l-17 -22 -14
21 c-12 20 -12 21 3 9 13 -11 16 -10 22 7 3 11 1 29 -4 40 -18 33 -14 53 12
49 19 -3 22 -8 19 -42z m18 -182 c0 -25 -33 -75 -48 -72 -19 4 -65 92 -60 116
2 9 14 19 28 23 20 5 30 0 52 -25 15 -17 28 -36 28 -42z"/>
<path d="M2000 6896 c-4 -12 -6 -24 -4 -27 2 -4 -11 -14 -30 -23 -18 -8 -44
-33 -58 -54 -14 -21 -40 -53 -58 -70 -26 -26 -31 -38 -28 -69 l3 -38 50 3 c28
2 57 10 65 16 8 7 30 19 48 26 21 8 31 18 28 26 -3 8 -1 14 3 14 5 0 11 -6 14
-12 2 -8 16 0 36 21 26 28 40 34 74 35 23 1 59 6 80 10 30 7 41 5 50 -7 9 -12
18 -13 37 -5 l25 9 -30 25 -30 24 35 -6 c19 -4 38 -11 41 -17 4 -5 9 -3 11 4
3 8 13 14 24 14 14 0 19 7 19 28 1 22 -4 29 -25 33 -14 3 -43 10 -65 16 -22 7
-51 13 -65 15 -14 1 -74 8 -134 16 -106 13 -108 13 -116 -7z"/>
<path d="M2415 6710 c3 -5 13 -10 21 -10 8 0 14 5 14 10 0 6 -9 10 -21 10 -11
0 -17 -4 -14 -10z"/>
<path d="M2290 6364 c-120 -21 -233 -72 -256 -115 -15 -30 -15 -31 5 -24 31 9
26 -6 -16 -50 l-38 -40 40 -3 c48 -4 65 -17 65 -48 0 -28 7 -29 34 -9 11 8 34
15 50 15 17 0 26 4 20 8 -6 4 -16 17 -23 30 -16 29 -2 48 54 73 59 27 75 25
75 -12 0 -17 4 -38 9 -47 4 -9 6 -34 4 -54 -4 -30 -10 -38 -27 -39 -16 -1 -17
-2 -3 -6 9 -2 17 -8 17 -12 0 -4 18 -14 40 -21 33 -11 42 -11 63 3 26 17 73
12 98 -9 12 -11 27 -12 55 -6 l38 8 1 112 c0 62 4 112 8 112 19 0 65 -31 102
-70 39 -41 140 -98 152 -87 3 4 -8 22 -26 42 -17 20 -31 47 -31 61 0 17 -8 27
-25 34 -14 5 -25 14 -25 20 0 5 -11 12 -25 16 -14 3 -30 15 -36 25 -11 21 -44
26 -54 8 -5 -7 -15 -3 -29 10 -15 14 -26 17 -36 11 -8 -5 -19 -10 -25 -10 -5
0 -4 4 3 9 7 4 12 12 11 17 -4 24 1 36 14 27 6 -6 38 -13 70 -16 42 -4 66 -13
88 -31 38 -32 74 -37 38 -5 -13 11 -44 33 -69 47 -44 26 -50 27 -215 29 -93 1
-181 -1 -195 -3z m198 -14 c45 0 52 -3 52 -19 0 -16 -9 -20 -52 -25 -142 -14
-196 -14 -214 -1 -18 13 -18 14 -1 20 40 16 123 33 142 29 11 -2 44 -4 73 -4z
m-15 -156 c11 -11 -11 -41 -33 -47 -23 -6 -36 13 -26 38 5 15 47 21 59 9z"/>
<path d="M3995 6346 c-83 -32 -135 -78 -135 -119 0 -16 9 -11 53 29 75 69 95
84 112 84 8 0 15 5 15 10 0 12 -5 11 -45 -4z"/>
<path d="M3840 6056 c0 -9 8 -12 25 -8 37 7 41 22 6 22 -20 0 -31 -5 -31 -14z"/>
<path d="M4650 6050 c-12 -8 -10 -10 8 -10 13 0 20 4 17 10 -7 12 -6 12 -25 0z"/>
<path d="M2728 6042 c17 -11 112 -15 112 -5 0 5 -28 9 -62 11 -38 2 -58 -1
-50 -6z"/>
<path d="M1456 5945 c-3 -8 -1 -15 4 -15 6 0 10 7 10 15 0 8 -2 15 -4 15 -2 0
-6 -7 -10 -15z"/>
<path d="M3714 5640 c3 -16 9 -44 12 -60 5 -22 15 -34 39 -44 18 -8 37 -21 41
-29 5 -8 25 -22 44 -32 46 -24 112 -83 127 -115 11 -23 11 -23 6 10 -4 19 -21
60 -40 92 -18 31 -33 62 -33 70 -1 38 -98 118 -135 111 -15 -3 -25 -1 -25 6 0
7 -4 9 -10 6 -5 -3 -10 -1 -10 4 0 6 -5 11 -11 11 -7 0 -9 -11 -5 -30z"/>
<path d="M3980 5316 c0 -8 5 -18 10 -21 6 -3 10 3 10 14 0 12 -4 21 -10 21 -5
0 -10 -6 -10 -14z"/>
<path d="M3754 5256 c-18 -8 -34 -18 -38 -24 -9 -15 21 -23 50 -12 14 6 47 10
73 10 55 0 68 8 43 26 -22 17 -88 17 -128 0z"/>
<path d="M2974 5246 c-58 -26 -53 -73 6 -56 19 6 46 10 60 10 14 1 39 7 55 14
28 12 29 13 10 23 -36 19 -98 23 -131 9z"/>
<path d="M3945 5189 c-12 -19 5 -23 22 -6 16 16 16 17 1 17 -9 0 -20 -5 -23
-11z"/>
<path d="M3890 5155 c-14 -8 -38 -14 -53 -15 -16 0 -26 -4 -23 -9 7 -11 86 -2
104 12 13 10 16 27 5 27 -5 -1 -19 -7 -33 -15z"/>
<path d="M3496 5107 l-29 -23 39 4 c39 4 64 17 64 33 0 17 -45 9 -74 -14z"/>
<path d="M2745 4625 c-27 -8 -66 -15 -85 -15 -23 -1 -29 -4 -18 -8 25 -11 78
-61 78 -75 0 -17 114 -107 136 -107 30 0 30 66 1 81 -24 13 -57 44 -57 54 0 4
19 5 43 3 33 -2 42 0 42 13 0 9 6 24 14 33 8 9 12 18 10 20 -13 13 -120 14
-164 1z"/>
<path d="M3241 4454 c0 -11 3 -14 6 -6 3 7 2 16 -1 19 -3 4 -6 -2 -5 -13z"/>
<path d="M1974 4429 c-3 -6 -1 -16 5 -22 8 -8 11 -5 11 11 0 24 -5 28 -16 11z"/>
<path d="M3488 4423 c7 -3 16 -2 19 1 4 3 -2 6 -13 5 -11 0 -14 -3 -6 -6z"/>
<path d="M2921 4406 c-16 -19 -5 -40 29 -53 24 -9 31 -8 43 6 8 9 12 22 10 29
-3 6 1 12 9 13 18 1 -32 17 -58 18 -12 1 -27 -5 -33 -13z m69 -16 c0 -5 -9
-10 -20 -10 -11 0 -20 5 -20 10 0 6 9 10 20 10 11 0 20 -4 20 -10z"/>
<path d="M2885 4400 c3 -5 8 -10 11 -10 2 0 4 5 4 10 0 6 -5 10 -11 10 -5 0
-7 -4 -4 -10z"/>
<path d="M3240 4390 c0 -5 5 -10 11 -10 5 0 7 5 4 10 -3 6 -8 10 -11 10 -2 0
-4 -4 -4 -10z"/>
<path d="M3055 4331 c-6 -11 9 -23 19 -14 9 9 7 23 -3 23 -6 0 -12 -4 -16 -9z"/>
<path d="M3166 4323 c-3 -3 -4 -9 -1 -12 5 -9 75 -1 75 8 0 8 -66 11 -74 4z"/>
<path d="M3220 4279 c0 -5 5 -7 10 -4 6 3 10 8 10 11 0 2 -4 4 -10 4 -5 0 -10
-5 -10 -11z"/>
<path d="M2220 4170 c0 -5 5 -10 10 -10 6 0 10 5 10 10 0 6 -4 10 -10 10 -5 0
-10 -4 -10 -10z"/>
<path d="M2232 4121 c4 -13 18 -16 19 -4 0 4 -5 9 -11 12 -7 2 -11 -2 -8 -8z"/>
<path d="M2350 4060 c0 -5 5 -10 11 -10 5 0 7 5 4 10 -3 6 -8 10 -11 10 -2 0
-4 -4 -4 -10z"/>
<path d="M2420 4012 c0 -11 41 -34 48 -27 4 4 -2 13 -12 21 -22 15 -36 18 -36
6z"/>
<path d="M2517 3962 c-24 -5 -21 -17 8 -36 30 -20 35 -20 35 -1 0 8 9 15 20
15 16 0 19 -5 14 -24 -6 -26 10 -45 19 -22 8 21 -4 56 -19 56 -8 0 -14 4 -14
9 0 8 -27 10 -63 3z"/>
<path d="M4333 4263 c9 -2 23 -2 30 0 6 3 -1 5 -18 5 -16 0 -22 -2 -12 -5z"/>
<path d="M4532 7998 c5 -15 28 -18 29 -3 0 6 -7 12 -17 13 -10 3 -15 -1 -12
-10z"/>
<path d="M0 6226 c0 -43 7 -91 19 -125 11 -31 34 -103 52 -161 34 -111 52
-125 23 -18 -9 35 -20 81 -25 103 -55 275 -68 313 -69 201z"/>
<path d="M112 5810 c0 -14 2 -19 5 -12 2 6 2 18 0 25 -3 6 -5 1 -5 -13z"/>
<path d="M6899 5076 c27 -28 81 -59 89 -51 8 8 -7 20 -63 50 l-50 28 24 -27z"/>
<path d="M6825 5020 c-8 -13 4 -32 16 -25 12 8 12 35 0 35 -6 0 -13 -4 -16
-10z"/>
<path d="M6872 4954 c2 -11 52 -53 113 -97 213 -150 215 -151 215 -119 0 17
-70 82 -89 82 -6 0 -11 4 -11 10 0 5 -18 19 -40 30 -23 12 -49 29 -59 38 -46
44 -74 63 -102 69 -27 5 -31 3 -27 -13z"/>
<path d="M7120 4941 c0 -5 18 -20 40 -35 28 -18 40 -22 40 -12 0 7 -6 18 -13
24 -19 16 -67 33 -67 23z"/>
<path d="M6802 4910 c0 -14 2 -19 5 -12 2 6 2 18 0 25 -3 6 -5 1 -5 -13z"/>
<path d="M6809 4859 c-2 -75 4 -155 12 -164 7 -7 8 23 4 85 -6 91 -14 131 -16
79z"/>
<path d="M6850 4630 c6 -11 15 -20 21 -20 17 0 148 -104 252 -200 32 -30 63
-56 68 -58 21 -8 7 39 -17 55 -14 10 -58 44 -97 75 -40 32 -77 58 -83 58 -6 0
-22 12 -36 28 -61 66 -132 108 -108 62z"/>
<path d="M6858 4529 c-2 -7 0 -44 4 -83 7 -67 27 -296 49 -576 19 -237 24
-276 42 -303 16 -25 28 -32 50 -28 4 1 11 -9 16 -22 11 -27 76 -87 95 -87 7 0
30 -11 50 -25 l36 -24 0 84 c0 47 -4 85 -9 85 -5 0 -16 -10 -24 -22 -13 -19
-16 -20 -16 -6 -1 9 4 29 9 44 8 20 7 29 -4 38 -18 15 -25 45 -36 156 -5 52
-14 124 -20 160 -5 36 -13 110 -16 164 -7 98 -7 99 -46 138 -65 65 -68 57 -58
-187 2 -55 7 -118 11 -140 13 -75 20 -287 9 -280 -5 3 -10 27 -10 53 0 46 -22
340 -40 537 -5 55 -12 144 -16 199 -5 77 -11 103 -25 117 -21 21 -45 25 -51 8z"/>
<path d="M5978 3943 c7 -3 16 -2 19 1 4 3 -2 6 -13 5 -11 0 -14 -3 -6 -6z"/>
<path d="M5770 3930 c0 -5 5 -10 11 -10 5 0 7 5 4 10 -3 6 -8 10 -11 10 -2 0
-4 -4 -4 -10z"/>
<path d="M6010 3775 c0 -8 2 -15 4 -15 2 0 6 7 10 15 3 8 1 15 -4 15 -6 0 -10
-7 -10 -15z"/>
<path d="M5980 3751 c0 -5 5 -13 10 -16 6 -3 10 -2 10 4 0 5 -4 13 -10 16 -5
3 -10 2 -10 -4z"/>
<path d="M5247 3720 c-5 -20 0 -30 24 -49 27 -21 30 -28 24 -57 -4 -22 -2 -34
5 -34 30 0 17 71 -20 115 -10 11 -19 27 -22 35 -3 9 -7 6 -11 -10z"/>
<path d="M5560 3596 c-6 -16 -9 -34 -6 -40 2 -6 5 -3 5 7 1 17 21 25 21 8 0
-13 72 -121 80 -121 5 0 7 19 6 42 -2 37 -6 44 -34 55 -18 7 -32 19 -32 26 0
7 -6 22 -14 33 -14 18 -15 18 -26 -10z"/>
<path d="M4458 3568 c9 -9 15 -9 24 0 9 9 7 12 -12 12 -19 0 -21 -3 -12 -12z"/>
<path d="M4370 3431 c0 -6 5 -13 10 -16 6 -3 10 1 10 9 0 9 -4 16 -10 16 -5 0
-10 -4 -10 -9z"/>
<path d="M5660 3419 c0 -16 7 -29 17 -33 15 -6 14 -8 -2 -20 -22 -16 -7 -27
23 -19 29 7 27 21 -8 63 l-29 35 -1 -26z"/>
<path d="M4661 3384 c0 -11 3 -14 6 -6 3 7 2 16 -1 19 -3 4 -6 -2 -5 -13z"/>
<path d="M4611 3374 c0 -11 3 -14 6 -6 3 7 2 16 -1 19 -3 4 -6 -2 -5 -13z"/>
<path d="M4370 3330 c-13 -8 -12 -10 3 -10 9 0 17 5 17 10 0 12 -1 12 -20 0z"/>
<path d="M4571 3324 c0 -11 3 -14 6 -6 3 7 2 16 -1 19 -3 4 -6 -2 -5 -13z"/>
<path d="M5636 3312 c-3 -6 -1 -14 5 -17 15 -10 25 3 12 16 -7 7 -13 7 -17 1z"/>
<path d="M5797 3297 c-3 -7 -1 -20 3 -28 7 -11 10 -10 16 4 4 10 2 23 -3 28
-7 7 -12 6 -16 -4z"/>
<path d="M5600 3277 c1 -7 16 -19 35 -28 29 -13 35 -14 35 -3 0 8 -9 14 -20
14 -11 0 -20 4 -20 9 0 5 -7 11 -15 15 -8 3 -15 0 -15 -7z"/>
<path d="M5920 3229 c0 -5 5 -7 10 -4 6 3 10 8 10 11 0 2 -4 4 -10 4 -5 0 -10
-5 -10 -11z"/>
<path d="M5810 3216 c0 -27 47 -68 69 -61 30 9 26 22 -14 41 -19 9 -35 20 -35
25 0 5 -4 9 -10 9 -5 0 -10 -7 -10 -14z"/>
<path d="M810 3161 c0 -6 5 -13 10 -16 6 -3 10 1 10 9 0 9 -4 16 -10 16 -5 0
-10 -4 -10 -9z"/>
<path d="M860 3139 c0 -5 5 -7 10 -4 6 3 10 8 10 11 0 2 -4 4 -10 4 -5 0 -10
-5 -10 -11z"/>
<path d="M5608 2983 c7 -3 16 -2 19 1 4 3 -2 6 -13 5 -11 0 -14 -3 -6 -6z"/>
<path d="M4850 2945 c-8 -9 -8 -15 -2 -15 12 0 26 19 19 26 -2 2 -10 -2 -17
-11z"/>
<path d="M4950 2940 c0 -19 3 -21 12 -12 9 9 9 15 0 24 -9 9 -12 7 -12 -12z"/>
<path d="M5907 2953 c-4 -3 -7 -15 -7 -25 0 -20 -12 -23 -41 -8 -11 6 -24 8
-30 4 -15 -9 34 -54 59 -54 21 0 52 -29 52 -49 0 -6 10 -25 21 -40 16 -22 22
-45 22 -92 1 -35 -3 -71 -8 -79 -5 -8 -8 -24 -6 -35 3 -17 1 -17 -13 -5 -13
10 -20 10 -28 2 -9 -9 -4 -17 18 -34 15 -13 33 -23 38 -23 8 0 24 44 43 121 2
12 -5 41 -16 64 -13 28 -21 63 -21 96 0 32 -5 56 -13 61 -16 10 -37 58 -37 83
0 19 -20 27 -33 13z"/>
<path d="M4720 2909 c0 -5 4 -8 9 -4 6 3 14 -3 20 -12 8 -15 12 -16 23 -5 11
11 10 15 -2 22 -20 13 -50 12 -50 -1z"/>
<path d="M4800 2916 c0 -2 7 -9 15 -16 12 -10 15 -10 15 4 0 9 -7 16 -15 16
-8 0 -15 -2 -15 -4z"/>
<path d="M4865 2900 c-3 -5 1 -10 10 -10 9 0 13 5 10 10 -3 6 -8 10 -10 10 -2
0 -7 -4 -10 -10z"/>
<path d="M4710 2870 c0 -5 5 -10 10 -10 6 0 10 5 10 10 0 6 -4 10 -10 10 -5 0
-10 -4 -10 -10z"/>
<path d="M5830 2865 c0 -8 5 -15 10 -15 6 0 10 7 10 15 0 8 -4 15 -10 15 -5 0
-10 -7 -10 -15z"/>
<path d="M4410 2860 c0 -5 -5 -10 -11 -10 -6 0 -17 -6 -25 -14 -7 -8 -19 -17
-26 -19 -10 -4 -9 -8 2 -16 8 -6 19 -12 24 -14 5 -1 9 -15 9 -30 0 -29 21 -37
31 -12 3 8 12 15 21 15 24 0 18 14 -16 39 l-31 23 28 24 c23 18 25 23 12 24
-10 0 -18 -4 -18 -10z"/>
<path d="M4630 2831 c0 -15 15 -21 38 -14 32 8 27 23 -8 23 -16 0 -30 -4 -30
-9z"/>
<path d="M5765 2771 c-3 -5 -1 -12 5 -16 5 -3 10 1 10 9 0 18 -6 21 -15 7z"/>
<path d="M698 2698 c-3 -35 -2 -67 3 -72 6 -6 9 -4 9 5 0 22 43 59 68 59 16 0
22 6 22 23 0 21 -4 23 -30 19 -20 -3 -37 2 -49 12 -18 16 -19 14 -23 -46z"/>
<path d="M4643 2748 c2 -7 10 -13 17 -13 7 0 15 6 18 13 2 7 -5 12 -18 12 -13
0 -20 -5 -17 -12z"/>
<path d="M5760 2695 c0 -8 5 -15 10 -15 6 0 10 7 10 15 0 8 -4 15 -10 15 -5 0
-10 -7 -10 -15z"/>
<path d="M4910 2682 c0 -13 -6 -22 -15 -22 -17 0 -19 -9 -6 -29 6 -10 13 -5
25 20 11 22 13 36 6 43 -7 7 -10 3 -10 -12z"/>
<path d="M4810 2670 c0 -5 7 -10 16 -10 8 0 12 5 9 10 -3 6 -10 10 -16 10 -5
0 -9 -4 -9 -10z"/>
<path d="M5735 2670 c-3 -5 -1 -10 4 -10 6 0 11 5 11 10 0 6 -2 10 -4 10 -3 0
-8 -4 -11 -10z"/>
<path d="M5780 2646 c0 -2 7 -6 15 -10 8 -3 15 -1 15 4 0 6 -7 10 -15 10 -8 0
-15 -2 -15 -4z"/>
<path d="M4600 2630 c0 -5 5 -10 10 -10 6 0 10 5 10 10 0 6 -4 10 -10 10 -5 0
-10 -4 -10 -10z"/>
<path d="M4670 2613 c8 -3 18 -11 22 -17 9 -14 22 -1 13 13 -3 6 -16 11 -28
10 -15 0 -17 -2 -7 -6z"/>
<path d="M697 2603 c-3 -5 -2 -15 2 -22 7 -10 10 -10 16 -1 4 6 3 16 -3 22 -5
5 -12 6 -15 1z"/>
<path d="M5820 2596 c0 -9 7 -16 16 -16 9 0 14 5 12 12 -6 18 -28 21 -28 4z"/>
<path d="M4447 2576 c-4 -10 -5 -21 -2 -24 9 -9 17 6 13 25 -3 17 -4 17 -11
-1z"/>
<path d="M4492 2568 c-6 -6 -12 -19 -12 -27 0 -13 2 -13 16 1 9 9 15 21 13 27
-3 9 -8 8 -17 -1z"/>
<path d="M5870 2566 c0 -9 7 -16 16 -16 9 0 14 5 12 12 -6 18 -28 21 -28 4z"/>
<path d="M6581 2564 c0 -11 3 -14 6 -6 3 7 2 16 -1 19 -3 4 -6 -2 -5 -13z"/>
<path d="M5830 2546 c0 -9 5 -16 10 -16 6 0 10 4 10 9 0 6 -4 13 -10 16 -5 3
-10 -1 -10 -9z"/>
<path d="M2256 2535 c-7 -20 3 -45 19 -45 23 0 24 14 5 37 -14 18 -19 20 -24
8z"/>
<path d="M4433 2524 c-8 -21 13 -42 28 -27 13 13 5 43 -11 43 -6 0 -13 -7 -17
-16z"/>
<path d="M6116 2525 c-7 -19 3 -47 15 -39 5 3 9 14 9 24 0 24 -16 34 -24 15z"/>
<path d="M706 2493 c-5 -33 -2 -41 23 -63 15 -14 36 -42 46 -64 l17 -39 24 29
c13 16 23 32 24 36 0 16 -20 17 -36 1 -16 -16 -16 -16 -10 4 5 16 2 25 -13 32
-10 6 -27 31 -36 56 -10 25 -21 45 -25 45 -4 0 -10 -17 -14 -37z"/>
<path d="M2310 2486 c0 -20 39 -66 56 -66 8 0 14 7 14 15 0 8 -4 15 -10 15 -5
0 -10 5 -10 11 0 12 -29 38 -42 39 -5 0 -8 -6 -8 -14z"/>
<path d="M6441 2474 c0 -11 3 -14 6 -6 3 7 2 16 -1 19 -3 4 -6 -2 -5 -13z"/>
<path d="M4580 2440 c-6 -10 -8 -36 -4 -57 4 -31 1 -45 -20 -72 -14 -19 -26
-39 -26 -43 0 -4 -9 -17 -20 -28 -11 -11 -20 -28 -20 -38 0 -10 -5 -23 -11
-29 -11 -11 -5 -33 9 -33 4 0 15 21 26 46 17 42 55 72 75 60 4 -3 13 -1 20 4
11 6 12 17 2 54 -12 50 -7 71 31 112 21 23 18 28 -24 38 -21 5 -30 2 -38 -14z"/>
<path d="M6120 2443 c0 -11 7 -26 15 -33 20 -17 20 7 0 34 -15 19 -15 19 -15
-1z"/>
<path d="M4157 2403 c-32 -51 -34 -67 -7 -60 11 3 20 0 21 -6 2 -22 -2 -72 -7
-89 -4 -13 0 -18 15 -18 19 0 26 11 22 34 -4 18 22 67 40 77 28 15 23 29 -11
29 -24 0 -31 5 -36 28 -3 15 -7 31 -8 37 -2 5 -15 -9 -29 -32z"/>
<path d="M6472 2419 c2 -7 10 -15 17 -17 8 -3 12 1 9 9 -2 7 -10 15 -17 17 -8
3 -12 -1 -9 -9z"/>
<path d="M6172 2378 c3 -7 12 -14 21 -16 12 -2 15 1 11 12 -7 19 -38 22 -32 4z"/>
<path d="M881 2364 c0 -11 3 -14 6 -6 3 7 2 16 -1 19 -3 4 -6 -2 -5 -13z"/>
<path d="M2273 2334 c-9 -4 -9 -11 -1 -29 10 -23 12 -23 24 -7 12 16 13 15 14
-5 0 -12 -6 -23 -12 -26 -10 -4 -10 -7 0 -18 10 -11 12 -10 12 4 0 9 5 17 10
17 17 0 11 42 -7 56 -19 14 -22 15 -40 8z"/>
<path d="M5707 2334 c-8 -8 3 -34 14 -34 5 0 9 9 9 20 0 19 -11 26 -23 14z"/>
<path d="M5690 2264 c0 -12 7 -24 15 -28 19 -7 19 5 0 30 -14 19 -14 19 -15
-2z"/>
<path d="M5871 2264 c0 -11 3 -14 6 -6 3 7 2 16 -1 19 -3 4 -6 -2 -5 -13z"/>
<path d="M660 2246 c0 -9 5 -16 10 -16 6 0 10 4 10 9 0 6 -4 13 -10 16 -5 3
-10 -1 -10 -9z"/>
<path d="M4090 2210 c0 -5 5 -10 11 -10 5 0 7 5 4 10 -3 6 -8 10 -11 10 -2 0
-4 -4 -4 -10z"/>
<path d="M5851 2194 c0 -11 3 -14 6 -6 3 7 2 16 -1 19 -3 4 -6 -2 -5 -13z"/>
<path d="M5742 2189 c2 -7 10 -15 17 -17 8 -3 12 1 9 9 -2 7 -10 15 -17 17 -8
3 -12 -1 -9 -9z"/>
<path d="M4725 2155 c-33 -38 -38 -60 -15 -60 8 0 17 11 20 24 8 34 35 49 60
33 30 -19 49 -15 43 8 -3 13 -14 20 -28 20 -13 0 -29 2 -37 5 -7 2 -26 -11
-43 -30z"/>
<path d="M4842 2105 c4 -32 22 -38 26 -9 2 13 -4 24 -13 28 -13 5 -16 0 -13
-19z"/>
<path d="M6076 2114 c-3 -9 -4 -19 -1 -24 3 -4 -2 -24 -10 -43 -12 -29 -22
-37 -50 -43 -19 -3 -35 -9 -35 -13 0 -3 8 -27 17 -54 18 -50 36 -57 41 -15 2
19 -2 28 -15 31 -14 4 -14 5 4 6 15 1 25 9 29 26 4 17 13 25 29 25 12 0 30 9
40 20 17 19 18 19 43 0 13 -11 33 -20 43 -20 11 0 25 -14 35 -37 10 -20 20
-31 22 -25 4 14 42 16 42 3 0 -5 -9 -15 -20 -22 -19 -14 -19 -14 0 -38 20 -23
20 -23 20 -2 0 12 7 33 16 46 17 25 12 45 -11 45 -44 0 -95 55 -95 103 0 44
-15 51 -49 26 l-31 -23 -23 22 c-28 26 -33 27 -41 6z"/>
<path d="M1691 2104 c0 -11 3 -14 6 -6 3 7 2 16 -1 19 -3 4 -6 -2 -5 -13z"/>
<path d="M2210 2100 c0 -5 5 -10 11 -10 5 0 7 5 4 10 -3 6 -8 10 -11 10 -2 0
-4 -4 -4 -10z"/>
<path d="M2340 2055 c0 -7 -7 -18 -15 -22 -9 -5 -11 -13 -6 -22 6 -10 13 -5
25 19 19 39 19 40 6 40 -5 0 -10 -7 -10 -15z"/>
<path d="M2606 2048 c4 -13 17 -47 30 -77 26 -59 30 -81 13 -81 -6 0 -9 -6 -6
-12 2 -7 10 -13 17 -13 8 0 29 -29 48 -64 31 -58 33 -66 20 -89 -7 -14 -21
-27 -30 -30 -10 -2 -15 -8 -12 -13 3 -5 11 -6 17 -2 7 4 24 8 39 8 24 0 30 -9
79 -125 29 -69 58 -143 65 -165 7 -22 33 -98 58 -170 25 -71 46 -140 46 -151
0 -12 7 -27 15 -34 8 -7 15 -22 15 -34 0 -12 9 -40 21 -61 11 -22 31 -67 45
-99 13 -33 28 -62 33 -65 19 -13 101 -308 101 -365 0 -20 7 -53 15 -73 8 -20
16 -54 17 -76 1 -33 -4 -44 -25 -61 -35 -28 -34 -40 4 -68 31 -23 69 -85 69
-113 0 -10 10 -15 30 -15 24 0 28 3 23 17 -6 16 -4 16 15 -1 29 -25 28 -13 -3
32 -14 20 -25 42 -25 49 0 7 -4 13 -10 13 -14 0 -12 63 3 84 7 9 19 16 27 14
15 -3 15 2 3 45 -8 27 23 21 51 -10 14 -15 28 -24 31 -21 12 12 52 -38 59 -74
7 -37 19 -48 31 -28 3 6 13 10 22 10 13 0 13 -3 3 -15 -7 -8 -19 -15 -27 -15
-10 0 -13 -6 -8 -17 4 -10 9 -33 12 -51 8 -45 28 -40 39 10 8 37 13 43 34 43
14 0 28 7 32 16 21 53 58 264 61 359 2 44 2 44 -33 47 -19 2 -37 8 -38 13 -10
29 -61 74 -113 101 -32 16 -63 29 -69 29 -15 0 -12 -16 5 -34 9 -8 11 -17 6
-21 -24 -14 27 -92 83 -129 l29 -19 -24 -13 c-13 -7 -19 -13 -13 -14 18 0 54
-77 66 -137 17 -97 16 -108 -12 -110 -41 -4 -81 36 -86 88 -9 74 -14 89 -31
89 -9 0 -24 -6 -32 -14 -9 -7 -26 -17 -38 -20 -46 -14 -86 71 -97 209 -7 93
-23 176 -36 189 -14 14 -13 94 3 99 6 2 0 3 -14 1 -15 -2 -35 4 -45 12 -18 14
-17 15 9 11 23 -4 27 -1 27 19 0 13 -9 41 -20 61 -11 21 -20 50 -20 64 0 14 9
38 20 52 27 34 25 44 -12 61 -53 24 -66 39 -73 87 -10 68 -17 76 -58 61 -18
-7 -39 -12 -45 -12 -13 0 -42 51 -42 76 0 26 -106 285 -151 366 -5 10 -9 41
-9 68 0 48 -2 52 -30 61 -17 6 -30 18 -30 28 0 9 -9 22 -20 29 -21 13 -29 72
-9 72 5 0 7 5 3 11 -4 7 -9 8 -17 0 -7 -7 -14 -2 -24 16 -7 14 -13 31 -13 38
0 16 -69 75 -88 75 -9 0 -11 -7 -6 -22z m509 -928 c3 -5 -3 -10 -14 -10 -12 0
-21 5 -21 10 0 6 6 10 14 10 8 0 18 -4 21 -10z m25 -39 c0 -6 -4 -13 -10 -16
-5 -3 -10 1 -10 9 0 9 5 16 10 16 6 0 10 -4 10 -9z"/>
<path d="M4684 2045 c-4 -8 -3 -21 0 -27 29 -57 36 -62 74 -65 28 -2 42 2 46
12 4 11 -2 15 -20 15 -37 0 -74 28 -74 56 0 27 -17 32 -26 9z"/>
<path d="M4819 2024 c-11 -31 -8 -37 15 -28 17 7 23 54 6 54 -6 0 -15 -12 -21
-26z"/>
<path d="M6670 2030 c0 -5 5 -10 10 -10 6 0 10 5 10 10 0 6 -4 10 -10 10 -5 0
-10 -4 -10 -10z"/>
<path d="M1710 1979 c0 -5 5 -7 10 -4 6 3 10 8 10 11 0 2 -4 4 -10 4 -5 0 -10
-5 -10 -11z"/>
<path d="M1690 1911 c0 -25 6 -27 13 -6 4 8 2 17 -3 20 -6 4 -10 -3 -10 -14z"/>
<path d="M4300 1920 c0 -5 5 -10 10 -10 6 0 10 -13 10 -30 0 -16 5 -30 10 -30
14 0 12 42 -4 63 -15 19 -26 22 -26 7z"/>
<path d="M4095 1900 c-3 -5 -15 -10 -25 -10 -10 0 -22 -9 -25 -21 -10 -31 2
-35 30 -9 22 21 25 21 31 6 4 -9 4 -35 1 -56 -9 -69 23 -43 37 29 8 45 -30 92
-49 61z"/>
<path d="M1640 1860 c0 -5 7 -7 15 -4 8 4 15 8 15 10 0 2 -7 4 -15 4 -8 0 -15
-4 -15 -10z"/>
<path d="M2600 1855 c0 -8 2 -15 4 -15 2 0 6 7 10 15 3 8 1 15 -4 15 -6 0 -10
-7 -10 -15z"/>
<path d="M6010 1857 c0 -8 -9 -22 -20 -32 -28 -25 -26 -31 18 -52 40 -20 63
-56 64 -104 1 -37 14 -46 36 -26 35 31 67 31 104 -2 39 -34 48 -32 48 11 0 57
34 98 81 98 21 0 26 29 8 47 -6 6 -16 21 -23 34 -16 33 -36 36 -36 6 0 -17 7
-28 20 -32 11 -3 20 -13 20 -22 0 -10 -5 -13 -17 -8 -32 12 -37 10 -41 -12 -2
-15 -13 -24 -35 -29 -17 -3 -37 -13 -45 -20 -19 -19 -35 -18 -62 6 -12 11 -31
22 -41 25 -10 4 -22 17 -25 31 -7 26 -23 31 -42 12 -9 -9 -12 -7 -12 10 0 17
6 22 25 22 25 0 25 1 9 25 -18 27 -34 33 -34 12z m110 -156 c0 -6 -4 -13 -10
-16 -5 -3 -10 1 -10 9 0 9 5 16 10 16 6 0 10 -4 10 -9z m120 -22 c0 -5 -4 -9
-10 -9 -5 0 -10 7 -10 16 0 8 5 12 10 9 6 -3 10 -10 10 -16z"/>
<path d="M1690 1850 c0 -5 4 -10 9 -10 6 0 13 5 16 10 3 6 -1 10 -9 10 -9 0
-16 -4 -16 -10z"/>
<path d="M1580 1830 c0 -5 4 -10 9 -10 6 0 13 5 16 10 3 6 -1 10 -9 10 -9 0
-16 -4 -16 -10z"/>
<path d="M1520 1820 c0 -5 5 -10 11 -10 5 0 7 5 4 10 -3 6 -8 10 -11 10 -2 0
-4 -4 -4 -10z"/>
<path d="M2850 1809 c0 -5 5 -7 10 -4 6 3 10 8 10 11 0 2 -4 4 -10 4 -5 0 -10
-5 -10 -11z"/>
<path d="M4297 1803 c-14 -13 -7 -42 8 -37 8 4 15 15 15 25 0 19 -11 25 -23
12z"/>
<path d="M4196 1744 c-9 -24 0 -32 34 -29 33 2 55 15 26 15 -9 0 -19 7 -22 15
-8 20 -30 19 -38 -1z"/>
<path d="M4509 1713 c-5 -16 -15 -41 -21 -56 -13 -32 -9 -38 18 -31 16 4 19
12 16 36 -3 21 -1 29 7 24 6 -4 11 -14 11 -23 0 -11 6 -14 24 -9 18 4 32 0 49
-16 13 -13 31 -27 40 -33 9 -6 18 -29 21 -55 3 -25 8 -55 12 -68 4 -15 -1 -32
-18 -55 -14 -17 -28 -45 -32 -60 -3 -15 -14 -30 -24 -33 -9 -3 -37 -15 -61
-26 l-44 -21 -22 26 c-11 15 -28 27 -37 27 -9 0 -21 14 -27 31 -7 21 -15 29
-26 26 -8 -4 -17 -2 -20 3 -7 11 30 32 39 22 7 -7 -3 49 -10 57 -7 8 -32 -21
-38 -44 -4 -14 -11 -25 -16 -25 -24 0 -7 -36 23 -50 30 -14 32 -18 35 -77 3
-66 6 -71 31 -50 9 7 28 18 43 25 25 10 30 8 63 -25 l35 -36 10 27 c5 15 10
33 10 41 0 7 14 27 31 44 23 23 40 31 66 31 33 0 35 1 29 28 -19 80 -18 107 6
142 13 19 27 41 32 48 5 8 -4 17 -29 27 -42 18 -59 53 -52 108 4 27 1 37 -8
37 -8 0 -16 -4 -20 -9 -3 -6 -19 -16 -35 -25 -29 -14 -31 -13 -59 15 -16 16
-32 29 -35 29 -4 0 -11 -12 -17 -27z m206 -173 c-3 -5 -10 -10 -16 -10 -5 0
-9 5 -9 10 0 6 7 10 16 10 8 0 12 -4 9 -10z m-25 -161 c0 -4 -7 -6 -15 -3 -8
4 -15 10 -15 15 0 4 7 6 15 3 8 -4 15 -10 15 -15z m-234 -96 c-10 -10 -19 5
-10 18 6 11 8 11 12 0 2 -7 1 -15 -2 -18z m124 2 c0 -8 -4 -15 -10 -15 -5 0
-10 7 -10 15 0 8 5 15 10 15 6 0 10 -7 10 -15z"/>
<path d="M2620 1710 c0 -5 5 -10 11 -10 5 0 7 5 4 10 -3 6 -8 10 -11 10 -2 0
-4 -4 -4 -10z"/>
<path d="M4412 1613 l-34 -4 7 -52 c4 -29 9 -54 12 -57 3 -3 14 6 24 19 18 22
18 26 5 33 -25 14 -19 31 8 24 17 -4 26 -1 30 10 9 24 7 34 -6 32 -7 0 -28 -3
-46 -5z"/>
<path d="M6700 1611 c0 -5 -9 -13 -20 -16 -23 -7 -26 -37 -5 -55 20 -17 33 -5
28 25 -4 17 0 27 11 31 20 8 21 24 1 24 -8 0 -15 -4 -15 -9z"/>
<path d="M2348 1533 c-18 -38 -16 -53 8 -53 8 0 14 10 14 26 0 16 5 24 13 22
17 -6 21 -39 5 -49 -9 -6 -5 -9 14 -9 35 0 45 18 20 36 -11 8 -22 24 -24 36
-5 36 -31 31 -50 -9z"/>
<path d="M6676 1502 c-9 -14 5 -50 21 -56 12 -5 14 -1 9 16 -3 13 -6 29 -6 36
0 14 -16 16 -24 4z"/>
<path d="M2250 1480 l-35 -7 33 -2 c17 0 32 -5 32 -11 0 -5 7 -7 15 -4 18 7
20 35 3 33 -7 -1 -29 -5 -48 -9z"/>
<path d="M2520 1465 c0 -8 9 -15 20 -15 11 0 20 7 20 15 0 8 -9 15 -20 15 -11
0 -20 -7 -20 -15z"/>
<path d="M6940 1466 c0 -15 18 -31 26 -23 7 7 -7 37 -17 37 -5 0 -9 -6 -9 -14z"/>
<path d="M2470 1456 c0 -8 4 -17 9 -20 11 -7 33 18 24 27 -12 12 -33 7 -33 -7z"/>
<path d="M5993 1424 c-7 -19 0 -26 21 -18 20 8 21 20 1 28 -9 3 -18 -1 -22
-10z"/>
<path d="M2236 1421 c-4 -7 -5 -15 -2 -18 9 -9 19 4 14 18 -4 11 -6 11 -12 0z"/>
<path d="M2525 1417 c-4 -10 -3 -23 4 -30 16 -16 26 0 14 25 -10 21 -11 22
-18 5z"/>
<path d="M6737 1423 c-9 -14 17 -47 32 -42 9 3 7 11 -7 28 -11 14 -21 20 -25
14z"/>
<path d="M6052 1413 c-10 -4 -9 -9 4 -24 20 -22 44 -25 44 -6 0 13 -20 38 -29
36 -4 0 -12 -3 -19 -6z"/>
<path d="M5944 1385 c-8 -21 3 -48 19 -43 19 7 22 58 2 58 -8 0 -18 -7 -21
-15z"/>
<path d="M6971 1374 c0 -11 3 -14 6 -6 3 7 2 16 -1 19 -3 4 -6 -2 -5 -13z"/>
<path d="M6110 1356 c0 -14 24 -56 32 -56 17 0 3 55 -14 58 -10 2 -18 1 -18
-2z"/>
<path d="M2556 1342 c-7 -12 3 -42 14 -42 18 0 22 22 7 37 -9 9 -17 11 -21 5z"/>
<path d="M2216 1325 c-3 -9 0 -15 9 -15 16 0 20 16 6 24 -5 3 -11 -1 -15 -9z"/>
<path d="M5936 1305 c-7 -20 2 -42 21 -49 12 -5 14 -1 9 16 -3 13 -6 29 -6 36
0 17 -17 15 -24 -3z"/>
<path d="M1530 1302 c0 -5 7 -13 16 -16 10 -4 14 -1 12 6 -5 15 -28 23 -28 10z"/>
<path d="M2600 1285 c0 -8 -9 -15 -20 -15 -15 0 -20 -7 -20 -25 0 -32 8 -31
48 5 37 34 41 50 12 50 -11 0 -20 -7 -20 -15z"/>
<path d="M6112 1270 c-6 -11 -12 -26 -12 -34 0 -26 -40 -30 -71 -7 -33 25 -49
27 -49 7 0 -20 29 -48 42 -40 5 4 20 1 33 -6 21 -11 27 -9 58 21 31 30 34 37
23 56 -11 22 -12 22 -24 3z"/>
<path d="M1562 1256 c1 -10 8 -17 13 -17 15 1 12 24 -3 29 -9 3 -13 -2 -10
-12z"/>
<path d="M1680 1255 c-7 -8 -23 -15 -36 -15 -14 0 -24 -6 -24 -14 0 -23 19
-29 36 -12 8 9 20 16 25 16 13 0 11 -24 -2 -37 -13 -13 -4 -47 10 -38 5 3 10
13 10 23 0 9 3 31 7 48 7 36 -7 51 -26 29z"/>
<path d="M2225 1260 c-4 -6 -3 -16 3 -22 13 -13 23 4 13 21 -7 10 -10 10 -16
1z"/>
<path d="M6700 1248 c1 -7 5 -33 11 -58 5 -25 11 -54 13 -65 16 -97 19 -105
33 -105 13 0 15 8 9 46 -3 26 -6 61 -6 79 0 18 -9 42 -20 55 -11 13 -20 31
-20 42 0 10 -4 18 -10 18 -5 0 -10 -6 -10 -12z"/>
<path d="M1490 1234 c0 -8 5 -12 10 -9 6 3 10 10 10 16 0 5 -4 9 -10 9 -5 0
-10 -7 -10 -16z"/>
<path d="M4880 1206 c-7 -13 -21 -27 -32 -29 -14 -4 -19 -13 -16 -32 4 -37 21
-36 37 3 19 42 56 53 77 23 27 -38 66 -20 42 19 -8 13 -21 20 -34 17 -11 -2
-26 2 -32 10 -18 19 -27 16 -42 -11z"/>
<path d="M2251 1188 c1 -18 17 -55 18 -43 1 6 4 20 7 33 5 16 2 22 -10 22 -9
0 -16 -6 -15 -12z"/>
<path d="M2516 1164 c-31 -31 -40 -36 -69 -31 -38 6 -87 -2 -87 -14 0 -4 9
-16 19 -26 11 -10 24 -31 30 -46 13 -33 38 -35 50 -4 16 43 41 53 111 45 27
-3 27 -3 12 71 -4 19 -12 36 -19 38 -6 2 -27 -13 -47 -33z m34 -19 c7 -9 10
-18 7 -22 -8 -7 -37 15 -37 28 0 14 16 11 30 -6z m-123 -62 c-3 -10 -5 -2 -5
17 0 19 2 27 5 18 2 -10 2 -26 0 -35z"/>
<path d="M2302 1140 c-17 -28 -15 -31 16 -24 36 9 37 11 22 29 -16 20 -23 19
-38 -5z"/>
<path d="M6417 1150 c-35 -119 -31 -114 -99 -112 -55 1 -62 -14 -28 -58 11
-14 20 -33 20 -42 0 -9 4 -19 10 -23 9 -6 -24 -75 -42 -86 -19 -12 -3 -43 26
-50 54 -15 96 -76 96 -143 0 -17 5 -38 10 -46 8 -13 13 -13 39 3 16 9 40 17
53 17 26 0 65 -37 88 -83 16 -32 34 -31 38 4 8 68 44 99 94 83 16 -5 19 -2 16
18 -2 15 -9 22 -19 20 -9 -1 -22 5 -29 13 -12 14 -16 13 -35 -12 -20 -24 -26
-26 -47 -16 -15 7 -30 8 -39 2 -24 -15 -54 -10 -67 11 -16 26 -36 25 -50 -2
-10 -23 -11 -23 -11 5 -1 18 4 27 14 27 8 0 15 5 15 10 0 6 -6 10 -13 10 -26
0 -65 49 -72 92 -4 24 -11 48 -16 53 -24 31 -28 64 -10 87 10 13 21 40 25 61
6 31 11 37 32 37 23 0 25 3 19 29 -9 41 13 50 26 12 12 -35 17 -37 43 -18 18
13 18 14 1 28 -9 8 -32 30 -50 49 -25 25 -35 30 -38 20z m-61 -164 c21 -16 16
-30 -9 -20 -16 6 -32 34 -19 34 5 0 17 -6 28 -14z m1 -177 c-14 -8 -22 -8 -30
0 -8 8 -3 11 19 11 25 -1 27 -2 11 -11z m251 -220 c2 -32 1 -33 -13 -15 -18
24 -20 59 -2 54 6 -3 13 -20 15 -39z"/>
<path d="M4996 1123 c9 -45 13 -53 23 -53 17 0 20 44 4 62 -23 26 -34 22 -27
-9z"/>
<path d="M1690 1106 c0 -19 6 -25 28 -28 34 -4 33 -19 -2 -36 -15 -7 -26 -21
-26 -33 0 -26 17 -24 31 4 7 12 20 28 31 35 23 17 23 42 0 42 -9 0 -23 9 -30
20 -17 27 -32 25 -32 -4z"/>
<path d="M2244 1119 c-10 -17 13 -36 27 -22 12 12 4 33 -11 33 -5 0 -12 -5
-16 -11z"/>
<path d="M4814 1074 c-5 -21 -2 -31 14 -45 12 -9 22 -23 22 -31 0 -20 21 -38
45 -38 12 0 27 -6 34 -12 10 -11 16 -9 30 7 9 11 26 25 36 31 22 12 30 37 21
61 -6 14 -9 14 -26 -2 -11 -10 -20 -24 -20 -32 0 -7 -12 -19 -26 -25 -23 -11
-29 -10 -43 8 -9 11 -24 23 -34 27 -9 3 -20 20 -23 37 -9 41 -22 47 -30 14z"/>
<path d="M6600 1080 c-8 -5 -25 -10 -38 -10 -27 0 -27 -26 0 -44 14 -8 21 -6
32 9 14 19 15 19 21 3 4 -10 5 -25 1 -33 -3 -8 3 -22 12 -31 16 -17 17 -17 20
0 2 10 -1 23 -7 29 -6 6 -11 28 -11 49 0 40 -5 44 -30 28z"/>
<path d="M4306 983 c-3 -3 -6 -15 -6 -25 0 -15 5 -18 20 -13 28 9 67 -21 80
-61 13 -37 30 -37 30 1 0 14 -9 29 -20 35 -12 6 -20 21 -20 36 0 20 -4 24 -28
22 -15 -1 -32 1 -38 5 -6 3 -14 4 -18 0z"/>
<path d="M1660 955 c-10 -13 -10 -18 3 -33 11 -11 13 -22 7 -32 -7 -12 -11
-12 -27 2 -18 16 -19 16 -32 -3 -7 -12 -11 -22 -9 -24 2 -1 27 -5 57 -9 l54
-7 -8 28 c-3 15 -7 41 -8 57 -2 34 -18 43 -37 21z"/>
<path d="M7127 942 c-3 -9 -8 -38 -12 -64 -3 -26 -10 -50 -16 -53 -11 -8 -12
-45 -1 -45 5 0 14 11 20 25 7 15 20 25 33 25 44 0 66 69 32 97 -40 30 -51 34
-56 15z m35 -74 c-9 -9 -12 -7 -12 12 0 19 3 21 12 12 9 -9 9 -15 0 -24z"/>
<path d="M4262 918 c-13 -13 -16 -58 -4 -58 15 0 32 24 32 47 0 25 -10 29 -28
11z"/>
<path d="M6670 898 c0 -31 3 -35 20 -31 25 7 25 15 0 44 l-19 24 -1 -37z"/>
<path d="M2757 876 c-3 -8 -16 -16 -29 -18 -25 -3 -36 -34 -19 -51 7 -7 16 -1
28 21 10 18 26 32 36 32 9 0 17 7 17 15 0 19 -26 20 -33 1z"/>
<path d="M2815 859 c-7 -11 22 -49 37 -49 15 0 8 48 -8 54 -21 8 -22 8 -29 -5z"/>
<path d="M1540 841 c0 -26 -10 -51 -21 -51 -5 0 -9 9 -9 20 0 21 -25 38 -38
26 -3 -4 -1 -15 6 -24 7 -9 16 -27 22 -39 12 -30 28 -29 36 1 3 14 14 32 25
42 25 22 24 44 -1 44 -13 0 -20 -7 -20 -19z"/>
<path d="M1410 840 c0 -5 7 -10 15 -10 8 0 15 5 15 10 0 6 -7 10 -15 10 -8 0
-15 -4 -15 -10z"/>
<path d="M6707 835 c-13 -9 -17 -20 -12 -34 9 -31 22 -26 28 12 6 39 6 38 -16
22z"/>
<path d="M2170 821 c0 -5 6 -14 14 -20 16 -13 32 2 21 19 -8 12 -35 13 -35 1z"/>
<path d="M4237 823 c-14 -13 -6 -49 13 -61 11 -7 20 -21 20 -32 0 -16 7 -20
35 -20 19 0 38 -1 41 -2 4 -2 11 7 15 20 8 20 6 22 -11 17 -35 -11 -79 16 -86
52 -6 32 -14 40 -27 26z"/>
<path d="M4380 811 c-16 -30 -12 -53 8 -49 11 2 18 14 20 36 4 35 -12 43 -28
13z"/>
<path d="M3689 797 c-7 -12 -19 -27 -27 -33 -8 -6 -16 -26 -17 -45 -1 -19 -5
-41 -9 -50 -4 -9 1 -24 15 -40 11 -13 27 -36 35 -51 18 -34 39 -36 48 -5 10
37 7 45 -16 49 -14 2 -30 16 -40 37 -16 32 -16 35 6 70 17 26 31 36 50 36 55
1 55 37 -1 48 -27 5 -35 3 -44 -16z"/>
<path d="M3336 770 c9 -16 20 -30 25 -30 6 0 2 14 -8 30 -9 17 -20 30 -24 30
-4 0 -1 -13 7 -30z"/>
<path d="M295 780 c-8 -13 4 -32 16 -25 12 8 12 35 0 35 -6 0 -13 -4 -16 -10z"/>
<path d="M2681 776 c-12 -14 -12 -21 -1 -44 13 -26 14 -26 18 -4 2 12 2 32 0
44 -3 20 -4 20 -17 4z"/>
<path d="M2870 779 c0 -28 13 -59 21 -53 14 8 10 40 -6 54 -12 10 -15 10 -15
-1z"/>
<path d="M2232 740 c0 -14 2 -19 5 -12 2 6 2 18 0 25 -3 6 -5 1 -5 -13z"/>
<path d="M4632 728 c-7 -7 -12 -23 -12 -36 0 -14 -9 -40 -21 -58 -16 -26 -30
-35 -60 -40 -51 -8 -63 -23 -48 -60 22 -58 19 -96 -13 -162 -26 -53 -29 -65
-17 -73 8 -5 19 -9 25 -9 31 0 61 -75 55 -136 -3 -42 13 -50 45 -25 47 37 83
25 125 -38 18 -29 39 -21 39 14 0 14 10 44 22 69 22 47 48 59 100 49 33 -6 48
19 29 49 -6 10 -16 39 -20 64 -10 50 7 97 41 122 29 21 22 50 -14 66 -65 29
-72 40 -71 112 1 72 -13 90 -46 60 -9 -9 -31 -18 -47 -22 -24 -4 -35 0 -57 22
-15 14 -27 31 -27 35 0 13 -14 11 -28 -3z m28 -84 c0 -8 -4 -12 -10 -9 -5 3
-10 13 -10 21 0 8 5 12 10 9 6 -3 10 -13 10 -21z m140 -8 c0 -3 -4 -8 -10 -11
-5 -3 -10 -1 -10 4 0 6 5 11 10 11 6 0 10 -2 10 -4z m-49 -33 c15 -16 37 -35
49 -43 18 -13 23 -25 23 -60 0 -24 6 -59 14 -78 13 -32 13 -36 -11 -67 -15
-19 -26 -41 -26 -49 0 -31 -24 -67 -49 -72 -14 -3 -38 -12 -53 -20 -36 -19
-56 -18 -70 7 -7 11 -28 27 -45 34 -31 13 -33 17 -33 61 0 26 -5 63 -11 84 -9
30 -8 43 6 69 16 31 15 33 -2 46 -10 8 -14 17 -9 22 5 4 11 2 13 -4 9 -24 31
-13 38 17 7 32 30 50 63 50 11 0 25 7 32 15 19 22 43 18 71 -12z m129 -123 c0
-5 -7 -10 -16 -10 -8 0 -12 5 -9 10 3 6 10 10 16 10 5 0 9 -4 9 -10z m-350
-135 c0 -8 -7 -15 -15 -15 -26 0 -18 20 13 29 1 1 2 -6 2 -14z m320 -61 c0 -8
-6 -11 -15 -8 -8 4 -15 12 -15 20 0 8 6 11 15 8 8 -4 15 -12 15 -20z m-264
-102 c-14 -14 -16 -14 -16 -1 0 20 23 44 29 28 2 -6 -4 -18 -13 -27z m144 -13
c0 -10 -4 -19 -10 -19 -5 0 -10 12 -10 26 0 14 4 23 10 19 6 -3 10 -15 10 -26z"/>
<path d="M4675 427 c-4 -10 -5 -21 -1 -24 10 -10 18 4 13 24 -4 17 -4 17 -12
0z"/>
<path d="M6686 724 c-4 -10 1 -22 11 -30 15 -11 19 -10 21 2 8 36 -20 60 -32
28z"/>
<path d="M3380 712 c0 -32 71 -61 100 -42 12 8 11 10 -5 10 -12 0 -25 4 -30 8
-17 14 -65 32 -65 24z"/>
<path d="M820 690 c0 -13 5 -17 14 -14 24 9 28 34 6 34 -13 0 -20 -7 -20 -20z"/>
<path d="M3735 698 c-9 -22 4 -43 17 -30 7 7 7 16 0 29 -10 17 -11 17 -17 1z"/>
<path d="M2714 668 c3 -13 6 -26 6 -30 0 -5 11 -8 23 -8 13 0 32 -9 43 -21 18
-20 19 -20 35 -1 8 11 24 22 35 24 13 2 19 12 19 28 0 32 -22 32 -38 0 -8 -16
-23 -26 -39 -28 -21 -3 -30 3 -43 27 -19 37 -51 43 -41 9z"/>
<path d="M236 651 c-4 -7 -5 -15 -2 -18 9 -9 19 4 14 18 -4 11 -6 11 -12 0z"/>
<path d="M2197 653 c-4 -3 -7 -15 -7 -26 0 -16 3 -17 15 -7 8 7 15 19 15 26 0
15 -12 19 -23 7z"/>
<path d="M2080 596 c0 -18 17 -29 30 -21 8 5 7 11 -1 21 -15 18 -29 18 -29 0z"/>
<path d="M2146 581 c-4 -7 -5 -15 -2 -18 9 -9 19 4 14 18 -4 11 -6 11 -12 0z"/>
<path d="M6937 574 c-10 -11 -8 -52 2 -59 5 -3 7 -22 5 -43 -5 -36 -5 -37 9
-12 23 37 8 138 -16 114z"/>
<path d="M7178 470 c5 -65 22 -65 22 0 0 33 -4 50 -12 50 -9 0 -12 -15 -10
-50z"/>
<path d="M2460 473 c-20 -63 -47 -85 -100 -82 -44 3 -45 3 -44 -26 1 -17 4
-43 7 -60 3 -16 6 -36 6 -42 1 -22 21 -14 33 13 10 22 9 27 -5 35 -21 12 -22
39 -2 39 16 0 38 -34 28 -44 -3 -3 -1 -6 5 -6 7 0 12 7 12 15 0 8 5 26 12 40
12 27 54 35 75 14 8 -8 17 -8 32 0 18 10 25 7 51 -19 16 -17 30 -35 30 -40 0
-5 11 -21 24 -35 25 -27 41 -82 31 -108 -4 -8 -2 -18 4 -22 18 -11 12 -71 -9
-98 -30 -38 -25 -47 26 -47 43 0 45 1 44 28 -3 44 -1 50 31 87 l31 35 -51 51
c-52 51 -54 56 -55 149 l-1 45 -51 5 c-42 4 -55 11 -81 40 -16 19 -32 43 -36
53 -11 29 -35 19 -47 -20z m44 -75 c-5 -8 -10 -5 -14 8 -10 25 0 41 12 20 5
-9 6 -21 2 -28z"/>
<path d="M96 471 c-10 -11 -16 -26 -13 -33 3 -9 7 -7 13 7 4 11 12 23 18 27 6
4 8 9 5 13 -3 3 -14 -4 -23 -14z"/>
<path d="M3775 403 c5 -34 3 -44 -4 -33 -14 20 -28 3 -14 -18 7 -11 21 -16 42
-14 26 3 34 -2 49 -29 9 -17 32 -45 50 -62 25 -24 32 -38 32 -67 0 -34 2 -37
25 -32 19 3 25 0 25 -13 0 -13 -6 -16 -26 -12 -25 5 -26 4 -20 -36 6 -33 3
-44 -15 -63 l-22 -24 31 0 c25 0 32 4 32 19 0 27 22 65 53 92 28 24 30 59 3
59 -6 0 -27 14 -45 31 -34 30 -34 31 -27 99 7 76 -1 90 -37 68 -35 -23 -69 -8
-92 39 -28 59 -48 57 -40 -4z m122 -113 c-8 -12 -17 -17 -21 -12 -3 5 2 19 11
32 10 14 18 19 21 12 2 -6 -3 -21 -11 -32z"/>
<path d="M6282 381 c-30 -25 -33 -32 -27 -64 4 -21 3 -37 -4 -41 -19 -12 -12
-52 13 -75 13 -13 27 -35 31 -49 9 -35 23 -52 45 -52 10 0 23 -7 30 -15 16
-19 30 -19 30 0 0 9 11 20 25 25 20 8 25 16 25 46 0 44 -19 42 -39 -4 -10 -23
-21 -32 -38 -32 -13 0 -23 5 -23 10 0 6 -11 22 -25 36 -13 13 -29 32 -34 42
-14 27 -17 78 -4 93 6 8 12 23 15 34 5 32 53 32 74 1 20 -32 44 -34 44 -3 0
28 -17 47 -43 47 -10 0 -25 7 -33 15 -20 20 -23 19 -62 -14z"/>
<path d="M935 360 c-3 -5 -2 -10 4 -10 5 0 13 5 16 10 3 6 2 10 -4 10 -5 0
-13 -4 -16 -10z"/>
<path d="M990 351 c0 -17 18 -21 24 -6 3 9 0 15 -9 15 -8 0 -15 -4 -15 -9z"/>
<path d="M865 299 c-4 -6 -5 -12 -2 -15 2 -3 7 2 10 11 7 17 1 20 -8 4z"/>
<path d="M6434 268 c3 -13 6 -34 6 -47 0 -20 2 -21 15 -11 18 15 20 51 3 68
-19 19 -31 14 -24 -10z"/>
<path d="M222 228 c-7 -7 -12 -23 -12 -37 l0 -26 -13 25 c-18 36 -43 37 -61 1
-22 -42 -20 -72 4 -78 16 -4 20 -14 20 -47 1 -36 2 -39 14 -23 17 22 28 22 44
-3 21 -34 34 -24 27 20 -5 31 -3 45 13 65 16 20 18 31 11 53 -23 70 -25 72
-47 50z"/>
<path d="M2305 201 c-3 -10 -14 -26 -25 -36 -23 -21 -27 -65 -6 -65 26 0 76
-50 76 -76 0 -22 4 -24 45 -24 45 0 61 16 28 26 -57 18 -63 26 -63 79 0 61
-17 115 -35 115 -8 0 -16 -8 -20 -19z m42 -58 c4 -12 -34 -29 -44 -19 -3 3 -3
12 1 21 7 18 37 17 43 -2z"/>
<path d="M3722 204 c-14 -9 -22 -26 -22 -44 0 -28 0 -28 30 -13 28 14 52 13
94 -3 27 -10 18 15 -16 47 -37 33 -54 36 -86 13z"/>
<path d="M1480 171 c0 -10 7 -21 15 -25 9 -3 15 -18 15 -36 0 -28 3 -30 32
-28 18 1 33 -3 36 -10 6 -19 26 -14 47 10 24 29 33 7 10 -28 -13 -20 -14 -28
-4 -40 23 -28 39 -16 39 30 0 25 5 48 10 51 6 3 10 17 10 31 0 28 -23 32 -46
9 -9 -8 -24 -15 -34 -15 -10 0 -22 -5 -25 -10 -9 -15 -75 39 -75 61 0 11 -7
19 -15 19 -8 0 -15 -9 -15 -19z"/>
<path d="M2510 175 c0 -8 7 -15 15 -15 8 0 15 7 15 15 0 8 -7 15 -15 15 -8 0
-15 -7 -15 -15z"/>
<path d="M75 147 c-10 -7 -25 -18 -33 -24 -7 -7 -20 -13 -28 -13 -10 0 -14
-14 -14 -55 l0 -55 53 0 c50 0 53 2 51 22 -1 13 -3 26 -3 31 -1 4 -14 1 -31
-8 -28 -15 -30 -14 -30 4 0 10 16 31 35 45 19 15 35 36 35 47 0 22 -7 23 -35
6z"/>
<path d="M3372 103 c-10 -32 -9 -40 4 -53 14 -13 15 -13 13 0 -2 8 3 26 10 39
11 19 11 26 -1 38 -12 12 -16 9 -26 -24z"/>
<path d="M1448 105 c-23 -31 -23 -45 2 -45 16 0 20 7 20 35 0 19 -1 35 -2 35
-2 0 -11 -11 -20 -25z"/>
<path d="M5075 87 c-8 -13 -26 -29 -39 -35 -18 -8 -23 -16 -19 -31 7 -29 53
-29 53 -1 0 13 10 24 27 31 24 9 31 7 50 -16 12 -14 37 -28 55 -31 19 -3 28
-2 22 3 -7 4 -19 25 -28 46 -11 28 -21 37 -33 35 -10 -3 -30 2 -45 9 -25 12
-29 11 -43 -10z"/>
<path d="M3750 51 c0 -11 26 -22 34 -14 3 3 3 10 0 14 -7 12 -34 11 -34 0z"/>
<path d="M1377 39 c-10 -6 -31 -7 -47 -4 -19 4 -30 3 -30 -4 0 -6 0 -14 0 -18
0 -14 79 -11 91 3 16 20 8 35 -14 23z"/>
<path d="M6956 15 c-19 -14 -18 -15 17 -15 26 0 37 4 37 15 0 19 -29 19 -54 0z"/>
</g>
</svg>
