<?xml version="1.0" standalone="no"?>
<!DOCTYPE svg PUBLIC "-//W3C//DTD SVG 20010904//EN"
 "http://www.w3.org/TR/2001/REC-SVG-20010904/DTD/svg10.dtd">
<svg version="1.0" xmlns="http://www.w3.org/2000/svg"
 width="720.000000pt" height="961.000000pt" viewBox="0 0 720.000000 961.000000"
 preserveAspectRatio="xMidYMid meet">

<g transform="translate(0.000000,961.000000) scale(0.100000,-0.100000)"
fill="#000000" stroke="none">
<path d="M0 9224 l0 -386 28 7 c15 4 34 7 42 7 8 0 38 6 65 14 28 8 90 17 140
20 81 6 88 5 70 -9 -18 -13 -49 -21 -130 -31 -16 -2 -68 -11 -115 -20 -47 -9
-88 -16 -92 -16 -5 0 -8 -10 -8 -21 0 -17 4 -20 23 -15 12 4 40 9 62 12 22 3
51 9 65 14 14 4 52 14 85 21 33 7 64 16 70 21 5 4 30 8 56 8 53 0 74 16 35 26
-36 9 -22 30 27 42 67 16 228 52 272 60 51 10 54 27 22 129 -14 43 -32 114
-42 158 -9 44 -25 116 -35 160 -10 44 -21 99 -24 123 l-6 42 104 0 c95 0 104
-2 109 -20 3 -11 12 -20 20 -20 10 0 13 7 10 20 -3 11 -1 20 5 20 13 0 21 -60
8 -61 -6 0 -2 -4 9 -8 13 -5 24 -3 31 7 8 11 13 12 18 4 4 -7 18 -12 32 -12
16 0 24 -6 24 -17 0 -15 2 -14 15 3 16 21 17 21 19 -20 1 -39 32 -58 51 -32 8
11 21 16 30 13 21 -9 19 -23 -6 -46 -22 -20 -19 -41 6 -41 8 0 19 -9 25 -20 6
-11 16 -18 21 -14 7 4 9 -1 7 -12 -2 -12 -12 -19 -26 -20 -40 -2 -49 -22 -16
-35 46 -19 64 -20 70 -4 4 8 10 15 14 15 9 0 24 -49 21 -71 -2 -21 25 -44 34
-29 3 6 11 8 16 5 5 -4 9 0 9 8 0 8 10 17 23 20 20 5 20 5 5 -7 -11 -8 -14
-16 -8 -22 11 -11 1 -56 -10 -49 -5 3 -12 0 -15 -5 -10 -16 24 -50 49 -50 20
-1 20 -1 2 -15 -19 -14 -18 -15 5 -23 18 -7 27 -5 35 6 16 22 44 8 44 -22 0
-13 4 -26 9 -28 5 -1 11 -12 13 -23 2 -14 -2 -20 -15 -19 -15 2 -16 -1 -5 -15
7 -9 19 -20 26 -24 7 -5 10 -12 7 -17 -3 -5 6 -17 20 -26 15 -10 24 -23 21
-31 -3 -7 4 -30 15 -49 11 -20 19 -46 18 -58 -2 -20 2 -35 21 -81 5 -11 8 -27
9 -35 0 -8 12 -58 26 -110 15 -52 31 -115 37 -140 6 -25 14 -50 20 -56 5 -7
11 -34 15 -61 5 -43 2 -53 -19 -78 -30 -34 -48 -27 -48 21 0 29 -10 44 -67 99
-37 36 -70 65 -74 65 -3 0 -35 23 -69 50 -99 79 -118 65 -86 -67 27 -109 69
-288 77 -328 58 -275 57 -259 30 -312 -51 -102 -54 -112 -48 -180 6 -55 4 -70
-11 -86 -13 -15 -17 -39 -18 -111 0 -50 -6 -107 -13 -126 -11 -28 -11 -53 -2
-118 13 -100 9 -116 -32 -108 -16 3 -35 6 -42 6 -8 0 -16 15 -20 33 -3 17 -10
50 -15 72 -38 170 -63 279 -75 330 -8 33 -22 94 -31 135 -9 41 -20 91 -24 110
-4 19 -31 139 -59 265 -29 127 -61 268 -72 315 -10 47 -30 132 -43 190 -13 58
-34 150 -46 205 -13 55 -29 110 -36 122 -8 12 -14 36 -14 53 0 40 -15 41 -145
11 -44 -11 -107 -25 -140 -31 -33 -7 -85 -18 -115 -25 -30 -8 -82 -19 -115
-25 -33 -6 -78 -16 -100 -20 -22 -5 -60 -12 -85 -15 -74 -10 -80 -14 -80 -46
0 -34 -4 -33 85 -14 39 9 90 20 115 25 71 15 281 60 330 71 90 20 200 36 200
29 0 -8 -61 -27 -130 -40 -25 -5 -79 -16 -120 -24 -41 -9 -97 -20 -125 -26
-27 -5 -70 -14 -95 -20 -50 -11 -105 -22 -197 -40 l-63 -12 0 -642 c0 -707 -6
-618 65 -891 14 -55 30 -118 35 -140 31 -132 53 -219 95 -370 97 -345 269
-1017 345 -1343 40 -173 80 -388 80 -433 0 -20 3 -39 7 -43 5 -4 13 -29 20
-54 6 -26 17 -65 23 -87 6 -22 15 -58 20 -80 8 -39 27 -118 57 -240 8 -33 16
-67 17 -75 1 -8 5 -22 8 -30 8 -20 31 -118 34 -149 1 -13 -1 -32 -5 -44 -7
-18 -8 -17 -18 9 -6 16 -16 52 -23 79 -7 28 -16 59 -20 70 -4 11 -16 57 -25
102 -9 44 -25 110 -36 145 -10 34 -19 75 -19 90 0 15 -4 29 -9 32 -5 3 -11 23
-14 43 -5 34 -14 70 -47 188 -4 17 -36 109 -70 205 -33 96 -70 222 -81 280
-11 58 -27 137 -34 175 -8 39 -27 124 -43 190 -17 66 -33 136 -37 155 -3 19
-19 94 -36 165 -16 72 -41 182 -55 245 -14 63 -34 151 -45 195 -11 44 -26 107
-34 140 -8 33 -24 98 -35 145 -12 47 -26 108 -31 135 -6 28 -21 83 -35 124
-13 40 -27 98 -30 128 -4 29 -11 56 -16 59 -5 3 -7 -121 -5 -293 l3 -298 62
-215 c34 -118 74 -258 89 -310 14 -52 34 -124 44 -160 10 -36 30 -105 43 -155
46 -164 143 -568 166 -690 12 -66 24 -128 27 -137 3 -13 0 -16 -10 -12 -14 5
-29 38 -63 144 -8 25 -24 56 -35 70 l-20 25 6 -90 7 -90 -32 -14 c-29 -12 -34
-12 -60 8 -16 11 -36 21 -45 21 -35 0 -31 -31 40 -285 89 -318 165 -595 179
-652 8 -32 26 -100 40 -150 15 -51 37 -134 50 -184 13 -50 27 -94 31 -97 7 -8
146 61 191 95 17 13 36 23 42 23 17 0 78 36 102 60 11 11 27 20 36 20 15 0
148 68 224 115 51 32 83 37 108 19 28 -19 31 -70 5 -59 -41 18 -73 17 -79 0
-9 -23 21 -71 41 -67 15 3 17 -17 6 -68 -1 -3 -5 1 -9 7 -4 7 -19 14 -32 15
-19 2 -26 -2 -28 -19 -2 -13 1 -23 6 -23 6 0 9 -32 7 -76 -2 -64 -6 -78 -24
-90 -11 -8 -28 -28 -36 -43 -14 -27 -13 -28 10 -23 23 4 23 3 12 -21 -7 -15
-22 -31 -35 -37 -20 -9 -23 -16 -20 -63 2 -38 7 -52 18 -52 9 0 16 -11 18 -29
3 -26 1 -28 -22 -24 -28 6 -32 -5 -20 -50 4 -14 12 -21 20 -18 20 8 40 -34 23
-45 -8 -5 -17 -9 -21 -9 -4 0 -12 -9 -18 -21 -9 -15 -8 -24 1 -35 20 -24 -7
-45 -50 -38 -33 5 -38 3 -49 -21 -7 -14 -12 -32 -12 -39 0 -8 -9 -20 -20 -27
-13 -9 -22 -30 -26 -61 l-7 -48 72 4 c52 2 71 0 71 -9 0 -13 -41 -29 -86 -34
-6 0 -16 -11 -22 -24 l-11 -22 -7 24 c-7 23 -7 22 -20 -9 -14 -33 -9 -55 20
-80 13 -10 16 -10 16 3 0 21 13 28 30 17 12 -8 10 -14 -12 -33 -28 -24 -38
-70 -18 -82 6 -3 10 -16 10 -28 0 -19 2 -18 15 8 21 40 55 69 68 56 6 -6 4
-15 -6 -26 -9 -9 -21 -33 -26 -53 -6 -20 -19 -45 -30 -54 -11 -10 -23 -30 -27
-45 -3 -15 -9 -37 -14 -48 -11 -29 -29 -129 -23 -137 2 -5 16 -8 31 -8 15 0
33 -4 40 -9 21 -13 -25 -52 -53 -45 -30 7 -63 -30 -48 -55 7 -11 8 -23 2 -32
-5 -8 -9 -22 -9 -32 0 -14 5 -17 20 -12 20 6 50 -9 50 -25 0 -3 -23 -21 -50
-39 -31 -20 -50 -40 -50 -51 0 -10 -4 -22 -10 -25 -6 -3 -10 -15 -10 -25 0
-25 -17 -35 -35 -20 -13 11 -15 5 -13 -41 1 -34 8 -58 17 -65 22 -17 18 -97
-7 -129 -27 -34 -38 -100 -21 -131 25 -48 -32 -99 -69 -62 -19 19 -33 -9 -26
-53 5 -32 2 -39 -40 -80 -47 -45 -60 -72 -38 -75 6 -1 15 -3 20 -4 4 -1 22 -1
40 0 28 1 32 -2 32 -23 0 -41 -57 -76 -76 -46 -8 13 -69 5 -90 -12 -8 -6 -14
-20 -14 -30 0 -15 6 -17 38 -12 l37 6 -20 -22 c-16 -19 -17 -24 -5 -31 22 -13
-17 -53 -45 -46 -12 3 -31 -1 -42 -9 -12 -8 -28 -12 -36 -9 -19 7 -47 -32 -47
-66 0 -14 4 -20 8 -14 15 22 58 44 85 44 44 0 28 -23 -29 -41 -55 -17 -65 -36
-34 -64 11 -10 20 -25 20 -34 0 -9 4 -23 10 -31 7 -12 13 -10 34 13 25 27 56
36 56 17 0 -5 -13 -19 -29 -31 -16 -12 -27 -27 -25 -33 3 -7 -7 -23 -21 -36
-15 -14 -25 -35 -25 -50 0 -23 -5 -27 -27 -28 -59 -1 -146 -21 -164 -38 -10
-9 -19 -26 -19 -37 0 -15 5 -18 23 -13 88 26 108 16 59 -29 -20 -18 -34 -24
-53 -20 -23 5 -25 3 -26 -29 -1 -28 3 -35 19 -38 12 -2 26 -12 32 -23 6 -11
19 -31 29 -44 22 -31 22 -46 -4 -57 -20 -9 -20 -10 -1 -34 39 -50 50 -130 19
-130 -7 0 -7 -4 1 -12 7 -7 12 -31 12 -55 0 -41 1 -43 30 -43 25 0 30 4 30 25
0 14 5 25 10 25 6 0 10 9 10 20 0 10 9 24 20 30 14 8 20 21 20 45 0 42 -20 46
-44 10 -26 -39 -38 -31 -31 19 4 26 3 46 -3 50 -14 8 14 112 40 149 11 15 18
34 15 41 -5 13 47 76 64 76 12 0 12 57 -2 82 -8 14 -8 23 0 31 12 12 41 -47
41 -83 0 -13 7 -20 19 -20 26 0 35 -54 16 -105 -16 -46 -19 -105 -5 -105 10 0
23 39 19 56 -6 21 14 54 37 60 13 3 24 11 25 18 0 6 2 59 4 118 1 59 6 112 10
118 4 6 1 51 -6 101 -12 81 -11 93 4 118 29 49 23 64 -22 56 -23 -4 -42 -2
-45 4 -8 13 10 24 53 30 46 8 49 24 6 40 -69 25 -31 50 69 47 58 -2 71 -5 77
-22 14 -34 9 -43 -23 -46 -46 -4 -53 -38 -9 -38 17 0 31 -5 31 -10 0 -6 5 -9
11 -8 16 4 43 -90 30 -106 -17 -21 -5 -49 30 -68 44 -24 67 -25 48 -2 -7 9
-21 19 -31 23 -16 6 -15 12 8 81 13 41 29 84 34 95 32 72 50 120 50 138 0 29
47 87 71 87 10 0 19 5 19 10 0 6 -6 10 -14 10 -7 0 -21 11 -30 25 -13 20 -22
24 -39 19 -20 -6 -20 -6 -3 11 32 33 70 99 76 135 3 19 10 35 15 35 44 3 96
45 116 93 5 13 9 47 9 76 0 28 4 56 9 62 21 23 60 188 67 284 1 19 5 55 9 80
5 33 3 57 -9 84 -21 51 -20 67 7 92 23 22 77 116 77 134 0 5 -11 10 -25 10
-29 0 -35 29 -10 50 9 7 15 29 15 54 0 46 -7 59 -32 69 -11 4 -15 12 -12 22 9
22 34 19 34 -4 0 -14 8 -21 28 -23 20 -2 26 -8 25 -23 -4 -35 5 -49 23 -35 8
7 13 19 10 26 -2 6 4 45 14 86 10 40 21 95 26 123 5 35 15 58 35 78 33 33 35
42 13 55 -11 6 -13 12 -6 16 6 4 9 13 5 21 -3 8 -1 15 5 15 6 0 20 21 33 48
12 26 28 54 34 62 19 23 65 183 65 226 0 22 9 54 20 72 11 18 20 44 20 57 0
27 51 125 75 145 12 10 20 9 37 -4 71 -52 115 -76 137 -76 15 0 46 16 71 36
l45 36 22 -49 c12 -26 22 -55 22 -65 1 -9 21 -41 46 -71 25 -31 45 -59 45 -62
0 -4 8 -19 19 -33 10 -15 30 -58 44 -97 13 -38 43 -105 66 -148 23 -43 41 -84
41 -92 0 -8 20 -37 44 -64 25 -28 56 -70 71 -95 14 -24 36 -51 49 -59 27 -18
76 -117 76 -154 0 -20 16 -42 57 -82 66 -64 151 -163 173 -203 8 -14 23 -40
33 -57 14 -24 15 -36 7 -51 -13 -24 -4 -42 18 -38 15 3 47 -25 111 -96 13 -14
34 -26 47 -26 14 0 43 -16 67 -38 23 -21 65 -55 92 -77 97 -76 235 -229 235
-261 0 -4 6 -12 14 -18 8 -6 43 -60 77 -121 34 -60 71 -126 82 -145 53 -92
144 -284 175 -367 24 -65 52 -71 52 -11 0 53 9 107 54 318 19 91 46 221 61
290 88 420 116 536 135 554 15 15 22 17 33 8 17 -14 24 -8 43 37 20 49 17 60
-10 30 -13 -15 -33 -30 -45 -34 -19 -6 -21 -3 -21 28 0 18 8 67 19 108 22 86
38 273 22 249 -6 -8 -11 -29 -11 -45 0 -17 -9 -48 -19 -69 -11 -21 -17 -44
-14 -52 3 -10 -5 -16 -26 -20 -37 -8 -39 -17 -8 -31 l22 -10 -24 -8 c-14 -4
-32 -16 -41 -27 -12 -15 -31 -20 -88 -23 -66 -3 -74 -6 -97 -33 -14 -17 -40
-34 -57 -37 -29 -7 -30 -9 -14 -21 10 -7 16 -17 13 -21 -8 -12 -97 -16 -97 -5
0 5 -20 6 -45 2 -24 -4 -50 -3 -57 1 -6 4 -16 5 -20 3 -4 -3 -31 -9 -58 -13
-48 -8 -56 -4 -51 22 1 5 -7 6 -18 2 -11 -3 -22 -1 -26 5 -4 6 -14 8 -24 5
-15 -4 -56 12 -111 44 -8 5 -33 17 -55 27 -22 11 -44 25 -48 32 -4 6 -15 12
-23 12 -8 0 -17 7 -20 15 -3 8 -31 27 -61 41 -30 15 -57 33 -60 41 -3 8 -18
20 -34 29 -16 8 -51 33 -78 57 -27 23 -88 70 -135 105 -47 34 -97 79 -110 100
-13 20 -47 59 -75 86 -29 27 -59 63 -68 80 -8 17 -30 47 -48 66 -18 19 -67
100 -107 180 -41 80 -89 168 -106 195 -50 81 -102 254 -102 339 0 40 -4 97
-10 127 -5 30 -11 181 -13 337 -4 272 -5 284 -25 305 -26 26 -66 32 -56 8 9
-21 15 -228 15 -474 -1 -189 -5 -240 -21 -262 -4 -5 -10 -32 -13 -58 -5 -52
-37 -97 -68 -97 -28 0 -71 30 -108 74 -29 36 -32 45 -27 83 3 25 0 58 -9 82
-34 98 -31 195 8 211 12 5 16 9 10 9 -18 1 -16 46 2 61 8 6 18 10 22 7 4 -3 7
44 6 103 -1 83 2 112 12 120 10 8 13 25 9 53 -7 52 22 112 66 138 28 18 30 18
31 1 1 -9 3 -26 5 -37 2 -11 5 -29 7 -40 3 -21 12 -29 27 -23 7 3 -10 63 -35
120 -4 10 -5 24 -2 31 7 19 -40 77 -63 77 -19 0 -30 19 -30 51 0 10 -7 19 -15
19 -9 0 -15 9 -15 23 0 13 -13 36 -30 52 -16 15 -32 41 -35 56 -4 16 -15 35
-25 42 -10 7 -20 28 -22 46 -2 19 -11 39 -21 45 -15 9 -23 5 -47 -24 -19 -23
-30 -29 -30 -19 0 9 14 30 30 47 31 33 39 69 19 89 -6 6 -18 9 -25 6 -8 -3
-14 0 -14 6 0 6 7 11 15 11 11 0 13 8 8 33 -3 17 -10 37 -15 43 -5 7 -8 16 -7
20 1 5 1 20 0 34 -2 23 -3 24 -15 8 -7 -10 -16 -18 -20 -18 -11 0 -6 23 10 41
21 23 2 62 -28 57 -35 -5 -44 -32 -20 -59 26 -27 27 -38 7 -46 -24 -9 -43 25
-35 61 12 49 21 66 41 77 22 11 25 29 6 29 -7 0 -22 6 -32 14 -19 14 -19 15
-2 50 9 20 17 48 17 62 0 28 -28 44 -41 23 -19 -33 -38 -53 -44 -47 -6 6 10
103 23 138 3 8 4 18 4 23 -1 4 -3 53 -4 110 0 56 -5 113 -10 127 -6 14 -12 43
-15 65 -2 22 -9 45 -15 52 -6 7 -7 20 -4 29 3 9 -3 31 -14 48 -10 18 -22 57
-26 88 -5 42 -10 55 -22 54 -22 -1 -51 60 -52 111 0 58 7 71 36 65 18 -3 24 0
24 14 0 13 3 15 11 7 9 -9 18 -8 38 0 34 15 41 25 41 63 0 17 4 44 10 60 5 16
11 49 14 74 2 25 9 67 15 93 6 27 9 52 6 57 -3 5 1 23 10 39 8 17 15 39 15 51
0 21 18 60 34 71 5 4 5 12 1 19 -5 8 -4 11 2 7 6 -4 13 10 17 34 4 28 16 49
37 66 39 33 58 80 56 142 -2 57 23 93 65 96 21 2 23 6 20 42 -3 29 1 44 12 50
8 5 17 18 19 30 2 12 11 31 21 42 10 11 13 22 8 25 -15 9 -2 45 14 39 15 -6
18 14 8 42 -5 13 -8 14 -15 3 -6 -9 -9 -2 -9 19 0 25 4 31 15 27 8 -4 15 -10
15 -15 0 -5 9 -9 20 -9 13 0 22 9 26 25 3 14 12 25 19 25 22 0 29 59 10 80
-20 22 -11 48 10 30 8 -6 12 -17 9 -24 -3 -8 5 -15 21 -18 22 -5 26 -2 24 16
-3 30 10 56 26 50 7 -3 21 6 30 20 10 14 24 26 32 26 9 0 13 6 9 15 -6 17 21
48 35 40 5 -4 10 4 10 17 1 13 2 28 3 35 0 6 27 30 58 53 32 23 58 47 58 54 0
8 11 21 25 30 14 9 23 21 20 26 -4 6 0 10 7 10 7 0 18 8 25 19 6 10 24 22 40
26 15 3 35 13 43 20 8 7 29 15 45 16 17 2 35 6 40 10 6 4 24 10 42 14 18 3 49
20 69 36 38 30 68 37 80 18 4 -7 17 1 35 20 26 29 33 31 87 30 38 -1 72 4 92
15 18 9 43 16 56 16 12 0 24 5 26 11 4 11 51 18 131 18 22 0 45 5 53 12 12 10
19 7 38 -10 19 -18 28 -21 44 -12 17 9 21 7 27 -12 4 -13 8 -17 12 -9 7 17 23
5 23 -18 0 -18 25 -34 40 -25 4 3 35 -3 69 -14 42 -13 61 -15 64 -7 3 8 8 8
18 1 8 -6 37 -11 66 -10 28 0 50 -2 47 -4 -7 -7 40 -42 85 -63 24 -11 53 -28
64 -39 11 -10 30 -22 41 -25 12 -4 36 -20 54 -35 18 -16 41 -29 52 -29 11 0
24 -9 30 -20 6 -11 15 -20 20 -20 5 0 24 -15 42 -34 18 -18 42 -35 53 -37 12
-3 24 -17 31 -39 6 -19 22 -41 35 -47 13 -7 23 -17 22 -23 -2 -5 1 -10 6 -10
5 0 15 -16 21 -35 6 -19 16 -35 21 -35 6 0 8 -4 5 -8 -3 -5 4 -14 14 -22 10
-8 17 -17 14 -22 -3 -4 1 -18 8 -30 7 -13 11 -26 10 -30 -1 -5 2 -8 7 -8 4 0
16 -30 27 -67 10 -38 19 -70 20 -73 1 -3 5 -15 9 -27 4 -13 11 -23 15 -23 4 0
6 -18 5 -40 -1 -22 3 -50 9 -63 7 -12 12 -31 13 -43 2 -32 31 -94 43 -94 6 0
8 -4 5 -10 -6 -9 72 -90 87 -90 4 0 14 -13 22 -28 23 -44 6 -62 -57 -61 -68 1
-238 -29 -257 -46 -8 -7 -25 -16 -37 -19 -14 -5 -23 -15 -23 -27 0 -10 -4 -19
-10 -19 -5 0 -10 -4 -10 -10 0 -17 36 -11 60 10 42 36 55 22 18 -18 l-23 -25
28 7 c38 9 65 -11 41 -29 -14 -10 -10 -12 29 -10 27 0 54 8 65 18 17 15 19 15
36 -5 15 -17 25 -20 68 -15 38 5 59 2 94 -15 24 -12 44 -26 44 -30 0 -4 7 -8
15 -8 9 0 20 -11 25 -25 5 -14 15 -25 22 -25 18 0 58 -65 58 -95 0 -14 8 -29
20 -35 11 -6 19 -16 17 -23 -1 -6 8 -13 20 -15 l22 -3 -2 253 c-1 181 2 272
12 320 12 64 12 68 -9 97 -18 26 -21 41 -18 102 3 61 7 73 28 89 21 16 22 20
10 35 -13 16 -12 19 7 32 27 18 19 43 -13 43 -17 0 -24 6 -24 20 0 11 7 23 15
26 20 8 9 24 -17 24 -17 0 -19 4 -14 26 5 19 2 30 -10 39 -12 8 -15 18 -9 31
10 24 6 96 -6 108 -5 6 -9 19 -9 29 0 10 -9 30 -20 44 -11 14 -20 39 -20 55 0
37 -25 97 -44 104 -8 3 -17 16 -20 30 -5 17 -13 24 -31 24 -30 0 -75 20 -75
34 0 5 -11 21 -24 35 -37 39 -98 160 -91 182 4 12 1 21 -9 25 -9 3 -16 14 -16
24 0 25 -28 90 -39 90 -5 0 -15 25 -21 55 -7 34 -18 59 -29 65 -10 5 -21 23
-25 41 -5 28 -9 30 -31 25 -37 -9 -50 2 -29 25 13 15 14 19 3 19 -8 0 -27 7
-43 15 -15 8 -32 13 -36 10 -12 -7 -41 6 -35 15 3 5 2 15 -1 24 -5 12 -10 13
-26 5 -23 -12 -56 7 -39 24 10 10 0 24 -65 93 -42 46 -122 94 -155 94 -10 0
-19 6 -19 13 0 6 -16 23 -35 37 -19 14 -35 30 -35 36 0 20 -70 66 -90 61 -11
-3 -24 1 -30 8 -14 17 -57 26 -175 34 -99 6 -195 37 -195 61 0 6 -14 10 -30
10 -17 0 -33 6 -36 14 -9 24 -31 26 -57 6 -35 -28 -110 -52 -118 -38 -4 6 -17
8 -29 5 -14 -4 -27 1 -38 14 -9 10 -20 19 -25 19 -5 0 -16 9 -25 19 -12 14
-33 21 -67 23 -47 3 -50 1 -64 -27 -23 -50 -41 -66 -62 -55 -23 13 -66 13 -74
1 -3 -6 -26 -13 -50 -17 -29 -4 -45 -11 -45 -20 0 -8 -5 -14 -10 -14 -6 0 -15
-11 -20 -25 -6 -15 -15 -23 -23 -19 -10 3 -17 -4 -21 -21 -4 -14 -11 -23 -15
-20 -5 3 -21 1 -36 -5 -22 -9 -25 -13 -15 -25 18 -21 5 -45 -25 -45 -14 0 -25
-4 -25 -10 0 -5 4 -10 10 -10 5 0 7 -6 4 -14 -7 -19 -48 -34 -116 -42 -46 -5
-58 -10 -58 -24 0 -18 -20 -31 -53 -35 -9 -1 -28 -11 -40 -23 -13 -12 -31 -22
-40 -22 -9 0 -24 -18 -36 -44 -20 -45 -53 -86 -71 -86 -5 0 -10 -4 -10 -10 0
-5 -7 -10 -15 -10 -8 0 -24 -9 -36 -21 -30 -30 -68 -13 -65 29 2 16 7 35 12
43 13 22 11 42 -8 68 -22 29 -22 41 -3 77 12 24 12 32 1 49 -19 28 -25 103 -9
109 7 3 16 0 20 -7 13 -20 51 -38 58 -27 4 6 11 8 16 5 5 -3 6 1 3 9 -7 19
-21 21 -26 5 -3 -9 -10 -9 -26 0 -20 11 -32 34 -14 29 4 -2 22 9 40 24 l32 27
-21 20 c-12 11 -18 24 -14 30 3 6 -1 11 -9 11 -23 0 -19 37 4 43 12 3 20 14
20 27 0 21 2 21 23 8 12 -8 32 -17 43 -20 17 -4 20 -2 17 13 -3 11 1 21 11 25
16 6 22 51 8 69 -10 14 -42 18 -43 5 -1 -5 -2 -14 -3 -20 -3 -25 -21 -12 -24
18 -3 29 -1 32 24 32 15 0 33 8 40 18 13 15 15 16 27 1 6 -9 26 -18 43 -22 28
-5 31 -4 27 12 -3 11 0 29 7 41 9 17 9 29 0 51 -14 33 -22 36 -40 14 -11 -14
-15 -14 -29 -1 -9 8 -29 20 -45 26 -20 7 -26 14 -19 21 11 11 93 -10 93 -24 0
-4 19 3 43 15 23 12 45 22 50 23 4 0 8 5 8 10 3 20 -54 37 -119 36 -73 -1 -81
6 -12 10 47 3 74 15 64 30 -3 5 3 6 12 2 14 -5 16 -2 11 18 -4 17 1 32 17 50
22 25 28 27 125 28 72 1 101 -2 96 -9 -4 -6 -12 -9 -19 -7 -7 3 -13 -4 -13
-14 -1 -13 5 -19 18 -19 10 0 19 -4 19 -8 0 -5 6 -9 13 -10 36 -3 53 -8 59
-17 5 -6 8 -5 8 3 0 7 5 10 10 7 6 -3 10 -1 10 4 0 6 -4 11 -8 11 -5 0 -7 14
-4 30 4 28 7 30 51 30 40 -1 44 -2 29 -14 -10 -7 -18 -21 -18 -30 0 -25 29
-31 46 -10 9 11 12 12 8 4 -5 -10 0 -9 14 4 12 11 22 25 22 33 0 11 384 13
2325 13 1543 0 2325 3 2325 10 0 7 -1207 10 -3600 10 l-3600 0 0 -386z m2027
309 c0 -7 -9 -13 -19 -13 -10 0 -18 6 -18 14 0 8 8 14 18 13 10 0 19 -7 19
-14z m-873 -122 c3 -5 0 -11 -8 -14 -15 -6 -26 1 -26 15 0 11 27 10 34 -1z
m766 -55 c0 -3 -4 -8 -10 -11 -5 -3 -10 -1 -10 4 0 6 5 11 10 11 6 0 10 -2 10
-4z m101 -67 c6 -13 7 -19 1 -15 -6 3 -12 1 -14 -6 -6 -17 -28 0 -28 23 0 26
26 24 41 -2z m-167 -18 c16 -30 7 -51 -23 -51 -12 0 -13 2 -3 8 7 5 10 22 8
40 -4 39 -1 40 18 3z m-83 -258 c-8 -15 -10 -15 -11 -2 0 17 10 32 18 25 2 -3
-1 -13 -7 -23z m-54 -125 c-3 -7 -5 -2 -5 12 0 14 2 19 5 13 2 -7 2 -19 0 -25z
m773 -51 c9 -3 4 -6 -12 -6 -21 -1 -26 3 -21 15 3 9 9 11 12 6 3 -5 13 -12 21
-15z m-63 -49 c-3 -8 -6 -5 -6 6 -1 11 2 17 5 13 3 -3 4 -12 1 -19z m1830
-363 c8 -23 -4 -30 -22 -12 -19 20 -19 27 0 27 9 0 18 -7 22 -15z m-2737 -311
c0 -8 5 -14 10 -14 6 0 10 -13 10 -30 0 -16 5 -30 10 -30 16 0 12 -18 -9 -39
-10 -10 -22 -29 -26 -41 -5 -16 -10 -19 -18 -11 -22 22 -35 10 -42 -35 -5 -34
-3 -49 6 -55 8 -4 10 -11 6 -15 -22 -22 -53 80 -61 204 -2 23 -6 45 -9 48 -3
3 -3 12 0 20 5 13 9 12 25 -3 14 -12 21 -14 26 -6 9 14 54 32 65 26 4 -2 7
-11 7 -19z m85 -14 c3 -5 1 -10 -4 -10 -6 0 -11 5 -11 10 0 6 2 10 4 10 3 0 8
-4 11 -10z m280 -499 c3 -5 1 -12 -5 -16 -5 -3 -10 1 -10 9 0 18 6 21 15 7z
m-665 -652 c0 -5 -7 -9 -15 -9 -15 0 -20 12 -9 23 8 8 24 -1 24 -14z m3070
-229 c0 -5 -4 -10 -10 -10 -5 0 -10 5 -10 10 0 6 5 10 10 10 6 0 10 -4 10 -10z
m-3020 -135 c0 -10 -11 -15 -35 -15 -33 0 -43 8 -28 23 13 14 63 7 63 -8z
m-194 -192 c3 -10 9 -27 14 -38 11 -29 70 -224 80 -265 4 -19 13 -57 19 -85 6
-27 27 -111 46 -185 19 -74 58 -232 85 -350 28 -118 57 -240 65 -271 18 -68
20 -334 3 -409 -10 -45 -10 -56 6 -85 21 -39 15 -75 -9 -55 -27 22 -18 -19 10
-44 20 -18 25 -32 23 -61 -3 -31 -11 -44 -45 -73 -29 -23 -43 -42 -43 -58 0
-28 5 -29 42 -10 31 17 41 8 32 -28 -7 -30 -29 -40 -56 -25 -11 6 -26 8 -33 5
-17 -6 -24 21 -14 50 6 17 3 23 -11 27 -11 3 -22 17 -25 33 -3 16 -10 37 -16
46 -5 10 -9 25 -9 33 0 9 -4 14 -9 11 -4 -3 -3 -39 4 -80 6 -41 10 -82 9 -90
-1 -8 10 -28 24 -43 15 -15 27 -32 27 -38 0 -5 13 -9 28 -8 25 2 27 -1 27 -36
0 -50 -14 -63 -48 -45 -15 8 -39 14 -54 14 -16 0 -28 5 -28 11 0 5 -6 7 -12 3
-9 -6 -9 -3 1 9 8 10 10 24 5 34 -4 10 -8 25 -8 35 -1 9 -4 19 -8 23 -8 9 -38
-19 -38 -35 0 -6 -6 -10 -12 -7 -7 2 -12 10 -10 16 1 6 -2 11 -7 11 -5 0 -9
10 -9 23 -1 12 -3 31 -6 42 -2 11 -5 24 -5 29 -1 11 -15 -2 -17 -15 -1 -5 -2
-10 -3 -11 -9 -11 -8 -65 1 -75 8 -10 6 -13 -6 -13 -10 0 -16 9 -16 25 0 18
-4 23 -16 18 -10 -4 -22 1 -30 12 -7 9 -20 15 -28 12 -14 -6 -32 33 -27 62 5
28 -10 63 -24 57 -12 -4 -13 3 -8 41 5 41 4 46 -10 40 -11 -4 -17 -1 -17 8 0
8 -10 21 -21 29 -21 14 -21 17 -6 39 8 13 12 29 9 35 -4 6 -7 37 -6 70 1 51
-2 61 -18 65 -15 4 -17 9 -8 32 13 34 13 35 -4 35 -21 0 -26 11 -35 84 -5 44
-4 67 3 69 8 3 7 9 -1 19 -7 8 -14 30 -15 49 -3 29 0 34 20 37 12 2 20 7 17
12 -6 10 76 36 146 45 77 11 76 10 46 132 -42 173 -113 497 -122 556 -14 90
-24 154 -27 167 -2 8 1 15 5 15 5 0 18 18 29 40 20 40 25 106 12 168 -6 27 -5
28 16 17 18 -10 24 -9 30 1 5 7 7 17 5 23 -14 48 -14 66 -1 66 8 0 17 -14 21
-32 4 -18 11 -37 15 -43 9 -12 80 -243 80 -261 0 -7 5 -16 12 -20 8 -5 9 -2 4
12 -5 10 -12 46 -16 79 -9 63 -37 224 -45 263 -6 26 13 30 21 5z m364 -1113
c0 -5 -4 -10 -10 -10 -5 0 -10 5 -10 10 0 6 5 10 10 10 6 0 10 -4 10 -10z m51
-266 c14 -13 16 -21 7 -39 -15 -33 -38 -20 -38 21 0 38 5 41 31 18z m94 -43
c-15 -14 -55 -23 -55 -13 0 15 12 22 39 22 15 0 21 -4 16 -9z m-27 -101 c2
-18 0 -21 -7 -11 -6 10 -21 12 -50 8 -37 -5 -41 -3 -41 17 0 20 4 22 48 16 41
-4 47 -8 50 -30z m-28 -96 c0 -8 -3 -14 -8 -14 -11 0 -32 37 -25 44 9 8 33
-14 33 -30z m-35 -84 c-5 -8 -11 -8 -17 -2 -6 6 -7 16 -3 22 5 8 11 8 17 2 6
-6 7 -16 3 -22z m-56 -63 c0 -21 -1 -21 -9 -2 -12 28 -12 37 0 30 6 -3 10 -16
9 -28z m21 -103 c17 -111 47 -289 66 -391 4 -20 2 -33 -4 -33 -5 0 -12 17 -15
38 -3 20 -10 57 -16 82 -6 25 -19 84 -28 133 -10 55 -21 87 -29 87 -21 0 -28
22 -10 32 12 7 16 23 16 65 0 70 8 64 20 -13z m50 39 c-1 -24 -2 -26 -11 -10
-5 9 -7 22 -4 27 10 17 15 11 15 -17z m290 -10 c0 -10 -4 -24 -9 -32 -7 -11
-11 -10 -19 6 -8 14 -8 23 0 31 17 17 28 15 28 -5z m-215 -53 c-10 -16 -28
-11 -21 5 3 8 1 15 -4 15 -6 0 -10 7 -10 15 0 12 5 10 20 -5 12 -12 18 -25 15
-30z m-55 -75 c0 -8 -4 -15 -9 -15 -13 0 -22 16 -14 24 11 11 23 6 23 -9z
m220 -10 c11 -13 8 -15 -15 -15 -23 0 -26 2 -15 15 7 8 14 15 15 15 1 0 8 -7
15 -15z m-123 -67 c-3 -8 -6 -5 -6 6 -1 11 2 17 5 13 3 -3 4 -12 1 -19z m-167
-42 c0 -16 -19 -25 -37 -18 -23 8 -14 32 12 32 15 0 25 -6 25 -14z m335 -15
c3 -5 1 -12 -5 -16 -5 -3 -10 1 -10 9 0 18 6 21 15 7z m-85 -36 c24 -29 4 -38
-25 -12 -28 24 -28 26 -9 27 12 0 27 -7 34 -15z m-557 -42 c-7 -2 -19 -2 -25
0 -7 3 -2 5 12 5 14 0 19 -2 13 -5z m257 -10 c0 -10 -9 -29 -19 -42 -19 -24
-19 -24 -25 -3 -8 26 9 62 29 62 8 0 15 -8 15 -17z m270 9 c0 -11 -37 -32 -44
-25 -8 9 14 33 30 33 8 0 14 -3 14 -8z m-330 -76 c-1 -34 -59 -62 -75 -36 -3
6 3 10 14 10 13 0 23 9 27 24 6 25 34 26 34 2z m393 0 c16 -12 24 -46 11 -46
-15 0 -50 36 -46 48 5 15 12 15 35 -2z m-54 -68 c-5 -10 -16 -18 -24 -18 -11
0 -11 5 2 31 11 22 18 27 24 18 4 -7 3 -21 -2 -31z m-179 -4 c0 -31 -23 -28
-28 4 -2 15 2 22 12 22 11 0 16 -9 16 -26z m-150 -4 c0 -5 -9 -14 -20 -20 -22
-12 -23 -10 -14 14 7 17 34 22 34 6z m78 -88 c2 -12 -1 -22 -7 -22 -13 0 -32
35 -24 44 12 12 28 0 31 -22z m288 -20 c-2 -15 -5 -34 -6 -42 -1 -8 -7 1 -14
20 -9 23 -10 39 -4 47 15 19 29 5 24 -25z m-904 -24 c-15 -15 -26 -4 -18 18 5
13 9 15 18 6 9 -9 9 -15 0 -24z m496 10 c-6 -16 -36 -34 -44 -26 -3 4 -4 14
-1 23 7 17 51 21 45 3z m216 -33 c-4 -8 -11 -15 -16 -15 -6 0 -5 6 2 15 7 8
14 15 16 15 2 0 1 -7 -2 -15z m-167 -11 c3 -8 11 -13 18 -10 7 2 15 -4 18 -15
6 -22 -11 -37 -19 -16 -3 9 -14 12 -29 9 -29 -5 -47 24 -24 39 20 13 29 11 36
-7z m-540 -31 c-3 -10 -5 -4 -5 12 0 17 2 24 5 18 2 -7 2 -21 0 -30z m694 -20
c12 -15 12 -16 -3 -10 -11 4 -21 0 -26 -10 -10 -18 -32 -10 -32 12 0 12 12 18
41 24 4 0 13 -7 20 -16z m-221 -56 c0 -26 -17 -47 -38 -47 -9 0 -11 7 -6 23
14 47 44 64 44 24z m30 -19 c0 -18 -2 -20 -9 -8 -6 8 -7 18 -5 22 9 14 14 9
14 -14z m205 -23 c0 -10 -5 -20 -11 -22 -13 -4 -27 24 -18 38 9 15 29 4 29
-16z m80 -15 c3 -11 3 -25 0 -30 -11 -17 -32 6 -37 40 -4 25 -2 27 13 19 10
-5 20 -18 24 -29z m-42 -89 c6 -25 -10 -51 -28 -45 -18 7 -20 35 -3 52 17 17
25 15 31 -7z m-363 -25 c0 -8 -7 -16 -15 -20 -15 -5 -21 14 -8 27 11 12 23 8
23 -7z m420 -16 c0 -22 -4 -28 -15 -24 -8 4 -15 17 -15 30 0 15 6 24 15 24 10
0 15 -10 15 -30z m-356 -31 c-7 -11 -34 -12 -34 -1 0 14 11 21 26 15 8 -3 11
-9 8 -14z m99 -63 c3 -12 -30 -32 -39 -24 -11 12 5 40 21 36 9 -2 17 -7 18
-12z m-178 -6 c-3 -5 -13 -10 -21 -10 -8 0 -14 5 -14 10 0 6 9 10 21 10 11 0
17 -4 14 -10z m11 -37 c17 -17 17 -18 -5 -21 -24 -4 -44 15 -35 30 8 13 21 9
40 -9z m374 -22 c0 -21 -26 -36 -36 -20 -9 15 3 39 21 39 8 0 15 -9 15 -19z
m-278 -18 c-7 -38 -25 -53 -61 -53 -25 0 -31 4 -31 21 0 30 22 49 44 37 13 -8
22 -6 34 6 21 20 20 21 14 -11z m318 -33 c0 -5 -2 -10 -4 -10 -3 0 -8 5 -11
10 -3 6 -1 10 4 10 6 0 11 -4 11 -10z m-450 -60 c12 -23 28 -40 38 -40 16 0 2
-12 -47 -36 -17 -9 -33 15 -26 43 4 16 -1 25 -16 33 -16 9 -18 14 -8 26 20 24
38 16 59 -26z m320 -61 c0 -18 -5 -21 -30 -17 -24 4 -30 1 -25 -9 3 -8 5 -20
5 -27 0 -20 39 -56 55 -50 22 9 18 -14 -5 -28 -16 -10 -20 -24 -20 -65 0 -56
8 -65 28 -33 7 11 21 20 32 20 23 0 23 2 9 -39 -11 -31 -39 -53 -69 -56 -8 -1
-22 -2 -31 -3 -9 -1 -21 -14 -28 -29 -9 -20 -15 -23 -23 -15 -9 9 -9 15 0 24
7 7 12 24 12 39 0 14 9 38 20 52 21 27 26 52 11 61 -10 7 -23 58 -27 106 -1
19 -5 47 -9 63 -7 24 -5 27 18 27 14 0 29 5 32 10 10 16 45 -8 45 -31z m-120
21 c0 -5 -7 -10 -16 -10 -8 0 -12 5 -9 10 3 6 10 10 16 10 5 0 9 -4 9 -10z
m-196 -76 c23 -9 20 -19 -9 -32 -28 -13 -43 1 -25 23 14 17 13 17 34 9z m382
-38 c9 -22 1 -46 -12 -38 -6 4 -14 17 -18 30 -6 16 -3 22 9 22 8 0 18 -6 21
-14z m-459 -18 c-3 -8 -6 -5 -6 6 -1 11 2 17 5 13 3 -3 4 -12 1 -19z m323 -75
c0 -5 -7 -17 -15 -27 -15 -20 -15 -20 -15 0 0 12 3 24 7 27 9 9 23 9 23 0z
m-230 -38 c0 -3 -5 -11 -11 -18 -5 -7 -19 -27 -30 -46 -19 -32 -21 -33 -40
-16 -19 18 -26 44 -11 46 31 3 48 10 57 23 9 15 35 22 35 11z m-10 -150 c0
-18 -41 -37 -54 -25 -5 5 -6 16 -3 24 8 21 57 21 57 1z m74 6 c3 -5 -1 -11 -9
-15 -8 -3 -21 -21 -29 -41 -15 -35 -53 -60 -70 -45 -12 12 34 67 62 74 12 4
22 13 22 21 0 16 16 20 24 6z m-273 -11 c15 -9 17 -15 9 -30 -10 -19 -40 -28
-40 -12 0 4 -3 17 -6 30 -7 24 5 28 37 12z m87 3 c-10 -2 -18 -9 -18 -14 0
-15 -27 -10 -34 6 -4 12 3 15 32 14 20 -1 29 -3 20 -6z m190 -119 c3 -28 3
-28 -12 -9 -19 24 -21 48 -3 43 6 -3 13 -18 15 -34z m-161 -36 c-3 -8 -6 -5
-6 6 -1 11 2 17 5 13 3 -3 4 -12 1 -19z m243 -120 c0 -5 -4 -8 -10 -8 -5 0
-10 10 -10 23 0 18 2 19 10 7 5 -8 10 -18 10 -22z m-230 -87 c0 -5 -12 -19
-27 -31 -25 -19 -28 -20 -31 -5 -2 9 2 22 8 30 14 17 50 20 50 6z m-46 -101
c14 -14 -14 -43 -29 -30 -9 7 -20 3 -39 -15 -33 -31 -36 -31 -36 -3 0 35 40
70 70 63 14 -4 29 -10 34 -15z m-87 -125 c3 -9 -2 -24 -12 -35 -10 -11 -15
-26 -12 -34 8 -20 -13 -32 -24 -15 -20 32 -2 99 27 99 8 0 17 -7 21 -15z
m2955 -133 c-6 -2 -12 -10 -12 -18 0 -7 -6 -11 -14 -8 -11 4 -14 25 -7 41 1 0
11 -1 23 -5 12 -3 17 -7 10 -10z m-2917 -11 c3 -5 1 -12 -5 -16 -5 -3 -10 1
-10 9 0 18 6 21 15 7z m2845 -11 c0 -5 -4 -10 -10 -10 -5 0 -10 5 -10 10 0 6
5 10 10 10 6 0 10 -4 10 -10z m-2880 -43 c0 -8 -16 -19 -36 -25 -31 -9 -35 -8
-32 6 2 9 14 19 28 23 37 10 40 10 40 -4z m1957 -54 c28 -30 40 -49 32 -52 -7
-2 -15 1 -17 8 -2 6 -9 11 -15 11 -7 0 -22 18 -35 40 -12 22 -20 40 -17 40 4
0 27 -21 52 -47z m-1927 7 c0 -23 9 -25 44 -8 21 9 29 8 45 -6 21 -19 38 -64
18 -48 -17 13 -57 21 -73 15 -23 -8 -16 -48 12 -74 27 -25 76 -117 88 -165 8
-31 -3 -154 -13 -154 -4 0 -14 12 -22 27 -8 15 -24 37 -37 48 -22 19 -22 22
-11 97 l12 77 -31 29 c-18 17 -32 37 -32 46 0 27 -47 68 -70 61 -11 -4 -20 -4
-20 0 0 14 31 64 42 68 29 12 48 7 48 -13z m2620 1 c0 -6 17 -12 38 -14 21 -2
6 -4 -34 -5 -56 -2 -73 1 -78 13 -4 12 3 15 34 15 22 0 40 -4 40 -9z m-159
-24 c-13 -13 -26 -3 -16 12 3 6 11 8 17 5 6 -4 6 -10 -1 -17z m-2301 -189 c0
-31 -1 -32 -14 -12 -8 11 -18 33 -21 47 -4 15 -11 27 -16 27 -5 0 -9 8 -9 18
1 13 8 9 30 -16 20 -22 30 -43 30 -64z m-252 -90 c-4 -44 -24 -47 -26 -3 -1
25 3 35 14 35 11 0 14 -9 12 -32z m-108 -2 c-1 -5 4 -12 11 -16 13 -9 5 -40
-11 -40 -5 0 -10 7 -10 15 0 8 -7 15 -15 15 -17 0 -18 2 -9 25 7 16 36 17 34
1z m63 -81 c5 -30 -23 -72 -41 -61 -16 9 -15 59 0 74 19 19 35 14 41 -13z
m158 -38 c-1 -12 -15 -9 -19 4 -3 6 1 10 8 8 6 -3 11 -8 11 -12z m61 -123
l-20 -59 -17 40 c-16 37 -11 74 9 64 4 -2 12 4 18 14 6 12 14 15 20 9 6 -6 2
-31 -10 -68z m-222 40 c0 -35 -67 -114 -97 -114 -29 0 -11 45 34 87 51 46 63
52 63 27z m56 -240 c-4 -13 0 -41 8 -63 12 -37 12 -41 -5 -46 -11 -4 -19 -10
-19 -15 0 -12 -57 -70 -69 -70 -25 0 -4 56 36 99 14 15 24 43 29 77 3 31 10
51 16 48 5 -3 7 -17 4 -30z m-179 -30 c8 -21 -30 -59 -51 -51 -16 6 -22 48 -9
60 12 13 54 7 60 -9z m73 -9 c0 -3 -9 -25 -21 -48 -11 -23 -20 -60 -20 -82 0
-38 -11 -55 -36 -55 -23 0 -15 60 12 92 14 16 25 36 25 44 0 21 19 54 30 54 6
0 10 -2 10 -5z m-220 -424 c0 -19 -23 -35 -34 -24 -7 8 12 43 24 43 6 0 10 -9
10 -19z m-114 -26 c-25 -19 -37 -19 -30 0 4 8 16 15 28 15 21 -1 21 -1 2 -15z
m91 -33 c16 -10 35 -62 28 -79 -4 -12 -11 -10 -34 9 -45 35 -40 99 6 70z m-6
-162 c25 -14 24 -44 -3 -70 -21 -20 -23 -20 -35 -4 -7 10 -13 30 -13 44 0 41
14 49 51 30z m-160 -110 c19 -11 27 -60 10 -60 -5 0 -17 -7 -25 -16 -15 -14
-17 -13 -26 11 -17 46 -12 67 18 74 2 1 12 -4 23 -9z m-40 -143 c-6 -15 -15
-27 -21 -27 -13 0 -13 13 2 45 15 33 32 17 19 -18z"/>
<path d="M1458 8008 c-6 -16 1 -38 12 -38 5 0 7 10 5 21 -6 28 -11 33 -17 17z"/>
<path d="M1160 4840 c0 -5 5 -10 11 -10 5 0 7 5 4 10 -3 6 -8 10 -11 10 -2 0
-4 -4 -4 -10z"/>
<path d="M895 4830 c4 -6 11 -8 16 -5 14 9 11 15 -7 15 -8 0 -12 -5 -9 -10z"/>
<path d="M1210 4600 c0 -5 5 -10 10 -10 6 0 10 5 10 10 0 6 -4 10 -10 10 -5 0
-10 -4 -10 -10z"/>
<path d="M2108 9503 c26 -4 32 -9 32 -29 0 -14 4 -23 9 -20 5 4 11 1 13 -5 7
-22 38 3 38 32 l0 29 -62 -2 c-35 0 -48 -3 -30 -5z"/>
<path d="M929 9496 c0 -1 -2 -9 -4 -19 -2 -10 -11 -24 -21 -31 -16 -12 -16
-13 1 -20 11 -4 24 -1 33 8 20 20 24 63 6 63 -8 0 -14 -1 -15 -1z"/>
<path d="M2532 9470 c2 -8 -2 -14 -9 -13 -7 2 -10 -4 -7 -12 4 -8 10 -15 16
-15 5 0 7 4 4 9 -4 5 0 11 6 14 10 4 10 7 0 18 -11 12 -13 12 -10 -1z"/>
<path d="M2566 9375 c-9 -26 -7 -32 5 -12 6 10 9 21 6 23 -2 3 -7 -2 -11 -11z"/>
<path d="M2065 9340 c-3 -5 -1 -10 4 -10 6 0 11 5 11 10 0 6 -2 10 -4 10 -3 0
-8 -4 -11 -10z"/>
<path d="M1050 9290 c0 -5 5 -10 10 -10 6 0 10 5 10 10 0 6 -4 10 -10 10 -5 0
-10 -4 -10 -10z"/>
<path d="M2105 9240 c3 -5 12 -7 20 -3 21 7 19 13 -6 13 -11 0 -18 -4 -14 -10z"/>
<path d="M2546 9235 c4 -8 8 -15 10 -15 2 0 4 7 4 15 0 8 -4 15 -10 15 -5 0
-7 -7 -4 -15z"/>
<path d="M1990 9206 c0 -8 5 -18 10 -21 6 -3 10 3 10 14 0 12 -4 21 -10 21 -5
0 -10 -6 -10 -14z"/>
<path d="M1990 9160 c0 -5 11 -10 24 -10 14 0 28 5 31 10 4 6 -7 10 -24 10
-17 0 -31 -4 -31 -10z"/>
<path d="M1228 9150 c-6 -17 6 -58 14 -44 3 5 2 20 -2 34 -4 18 -8 21 -12 10z"/>
<path d="M1880 9050 c-14 -3 -26 -13 -28 -21 -3 -16 22 -17 88 -3 24 5 24 6 5
17 -25 14 -34 15 -65 7z"/>
<path d="M1245 9040 c3 -5 12 -7 20 -3 21 7 19 13 -6 13 -11 0 -18 -4 -14 -10z"/>
<path d="M696 8955 c-11 -8 -34 -18 -52 -21 -53 -10 -107 -31 -97 -37 5 -3 38
-1 74 5 35 5 77 11 93 13 34 2 44 19 26 40 -15 18 -20 18 -44 0z"/>
<path d="M1891 8934 c0 -11 3 -14 6 -6 3 7 2 16 -1 19 -3 4 -6 -2 -5 -13z"/>
<path d="M1360 8910 c0 -5 5 -10 11 -10 5 0 7 5 4 10 -3 6 -8 10 -11 10 -2 0
-4 -4 -4 -10z"/>
<path d="M1390 8891 c0 -10 19 -25 25 -20 1 2 -3 10 -11 17 -8 7 -14 8 -14 3z"/>
<path d="M430 8875 c0 -9 6 -12 15 -9 8 4 15 10 15 15 0 5 -7 9 -15 9 -8 0
-15 -7 -15 -15z"/>
<path d="M1825 8810 c4 -6 11 -8 16 -5 14 9 11 15 -7 15 -8 0 -12 -5 -9 -10z"/>
<path d="M1425 8800 c-3 -5 -1 -10 4 -10 6 0 11 5 11 10 0 6 -2 10 -4 10 -3 0
-8 -4 -11 -10z"/>
<path d="M1895 8801 c-7 -12 12 -24 25 -16 11 7 4 25 -10 25 -5 0 -11 -4 -15
-9z"/>
<path d="M1847 8755 c-8 -18 11 -31 25 -17 11 11 3 32 -12 32 -4 0 -10 -7 -13
-15z"/>
<path d="M1315 8740 c-3 -5 -1 -18 5 -29 5 -11 10 -33 10 -49 0 -16 5 -43 11
-59 8 -26 17 -31 52 -36 55 -8 89 13 85 51 -2 21 -9 27 -28 28 -67 3 -70 4
-70 25 0 46 -48 97 -65 69z"/>
<path d="M1866 8682 c7 -45 8 -46 30 -38 13 5 15 9 6 18 -7 7 -12 20 -12 29 0
9 -7 19 -15 23 -12 4 -14 -2 -9 -32z"/>
<path d="M1392 8689 c2 -6 8 -10 13 -10 5 0 11 4 13 10 2 6 -4 11 -13 11 -9 0
-15 -5 -13 -11z"/>
<path d="M4810 7430 c0 -5 5 -10 10 -10 6 0 10 5 10 10 0 6 -4 10 -10 10 -5 0
-10 -4 -10 -10z"/>
<path d="M2075 6880 c-44 -8 -106 -51 -159 -112 -42 -48 -75 -112 -63 -124 11
-12 90 17 126 46 23 17 45 29 51 25 5 -3 8 0 5 7 -5 13 56 38 93 38 10 0 23 5
29 11 6 6 34 10 63 8 l51 -4 -28 22 c-15 13 -26 24 -23 24 24 7 66 3 72 -5 5
-7 13 -4 22 9 14 18 13 21 -2 33 -9 7 -28 11 -42 8 -14 -2 -34 2 -45 10 -19
14 -85 16 -150 4z"/>
<path d="M2345 6840 c3 -5 10 -10 16 -10 5 0 9 5 9 10 0 6 -7 10 -16 10 -8 0
-12 -4 -9 -10z"/>
<path d="M4355 6380 c-18 -8 -18 -9 -2 -9 14 -1 16 -5 8 -18 -7 -14 -33 -21
-113 -29 -132 -15 -167 -25 -234 -66 -44 -26 -51 -34 -35 -36 12 -2 25 -11 30
-20 8 -16 21 -83 24 -125 2 -21 25 -27 95 -24 35 1 55 -2 61 -11 6 -10 13 -11
34 -1 15 7 27 15 27 19 0 4 12 20 26 36 23 26 25 36 22 104 l-3 75 42 -1 c79
-1 136 -71 114 -137 -13 -35 -3 -52 35 -61 30 -8 54 8 54 35 0 16 41 51 73 62
4 1 12 19 16 39 7 30 6 38 -8 41 -14 4 -14 5 2 6 10 1 17 9 17 22 0 18 -5 20
-26 16 -20 -3 -28 0 -31 14 -11 41 -178 92 -228 69z m-168 -175 c-6 -18 -61
-12 -65 8 -5 25 39 40 56 19 7 -9 11 -21 9 -27z m8 -44 c3 -5 1 -12 -5 -16 -5
-3 -10 1 -10 9 0 18 6 21 15 7z m-119 -12 c13 -22 -12 -30 -31 -9 -18 19 -18
20 3 20 11 0 24 -5 28 -11z"/>
<path d="M2498 6363 c18 -2 45 -2 60 0 15 2 0 4 -33 4 -33 0 -45 -2 -27 -4z"/>
<path d="M2202 6335 c-61 -19 -126 -51 -141 -69 -18 -21 0 -21 45 0 44 21 54
13 16 -12 -29 -19 -102 -96 -102 -108 0 -3 14 -6 32 -6 17 0 39 -7 48 -15 18
-17 64 -9 56 10 -7 18 42 61 92 80 47 19 53 17 57 -18 2 -14 8 -34 15 -46 6
-12 8 -35 5 -51 -9 -42 0 -63 36 -79 23 -10 34 -10 42 -2 14 14 80 14 94 0 6
-6 25 -9 44 -7 29 3 34 8 40 36 8 39 -5 50 -32 26 -22 -20 -25 -8 -5 19 8 10
20 15 29 11 21 -8 30 40 17 86 -5 19 -10 36 -10 37 0 2 11 3 23 3 26 0 87 -41
127 -84 14 -15 41 -35 60 -44 19 -9 38 -21 42 -26 5 -7 8 -4 8 7 0 9 -6 17
-13 17 -6 0 -38 26 -69 58 -57 60 -76 74 -145 113 -33 19 -54 22 -153 22 -179
1 -228 -2 -236 -14 -4 -8 -9 -7 -15 2 -14 23 -10 39 9 39 10 0 22 4 28 9 5 5
27 11 49 14 l40 4 -45 1 c-25 0 -64 -5 -88 -13z m272 -141 c10 -25 7 -44 -6
-44 -6 0 -20 -7 -30 -17 -12 -11 -18 -12 -18 -3 0 6 -6 10 -14 7 -24 -9 -26
20 -5 47 23 29 64 35 73 10z m1 -94 c3 -5 -1 -10 -10 -10 -9 0 -13 5 -10 10 3
6 8 10 10 10 2 0 7 -4 10 -10z"/>
<path d="M2618 6343 c12 -2 30 -2 40 0 9 3 -1 5 -23 4 -22 0 -30 -2 -17 -4z"/>
<path d="M1420 6255 c0 -8 -7 -15 -15 -15 -9 0 -18 -8 -22 -17 -3 -10 -13 -26
-21 -35 -13 -16 -13 -20 1 -36 10 -10 17 -24 17 -30 0 -6 11 -19 25 -28 18
-12 22 -21 16 -33 -5 -11 -2 -22 10 -33 10 -10 20 -14 23 -10 3 5 2 114 -3
240 -1 17 -31 15 -31 -3z"/>
<path d="M1 6210 c-1 -20 3 -40 8 -45 5 -6 11 -19 14 -30 3 -13 5 -10 5 10 0
17 -6 46 -13 65 l-13 35 -1 -35z"/>
<path d="M4870 5424 c0 -9 20 -39 44 -67 136 -162 205 -404 206 -715 0 -173
-29 -382 -61 -444 -5 -10 -9 -25 -9 -33 0 -9 -7 -30 -16 -46 -14 -29 -17 -30
-33 -15 -20 18 -41 21 -41 6 0 -5 -4 -10 -10 -10 -5 0 -10 9 -10 20 0 12 7 20
18 20 39 0 46 16 24 51 -16 27 -19 46 -16 89 3 40 -1 64 -16 92 -11 21 -17 44
-14 51 6 17 -115 137 -138 137 -15 0 -18 9 -18 53 0 63 -11 79 -46 63 -13 -6
-24 -14 -24 -18 0 -5 -9 -8 -20 -8 -11 0 -20 2 -20 5 0 11 39 43 57 47 29 6
21 136 -13 206 -24 49 -25 55 -11 85 8 18 20 50 27 72 7 22 16 44 21 50 5 5 9
22 9 37 l0 28 -46 -46 c-26 -25 -49 -42 -53 -39 -3 4 1 12 9 18 9 7 29 30 45
52 17 22 32 42 35 45 3 3 13 24 22 48 24 62 -5 57 -35 -5 -12 -27 -25 -49 -29
-51 -5 -2 -8 -10 -8 -17 0 -7 -7 -15 -15 -19 -8 -3 -15 -12 -15 -19 0 -15
-147 -167 -161 -167 -5 0 -9 -6 -9 -13 0 -8 -12 -19 -27 -26 -100 -46 -98 -43
-99 -111 -1 -34 -6 -66 -12 -72 -6 -6 -8 -17 -5 -24 3 -8 -5 -35 -17 -61 -12
-25 -23 -63 -24 -84 -3 -42 -55 -140 -97 -183 -15 -16 -35 -44 -44 -63 -10
-20 -30 -41 -51 -50 -23 -12 -34 -23 -34 -39 0 -15 -8 -24 -24 -28 -14 -3 -28
-18 -36 -38 -29 -74 -54 -125 -74 -153 -23 -33 -56 -92 -80 -144 -31 -66 -106
-141 -173 -173 -34 -17 -63 -34 -63 -39 0 -5 -12 -9 -27 -9 -19 0 -24 -3 -16
-11 18 -18 125 26 223 93 74 49 93 59 101 47 5 -8 9 -18 9 -22 0 -5 5 -5 10
-2 6 3 10 2 10 -2 0 -8 23 -13 67 -16 7 0 10 -4 7 -9 -3 -4 1 -8 9 -8 9 0 17
-13 20 -32 8 -50 48 -192 58 -203 8 -11 -11 -144 -29 -201 -5 -17 -8 -44 -5
-60 3 -16 5 -47 6 -70 2 -39 27 -80 42 -66 3 4 4 -5 0 -19 -5 -21 0 -32 29
-61 29 -29 36 -43 36 -76 0 -23 -4 -44 -10 -47 -12 -8 -13 -65 -1 -65 5 0 11
12 14 28 14 67 19 88 27 107 61 151 79 209 85 275 4 41 11 107 15 145 27 225
33 270 35 273 1 2 34 -14 71 -35 65 -36 74 -38 151 -37 69 1 92 6 149 33 37
17 71 28 75 24 4 -4 13 -30 20 -58 6 -27 16 -58 21 -69 5 -10 11 -37 13 -60 4
-44 30 -120 63 -176 31 -54 55 -261 32 -275 -13 -8 -1 -35 16 -35 15 0 44 -50
44 -77 0 -11 20 -59 45 -108 49 -97 54 -128 28 -157 -14 -16 -18 -36 -22 -115
-1 -29 -31 -31 -31 -3 0 11 -4 20 -9 20 -18 0 -20 -17 -6 -36 8 -10 15 -40 15
-67 0 -46 1 -47 29 -45 46 3 61 -16 61 -82 0 -31 -7 -79 -15 -106 -8 -27 -15
-74 -15 -104 0 -50 5 -62 55 -133 55 -81 60 -104 22 -109 -23 -3 -24 -9 -11
-85 5 -33 2 -49 -16 -82 l-23 -40 41 -45 42 -45 -1 -178 c0 -142 3 -184 15
-209 9 -17 17 -51 17 -75 1 -24 12 -66 24 -94 12 -27 26 -70 30 -95 7 -47 29
-89 52 -103 18 -11 43 -73 43 -106 0 -14 -9 -43 -20 -64 -11 -20 -20 -38 -20
-40 0 -2 20 -24 45 -49 44 -45 45 -47 45 -112 0 -42 5 -68 13 -73 16 -10 36
-55 53 -122 8 -30 20 -61 27 -69 6 -8 16 -49 22 -91 l11 -76 118 -3 c117 -3
117 -3 114 20 -2 15 -11 24 -27 26 -17 3 -20 6 -11 12 10 6 10 17 -1 58 -10
42 -10 54 1 67 7 9 19 14 26 11 10 -4 9 3 -2 29 -18 45 -18 46 10 35 23 -8 23
-8 13 26 -9 29 -8 38 6 51 13 13 19 14 31 3 18 -14 22 -95 6 -105 -17 -11 -11
-52 14 -100 23 -43 24 -47 9 -74 -32 -55 -19 -61 137 -61 115 0 140 3 140 14
0 8 -4 18 -10 21 -5 3 -10 14 -10 23 0 10 -8 33 -18 52 -11 19 -31 67 -46 107
-19 49 -42 87 -72 118 -43 45 -53 68 -35 79 12 8 4 171 -10 215 -7 20 -28 67
-47 105 -33 65 -34 71 -22 105 19 53 15 166 -9 205 -10 17 -24 51 -31 76 -6
25 -21 55 -33 68 -19 21 -20 26 -9 67 7 25 12 63 12 84 0 87 -81 234 -112 203
-7 -7 -16 -12 -20 -12 -16 0 -7 32 15 53 36 33 50 66 53 122 3 51 -20 148 -42
175 -6 8 -15 26 -19 40 -10 34 -24 50 -39 44 -7 -3 -18 8 -25 23 -11 25 -10
29 22 57 46 40 56 100 41 236 -4 34 -15 66 -29 85 -36 48 -39 70 -14 117 12
24 26 51 31 61 5 11 5 24 0 30 -4 7 -14 31 -22 54 -12 38 -65 102 -114 136
-15 11 -18 21 -12 51 6 34 10 37 31 32 27 -7 43 10 26 27 -6 6 -11 27 -11 47
0 27 -5 38 -22 45 -13 6 -25 19 -27 30 -6 31 -50 83 -92 107 -37 21 -47 37
-32 52 4 4 15 32 25 64 13 43 16 74 11 130 -5 67 -9 77 -42 112 -95 101 -121
132 -121 140 0 4 -15 18 -34 29 -43 27 -51 47 -31 78 19 29 23 169 6 186 -6 6
-11 17 -11 25 0 8 -11 25 -25 38 -15 14 -22 29 -19 39 5 11 2 14 -10 9 -9 -3
-28 1 -42 11 -28 18 -28 18 1 120 47 166 53 219 48 425 -4 118 -2 199 3 203
12 7 0 173 -17 237 -46 178 -139 359 -216 420 -31 24 -43 25 -43 4z m-240
-654 c0 -5 -5 -10 -11 -10 -5 0 -7 5 -4 10 3 6 8 10 11 10 2 0 4 -4 4 -10z
m-213 -26 c-3 -3 -12 -4 -19 -1 -8 3 -5 6 6 6 11 1 17 -2 13 -5z m9 -342 c11
-20 26 -36 33 -34 6 1 18 -13 26 -31 8 -19 21 -39 29 -47 9 -7 16 -19 16 -27
0 -8 11 -28 24 -43 12 -15 35 -68 50 -116 15 -49 35 -105 46 -126 11 -20 29
-60 41 -90 11 -29 36 -78 55 -109 19 -31 34 -59 34 -62 0 -12 -88 -58 -139
-73 -120 -35 -273 45 -301 159 -6 23 -20 75 -31 114 -11 40 -19 83 -18 95 2
13 -6 43 -18 68 -12 25 -27 73 -33 107 l-13 62 51 59 c29 33 59 65 68 73 9 7
20 23 25 36 12 33 31 28 55 -15z m260 -82 c8 0 14 -4 14 -9 0 -10 -51 -22 -62
-15 -13 8 4 35 19 30 8 -3 21 -6 29 -6z m-111 -30 c3 -5 -1 -10 -9 -10 -9 0
-16 5 -16 10 0 6 4 10 9 10 6 0 13 -4 16 -10z m155 -45 c0 -8 -9 -19 -20 -25
-15 -8 -20 -8 -20 3 0 14 19 37 32 37 4 0 8 -7 8 -15z m50 -15 c0 -5 -2 -10
-4 -10 -3 0 -8 5 -11 10 -3 6 -1 10 4 10 6 0 11 -4 11 -10z m20 -74 c0 -7 -7
-19 -15 -26 -13 -11 -15 -9 -11 11 3 13 5 25 5 27 3 9 21 -1 21 -12z m124 -77
c-3 -5 -10 -7 -15 -3 -5 3 -7 10 -3 15 3 5 10 7 15 3 5 -3 7 -10 3 -15z m-77
-25 c-3 -3 -12 -4 -19 -1 -8 3 -5 6 6 6 11 1 17 -2 13 -5z m63 -4 c0 -5 -4
-10 -10 -10 -5 0 -10 5 -10 10 0 6 5 10 10 10 6 0 10 -4 10 -10z m30 -65 c0
-8 -4 -15 -9 -15 -13 0 -22 16 -14 24 11 11 23 6 23 -9z m-70 -150 c0 -8 -7
-15 -15 -15 -16 0 -20 12 -8 23 11 12 23 8 23 -8z m170 -61 c22 -20 40 -43 40
-52 0 -13 -4 -12 -22 5 -13 11 -40 23 -60 26 l-38 6 0 -57 -1 -57 -13 38 c-8
20 -19 44 -26 52 -18 21 -4 48 21 42 13 -4 24 1 32 14 16 26 21 25 67 -17z
m-754 -86 c25 -24 29 -118 9 -195 -23 -89 -37 -123 -52 -123 -21 0 -26 65 -14
181 7 73 7 117 1 129 -6 10 -10 21 -10 23 0 11 53 -1 66 -15z m728 -18 c12 0
28 6 35 13 10 10 15 8 27 -7 21 -29 18 -34 -18 -38 -39 -4 -78 17 -77 41 0 10
2 11 6 4 2 -7 15 -13 27 -13z m90 -119 c19 -21 14 -41 -9 -41 -13 0 -25 21
-25 46 0 20 14 18 34 -5z m-54 -132 c0 -18 -2 -19 -15 -9 -8 7 -15 16 -15 21
0 5 7 9 15 9 9 0 15 -9 15 -21z m95 -19 c3 -5 1 -10 -4 -10 -6 0 -11 5 -11 10
0 6 2 10 4 10 3 0 8 -4 11 -10z m-5 -75 c0 -7 10 -15 22 -17 13 -2 24 -11 26
-23 6 -31 50 -69 66 -56 15 13 26 5 26 -19 0 -10 8 -28 19 -41 20 -27 33 -77
20 -84 -4 -3 -3 -20 2 -38 11 -41 11 -47 -1 -47 -6 0 -15 11 -20 25 -5 14 -16
25 -25 25 -11 0 -15 11 -15 44 0 34 -3 43 -16 42 -9 0 -19 5 -22 13 -3 9 1 11
17 6 30 -9 26 11 -6 32 -47 31 -77 67 -75 89 2 16 -4 23 -22 28 -25 6 -34 25
-20 39 10 9 24 -2 24 -18z m98 -23 c2 -7 -3 -12 -12 -12 -9 0 -16 7 -16 16 0
17 22 14 28 -4z m157 8 c3 -5 -1 -10 -9 -10 -9 0 -16 5 -16 10 0 6 4 10 9 10
6 0 13 -4 16 -10z m-267 -103 c5 -23 -27 -22 -44 1 -20 26 -17 31 14 23 15 -4
28 -15 30 -24z m242 13 c0 -5 -7 -10 -15 -10 -8 0 -15 5 -15 10 0 6 7 10 15
10 8 0 15 -4 15 -10z m-170 -105 c7 -9 10 -18 7 -21 -9 -9 -48 16 -42 27 9 13
21 11 35 -6z m40 -140 c0 -8 -4 -15 -9 -15 -5 0 -14 7 -21 15 -10 13 -9 15 9
15 12 0 21 -6 21 -15z m15 -55 c3 -5 -1 -10 -9 -10 -9 0 -16 5 -16 10 0 6 4
10 9 10 6 0 13 -4 16 -10z m-175 -42 c0 -19 -2 -20 -10 -8 -13 19 -13 30 0 30
6 0 10 -10 10 -22z m248 -11 c2 -10 -3 -17 -12 -17 -10 0 -16 9 -16 21 0 24
23 21 28 -4z m-78 -16 c14 -28 12 -51 -5 -51 -16 0 -48 54 -38 64 12 12 32 6
43 -13z m-66 -100 c-11 -11 -36 29 -29 46 6 16 9 14 20 -12 7 -16 11 -32 9
-34z m186 -26 c0 -10 -10 -15 -27 -15 -27 1 -27 1 -9 15 25 19 36 19 36 0z
m-102 -53 c2 -7 -3 -12 -12 -12 -9 0 -16 7 -16 16 0 17 22 14 28 -4z m87 -58
c26 -17 34 -44 13 -44 -16 0 -48 31 -48 47 0 17 5 16 35 -3z m125 -18 c0 -3
-4 -8 -10 -11 -5 -3 -10 -1 -10 4 0 6 5 11 10 11 6 0 10 -2 10 -4z m-10 -86
c0 -12 -25 -30 -42 -30 -16 0 -17 -6 -12 -40 4 -24 2 -45 -4 -53 -8 -9 -8 -24
-1 -50 10 -38 23 -47 32 -23 7 18 47 28 47 12 0 -18 -37 -49 -49 -42 -15 10
-22 -10 -12 -36 10 -28 -4 -72 -21 -65 -7 2 -20 -2 -29 -10 -30 -25 -58 4 -59
61 0 11 5 16 13 13 47 -20 47 -20 47 5 0 14 -11 34 -26 47 -15 13 -23 28 -20
37 3 9 6 19 6 24 0 5 10 10 22 12 28 4 35 28 10 35 -16 4 -41 52 -30 57 35 15
63 39 64 53 2 43 4 44 34 21 17 -12 30 -25 30 -28z m81 -36 c-2 -10 -4 -32 -5
-49 -2 -45 -13 -55 -62 -55 -42 0 -44 1 -44 29 0 32 19 44 56 35 21 -5 24 -3
24 23 0 16 3 33 7 37 12 12 28 -1 24 -20z m-258 -131 c3 -5 8 -28 12 -53 l7
-45 -31 29 c-36 34 -42 76 -12 76 11 0 22 -3 24 -7z m-53 -84 c7 -11 9 -28 5
-37 -6 -15 -8 -15 -21 2 -16 23 -19 56 -4 56 5 0 14 -9 20 -21z m80 -89 c9 0
25 -59 17 -66 -9 -10 -35 8 -46 32 -15 34 -14 47 5 40 9 -3 19 -6 24 -6z m217
-205 c6 -16 -22 -44 -43 -45 -13 0 -23 29 -17 48 6 17 52 15 60 -3z m-182 -47
c6 -14 23 -25 44 -29 28 -6 34 -4 39 13 3 12 10 17 19 14 8 -3 19 -6 24 -6 10
0 13 -53 3 -63 -4 -3 -15 -2 -25 4 -20 10 -28 -4 -9 -16 6 -4 7 -11 4 -17 -4
-5 3 -23 15 -39 26 -35 26 -39 2 -39 -14 0 -17 -6 -13 -25 5 -29 14 -31 32
-10 14 17 40 20 40 5 0 -21 -47 -34 -78 -21 -37 16 -96 122 -88 157 5 17 1 26
-14 34 -12 6 -20 21 -20 35 0 31 12 32 25 3z m-45 -65 c0 -12 -2 -12 -15 1 -8
8 -15 20 -15 27 0 9 4 8 15 -1 8 -7 15 -19 15 -27z m290 -190 c-1 -10 -8 -29
-16 -43 l-15 -25 5 25 c3 14 6 33 6 43 0 9 5 17 10 17 6 0 10 -8 10 -17z m-22
-97 c6 -27 -17 -47 -39 -35 -23 12 -24 23 -3 44 19 19 38 15 42 -9z m45 -38
c5 -16 -10 -48 -24 -48 -16 0 -22 29 -9 45 15 18 27 19 33 3z m-203 -54 c0 -8
-4 -12 -10 -9 -5 3 -10 10 -10 16 0 5 5 9 10 9 6 0 10 -7 10 -16z m70 -93 c0
-22 -29 -36 -43 -22 -7 7 -6 15 3 26 17 21 40 19 40 -4z m150 -97 c0 -8 -7
-14 -15 -14 -15 0 -21 21 -9 33 10 9 24 -2 24 -19z m-144 -139 c14 -35 28 -41
78 -35 22 2 36 -16 36 -47 0 -27 -19 -29 -59 -9 -15 8 -38 12 -49 9 -22 -5
-26 1 -23 43 1 11 -7 28 -19 39 -26 23 -26 35 1 35 13 0 25 -11 35 -35z m153
-159 l-1 -31 -13 30 c-20 42 -20 61 0 45 8 -7 15 -27 14 -44z m-81 21 c6 -5
12 -21 12 -34 0 -22 -2 -24 -15 -13 -12 10 -18 10 -30 0 -13 -11 -18 -10 -30
6 -8 10 -15 29 -15 41 0 20 4 22 33 16 17 -3 38 -10 45 -16z m5 -130 c20 -7
23 -47 4 -47 -21 0 -57 39 -57 62 0 19 2 20 18 6 9 -8 25 -18 35 -21z m23
-134 c13 -16 24 -33 24 -40 0 -6 16 -17 35 -23 37 -12 43 -28 23 -60 -11 -16
-10 -28 3 -64 15 -42 15 -45 -3 -49 -12 -3 -18 -14 -18 -31 0 -56 -88 -6 -104
60 -9 34 -2 40 29 26 56 -26 69 -10 33 39 -16 21 -21 41 -19 68 2 30 -3 42
-21 57 -34 27 -43 44 -22 44 9 0 27 -12 40 -27z m194 1 c0 -16 -23 -44 -35
-44 -15 0 -21 31 -8 43 8 8 43 9 43 1z m60 -306 c0 -5 -11 -21 -25 -36 -14
-15 -25 -32 -25 -39 0 -7 -2 -13 -4 -13 -2 0 -11 -3 -20 -6 -23 -9 -20 25 4
56 11 14 20 33 20 42 0 9 6 18 13 21 13 5 37 -11 37 -25z m-154 -406 c-12 -11
-36 9 -36 30 l1 23 20 -24 c11 -13 17 -26 15 -29z"/>
<path d="M5425 1821 c-3 -5 -1 -12 5 -16 5 -3 10 1 10 9 0 18 -6 21 -15 7z"/>
<path d="M4800 5355 c0 -8 2 -15 4 -15 2 0 6 7 10 15 3 8 1 15 -4 15 -6 0 -10
-7 -10 -15z"/>
<path d="M3774 5256 c-44 -19 -56 -41 -18 -32 84 20 104 28 99 36 -9 14 -44
12 -81 -4z"/>
<path d="M2973 5238 c-25 -33 -24 -37 14 -32 102 13 105 14 93 30 -15 17 -94
19 -107 2z"/>
<path d="M4281 4867 c-8 -11 -9 -17 -1 -22 15 -9 2 -25 -15 -18 -11 4 -15 -2
-15 -20 0 -53 45 -44 53 10 8 46 -4 71 -22 50z"/>
<path d="M4183 4766 c11 -28 -11 -46 -55 -46 -21 0 -51 -6 -66 -14 -33 -16
-144 -33 -277 -41 -117 -7 -135 -11 -135 -30 0 -18 -69 -37 -130 -37 -38 0
-47 -4 -57 -24 -10 -21 -9 -24 7 -24 10 0 30 4 45 10 42 16 315 54 315 44 0
-15 -22 -44 -31 -39 -5 4 -9 -1 -9 -9 0 -9 5 -16 12 -16 7 0 5 -7 -5 -17 -46
-49 -66 -80 -56 -90 7 -7 2 -13 -18 -18 -24 -6 -25 -8 -10 -16 25 -14 21 -26
-10 -34 -24 -6 -25 -8 -11 -16 34 -19 121 26 228 119 45 39 49 39 42 7 -3 -18
0 -25 12 -25 9 0 16 4 16 8 0 5 11 14 25 20 14 7 28 20 32 29 3 10 12 25 20
35 10 11 11 18 4 23 -19 11 -12 35 14 45 15 6 25 17 25 30 0 21 34 48 71 55
13 3 25 9 27 14 2 5 12 19 23 32 10 12 19 26 19 31 0 12 -28 10 -35 -2 -5 -8
-12 -7 -23 2 -14 11 -15 10 -9 -6z"/>
<path d="M5156 4747 c-5 -10 -5 -70 0 -135 8 -105 9 -110 12 -49 5 105 -2 205
-12 184z"/>
<path d="M3455 4640 c-19 -8 -19 -9 3 -9 12 -1 22 4 22 9 0 6 -1 10 -2 9 -2 0
-12 -4 -23 -9z"/>
<path d="M3391 4620 c-7 -4 -12 -13 -10 -19 3 -8 10 -8 23 2 21 15 9 31 -13
17z"/>
<path d="M3360 4545 c-11 -13 -8 -15 19 -15 29 0 31 2 17 15 -8 8 -17 15 -19
15 -3 0 -10 -7 -17 -15z"/>
<path d="M6863 4486 c11 -75 36 -358 57 -630 19 -257 29 -306 62 -306 11 0 10
21 -11 270 -5 63 -17 207 -26 320 -8 113 -18 237 -21 275 -7 82 -20 115 -47
115 -18 0 -19 -5 -14 -44z"/>
<path d="M6984 4235 c-4 -8 2 -120 11 -248 10 -127 21 -286 24 -353 4 -87 11
-127 23 -145 18 -28 79 -63 89 -51 5 6 -14 226 -36 406 -15 133 -25 236 -25
279 0 52 -24 98 -61 117 -15 9 -21 7 -25 -5z"/>
<path d="M3538 3643 c7 -3 16 -2 19 1 4 3 -2 6 -13 5 -11 0 -14 -3 -6 -6z"/>
<path d="M5617 3521 c3 -13 11 -17 24 -14 23 6 25 19 3 27 -26 10 -32 7 -27
-13z"/>
<path d="M5413 3503 c-21 -8 -15 -38 12 -63 20 -19 25 -20 25 -7 0 9 -4 18 -9
21 -4 3 -6 17 -3 31 4 25 -1 28 -25 18z"/>
<path d="M5681 3364 c-12 -14 -11 -16 4 -12 10 1 20 9 23 16 5 17 -10 15 -27
-4z"/>
<path d="M5450 3360 c0 -5 5 -10 10 -10 6 0 10 5 10 10 0 6 -4 10 -10 10 -5 0
-10 -4 -10 -10z"/>
<path d="M5476 3331 c-5 -7 -3 -18 3 -24 14 -14 20 -6 11 17 -5 15 -9 16 -14
7z"/>
<path d="M5546 3255 c-11 -8 -17 -17 -14 -21 4 -3 16 4 27 15 24 24 15 28 -13
6z"/>
<path d="M5821 3215 c0 -5 9 -21 20 -34 15 -18 23 -21 31 -13 8 8 5 14 -14 21
-14 5 -28 16 -31 23 -3 7 -6 9 -6 3z"/>
<path d="M5905 2920 c-5 -15 -12 -19 -23 -15 -10 4 -26 10 -37 13 -18 4 -17 2
5 -20 14 -13 28 -23 32 -21 14 7 66 -30 71 -49 3 -10 12 -18 21 -18 22 0 20
37 -3 43 -11 3 -22 19 -27 42 -11 44 -29 56 -39 25z"/>
<path d="M5600 2860 c0 -5 7 -10 15 -10 8 0 15 5 15 10 0 6 -7 10 -15 10 -8 0
-15 -4 -15 -10z"/>
<path d="M4368 2803 c7 -3 16 -2 19 1 4 3 -2 6 -13 5 -11 0 -14 -3 -6 -6z"/>
<path d="M4157 2787 c-11 -29 -9 -53 4 -40 6 6 9 21 7 34 -3 21 -4 22 -11 6z"/>
<path d="M4390 2780 c0 -5 5 -10 10 -10 6 0 10 5 10 10 0 6 -4 10 -10 10 -5 0
-10 -4 -10 -10z"/>
<path d="M713 2700 c0 -34 11 -39 28 -11 7 11 19 16 31 13 10 -2 18 1 18 7 0
6 -11 11 -24 11 -13 0 -31 2 -39 5 -10 4 -14 -2 -14 -25z"/>
<path d="M4132 2677 c-15 -64 -15 -90 -2 -82 6 3 10 22 10 41 0 20 5 45 11 56
6 11 7 24 2 29 -5 5 -14 -14 -21 -44z"/>
<path d="M5995 2655 c-4 -22 -12 -45 -17 -52 -6 -7 -6 -18 -1 -28 8 -13 11
-14 20 -3 15 19 23 80 13 103 -6 17 -9 13 -15 -20z"/>
<path d="M5012 2650 c2 -6 7 -11 11 -11 4 1 17 1 29 1 27 0 21 5 -15 14 -20 5
-28 3 -25 -4z"/>
<path d="M4996 2585 c-3 -9 0 -15 9 -15 16 0 20 16 6 24 -5 3 -11 -1 -15 -9z"/>
<path d="M4106 2558 c-3 -13 -1 -27 4 -32 7 -7 10 1 10 22 0 37 -5 41 -14 10z"/>
<path d="M5955 2542 c35 -38 35 -37 35 -13 0 10 -8 21 -17 25 -10 3 -25 9 -33
13 -8 3 -1 -8 15 -25z"/>
<path d="M4965 2550 c3 -5 8 -10 11 -10 2 0 4 5 4 10 0 6 -5 10 -11 10 -5 0
-7 -4 -4 -10z"/>
<path d="M2260 2515 c0 -8 7 -15 16 -15 14 0 14 3 4 15 -7 8 -14 15 -16 15 -2
0 -4 -7 -4 -15z"/>
<path d="M4440 2515 c-10 -12 -10 -15 4 -15 9 0 16 7 16 15 0 8 -2 15 -4 15
-2 0 -9 -7 -16 -15z"/>
<path d="M6122 2510 c0 -14 2 -19 5 -12 2 6 2 18 0 25 -3 6 -5 1 -5 -13z"/>
<path d="M715 2500 c3 -5 8 -10 11 -10 2 0 4 5 4 10 0 6 -5 10 -11 10 -5 0 -7
-4 -4 -10z"/>
<path d="M2322 2474 c3 -17 21 -21 26 -6 1 5 -4 12 -13 16 -11 4 -15 1 -13
-10z"/>
<path d="M714 2468 c-4 -6 1 -17 11 -24 23 -17 29 -12 20 15 -7 23 -20 27 -31
9z"/>
<path d="M4586 2445 c-6 -17 43 -30 57 -16 10 10 8 11 -37 25 -8 3 -17 -1 -20
-9z"/>
<path d="M2358 2433 c7 -3 16 -2 19 1 4 3 -2 6 -13 5 -11 0 -14 -3 -6 -6z"/>
<path d="M760 2411 c0 -17 18 -21 24 -6 3 9 0 15 -9 15 -8 0 -15 -4 -15 -9z"/>
<path d="M4156 2389 c-20 -39 -20 -43 -1 -36 8 4 17 2 20 -3 4 -6 18 -7 33 -4
44 11 49 18 17 24 -17 3 -34 15 -41 28 l-12 24 -16 -33z"/>
<path d="M4597 2402 c-12 -2 -16 -9 -13 -19 3 -8 6 -20 6 -26 1 -7 8 1 16 16
17 32 17 35 -9 29z"/>
<path d="M1340 2374 c0 -9 5 -14 12 -12 18 6 21 28 4 28 -9 0 -16 -7 -16 -16z"/>
<path d="M6180 2380 c0 -5 5 -10 11 -10 5 0 7 5 4 10 -3 6 -8 10 -11 10 -2 0
-4 -4 -4 -10z"/>
<path d="M4570 2320 c-9 -16 -8 -20 5 -20 9 0 15 -6 12 -12 -2 -7 -13 -12 -24
-10 -11 2 -23 -4 -26 -13 -5 -12 2 -15 33 -15 41 0 60 14 41 33 -6 6 -11 21
-11 34 0 28 -16 30 -30 3z"/>
<path d="M2281 2314 c0 -11 3 -14 6 -6 3 7 2 16 -1 19 -3 4 -6 -2 -5 -13z"/>
<path d="M4180 2285 c0 -19 0 -37 0 -40 0 -3 3 -4 8 -2 4 1 6 12 4 24 -1 12 2
24 8 28 15 9 12 25 -5 25 -10 0 -15 -11 -15 -35z"/>
<path d="M4507 2233 c-4 -3 -7 -15 -7 -27 0 -20 0 -20 15 0 8 10 15 22 15 27
0 9 -14 9 -23 0z"/>
<path d="M4150 2194 c0 -8 5 -12 10 -9 6 3 10 10 10 16 0 5 -4 9 -10 9 -5 0
-10 -7 -10 -16z"/>
<path d="M4750 2169 c0 -5 11 -9 25 -9 14 0 25 -4 25 -10 0 -5 7 -10 15 -10
18 0 20 16 3 26 -17 11 -68 13 -68 3z"/>
<path d="M4480 2160 c0 -5 5 -10 10 -10 6 0 10 5 10 10 0 6 -4 10 -10 10 -5 0
-10 -4 -10 -10z"/>
<path d="M4706 2124 c-4 -9 -4 -19 -2 -21 8 -8 26 8 26 23 0 19 -16 18 -24 -2z"/>
<path d="M3630 2120 c0 -5 14 -10 32 -10 36 0 35 4 -4 14 -17 4 -28 2 -28 -4z"/>
<path d="M4846 2105 c4 -8 10 -15 15 -15 4 0 6 7 3 15 -4 8 -10 15 -15 15 -4
0 -6 -7 -3 -15z"/>
<path d="M6080 2101 c0 -21 45 -55 60 -46 5 3 18 -3 30 -15 30 -30 59 -27 52
5 -3 21 -7 23 -18 14 -8 -7 -18 -9 -22 -5 -4 4 1 13 11 20 9 7 17 21 17 30 0
18 -15 22 -25 6 -16 -26 -43 -30 -68 -10 -31 25 -37 25 -37 1z"/>
<path d="M2610 2054 c0 -3 9 -26 21 -52 11 -26 24 -56 28 -67 5 -11 25 -57 45
-102 36 -82 45 -123 26 -123 -5 0 -10 -7 -10 -15 0 -18 26 -20 33 -2 8 19 19
-1 87 -171 34 -86 68 -171 76 -189 8 -17 14 -37 14 -44 0 -23 63 -174 78 -186
8 -6 11 -17 7 -23 -4 -6 0 -22 9 -35 9 -13 16 -32 16 -41 0 -12 6 -15 25 -12
27 6 33 -10 13 -30 -16 -16 2 -73 58 -181 26 -53 55 -132 74 -206 18 -69 40
-129 51 -141 10 -11 19 -33 19 -49 0 -27 -1 -28 -20 -10 -17 16 -20 16 -26 2
-3 -8 -1 -24 5 -34 5 -11 13 -42 17 -71 6 -46 4 -53 -20 -77 -32 -32 -32 -40
-2 -61 28 -18 59 -66 70 -107 4 -18 13 -27 27 -27 11 0 18 3 16 8 -19 32 -36
84 -41 117 -3 22 -8 54 -11 72 -6 24 -2 36 14 52 12 12 28 21 36 21 8 0 15 5
15 10 0 17 17 11 41 -15 31 -32 41 -32 33 0 -4 18 -2 25 8 25 8 0 18 -17 24
-42 5 -23 15 -44 22 -46 11 -3 12 9 7 64 -4 38 -10 73 -14 77 -4 4 -19 -2 -33
-13 -35 -27 -79 -25 -99 3 -26 36 -48 115 -64 232 -9 65 -25 129 -38 155 -12
25 -20 52 -19 60 1 8 -12 23 -29 33 -26 14 -29 20 -19 32 7 8 21 15 32 15 28
0 32 24 9 61 -28 45 -26 78 5 114 23 27 24 30 8 42 -10 7 -23 13 -28 13 -17 1
-63 44 -64 61 -6 84 -22 114 -48 90 -5 -4 -23 -11 -40 -14 -36 -7 -39 -3 -80
113 -14 41 -30 80 -34 85 -4 6 -10 23 -14 39 -4 16 -28 72 -53 124 -38 80 -45
102 -40 138 5 45 -6 63 -45 77 -10 4 -18 12 -18 19 0 7 -13 26 -30 41 -16 16
-30 37 -30 48 0 10 -4 19 -10 19 -5 0 -10 18 -10 39 0 32 -6 44 -31 65 -29 25
-49 33 -49 20z m500 -859 c0 -8 -7 -15 -16 -15 -14 0 -14 3 -4 15 7 8 14 15
16 15 2 0 4 -7 4 -15z m15 -69 c12 -8 18 -25 17 -46 0 -19 3 -42 9 -51 14 -27
-7 -33 -25 -7 -9 12 -16 30 -16 40 0 10 -11 28 -25 40 -14 12 -25 25 -25 30 0
13 44 9 65 -6z m73 -74 c2 -7 -3 -12 -12 -12 -9 0 -16 7 -16 16 0 17 22 14 28
-4z m89 -908 c-3 -3 -12 -4 -19 -1 -8 3 -5 6 6 6 11 1 17 -2 13 -5z"/>
<path d="M6077 2053 c-14 -13 -6 -33 13 -33 11 0 20 4 20 9 0 13 -26 32 -33
24z"/>
<path d="M4682 2033 c17 -36 45 -73 56 -73 20 0 14 31 -7 37 -11 3 -21 13 -24
24 -3 10 -10 19 -17 19 -6 0 -10 -3 -8 -7z"/>
<path d="M4823 2025 c-3 -9 -3 -18 0 -21 9 -9 27 6 27 22 0 19 -19 18 -27 -1z"/>
<path d="M792 1986 c2 -20 1 -37 -3 -38 -3 -2 -9 -13 -13 -25 -11 -33 19 -19
33 15 19 47 18 76 -3 80 -16 3 -18 -1 -14 -32z"/>
<path d="M6011 1999 c-18 -7 -22 -14 -16 -32 3 -12 9 -32 12 -44 3 -13 9 -23
14 -23 12 0 11 37 -1 45 -16 10 -12 38 5 32 17 -7 31 11 19 23 -5 4 -20 4 -33
-1z"/>
<path d="M6251 1983 c7 -10 14 -19 15 -21 1 -1 9 1 19 4 15 6 15 8 -6 20 -33
18 -44 17 -28 -3z"/>
<path d="M4775 1960 c-3 -5 -2 -10 4 -10 5 0 13 5 16 10 3 6 2 10 -4 10 -5 0
-13 -4 -16 -10z"/>
<path d="M655 1940 c-3 -6 -3 -19 0 -30 10 -31 -12 -85 -40 -100 -24 -13 -35
-40 -15 -40 5 0 12 -16 16 -35 8 -46 21 -53 26 -15 3 19 0 30 -8 30 -6 0 -15
7 -18 16 -5 13 -2 15 13 11 20 -5 31 10 31 43 0 10 7 21 16 24 10 4 14 14 11
25 -2 10 1 18 7 18 32 -1 44 5 54 28 13 29 16 45 4 30 -23 -32 -39 -35 -65
-15 -16 13 -28 16 -32 10z"/>
<path d="M6290 1911 c0 -6 5 -13 10 -16 6 -3 10 1 10 9 0 9 -4 16 -10 16 -5 0
-10 -4 -10 -9z"/>
<path d="M4108 1895 c-8 -8 3 -55 13 -55 17 0 22 31 7 46 -8 8 -17 12 -20 9z"/>
<path d="M4056 1875 c-3 -8 -1 -15 4 -15 6 0 10 7 10 15 0 8 -2 15 -4 15 -2 0
-6 -7 -10 -15z"/>
<path d="M4320 1879 c0 -5 5 -7 10 -4 6 3 10 8 10 11 0 2 -4 4 -10 4 -5 0 -10
-5 -10 -11z"/>
<path d="M6010 1840 c0 -5 7 -10 15 -10 8 0 15 5 15 10 0 6 -7 10 -15 10 -8 0
-15 -4 -15 -10z"/>
<path d="M6300 1836 c0 -8 5 -18 10 -21 6 -3 10 1 10 9 0 8 -4 18 -10 21 -5 3
-10 -1 -10 -9z"/>
<path d="M4002 1790 c0 -14 2 -19 5 -12 2 6 2 18 0 25 -3 6 -5 1 -5 -13z"/>
<path d="M4300 1789 c0 -5 5 -7 10 -4 6 3 10 8 10 11 0 2 -4 4 -10 4 -5 0 -10
-5 -10 -11z"/>
<path d="M6030 1776 c0 -2 7 -7 16 -10 8 -3 12 -2 9 4 -6 10 -25 14 -25 6z"/>
<path d="M6280 1760 c0 -22 1 -23 24 -14 13 5 14 9 5 20 -16 20 -29 17 -29 -6z"/>
<path d="M6335 1770 c-3 -5 1 -10 9 -10 9 0 16 5 16 10 0 6 -4 10 -9 10 -6 0
-13 -4 -16 -10z"/>
<path d="M3997 1734 c-8 -23 0 -54 14 -54 10 0 10 14 0 50 -7 24 -8 24 -14 4z"/>
<path d="M4200 1735 c0 -8 7 -15 15 -15 8 0 15 7 15 15 0 8 -7 15 -15 15 -8 0
-15 -7 -15 -15z"/>
<path d="M6065 1740 c-3 -5 -1 -18 5 -29 5 -11 10 -34 10 -52 0 -26 2 -29 14
-19 12 9 12 17 4 35 -8 18 -8 28 0 38 8 10 6 16 -8 25 -12 7 -21 8 -25 2z"/>
<path d="M4055 1731 c-3 -5 -1 -12 5 -16 5 -3 10 1 10 9 0 18 -6 21 -15 7z"/>
<path d="M4516 1725 c-7 -20 41 -72 55 -58 7 7 0 20 -19 41 -23 25 -31 28 -36
17z"/>
<path d="M6223 1719 c17 -10 25 -59 9 -59 -5 0 -14 12 -21 26 -10 22 -14 24
-27 14 -11 -10 -20 -10 -39 -2 -23 11 -25 10 -25 -13 0 -22 2 -24 25 -13 21 9
29 7 59 -16 44 -33 49 -33 51 1 2 16 6 38 10 51 7 20 4 22 -26 22 -28 -1 -31
-2 -16 -11z"/>
<path d="M4650 1705 c-7 -8 -18 -15 -26 -15 -18 0 -28 -20 -16 -32 6 -6 15 -4
25 6 19 20 27 20 27 1 0 -7 -7 -18 -15 -23 -13 -7 -11 -11 10 -22 18 -9 25
-22 25 -42 0 -22 4 -27 21 -25 29 3 36 -19 10 -28 -22 -7 -28 -29 -11 -40 6
-3 10 -2 10 4 0 5 12 23 26 40 27 32 25 51 -5 51 -32 0 -53 35 -54 90 -1 52
-6 60 -27 35z"/>
<path d="M4493 1660 c-9 -25 -9 -30 3 -30 9 0 14 11 14 30 0 17 -1 30 -3 30
-1 0 -8 -13 -14 -30z"/>
<path d="M626 1669 c-20 -72 -24 -94 -18 -100 28 -27 132 9 132 45 0 30 -36
51 -57 34 -13 -10 -18 -9 -34 11 -13 16 -20 19 -23 10z"/>
<path d="M4445 1610 c-3 -5 -17 -10 -31 -10 -20 0 -24 -5 -23 -27 0 -16 4 -37
8 -48 8 -19 8 -19 20 3 7 14 8 22 1 22 -5 0 -10 9 -10 20 0 15 7 20 25 20 16
0 25 6 25 15 0 17 -6 19 -15 5z"/>
<path d="M6672 1568 c5 -32 28 -35 28 -4 0 17 -5 26 -16 26 -10 0 -14 -7 -12
-22z"/>
<path d="M2370 1555 c0 -8 4 -15 10 -15 5 0 7 7 4 15 -4 8 -8 15 -10 15 -2 0
-4 -7 -4 -15z"/>
<path d="M657 1519 c-11 -38 -8 -47 14 -54 23 -8 39 8 39 39 0 12 -5 16 -15
12 -8 -3 -18 2 -23 11 -8 13 -10 11 -15 -8z"/>
<path d="M2346 1511 c-4 -7 -5 -15 -2 -18 9 -9 19 4 14 18 -4 11 -6 11 -12 0z"/>
<path d="M2405 1490 c3 -5 10 -10 16 -10 5 0 9 5 9 10 0 6 -7 10 -16 10 -8 0
-12 -4 -9 -10z"/>
<path d="M6687 1485 c-4 -8 -2 -17 3 -20 6 -4 10 3 10 14 0 25 -6 27 -13 6z"/>
<path d="M4387 1463 c-12 -12 -7 -33 8 -33 17 0 19 9 7 28 -5 7 -11 9 -15 5z"/>
<path d="M4675 1423 c-3 -10 -1 -19 4 -21 6 -2 11 -12 11 -23 0 -16 -3 -18
-19 -10 -21 12 -31 5 -31 -19 0 -12 8 -15 35 -12 44 5 47 11 39 61 -7 42 -27
54 -39 24z"/>
<path d="M1096 1414 c-11 -27 -7 -37 9 -24 16 14 20 40 6 40 -5 0 -12 -7 -15
-16z"/>
<path d="M6000 1419 c0 -5 5 -7 10 -4 6 3 10 8 10 11 0 2 -4 4 -10 4 -5 0 -10
-5 -10 -11z"/>
<path d="M6062 1398 c3 -7 12 -14 21 -16 12 -2 15 1 11 12 -7 19 -38 22 -32 4z"/>
<path d="M4340 1391 c0 -6 9 -11 19 -11 11 0 23 -4 26 -10 9 -15 25 -12 25 5
0 8 -6 15 -12 15 -7 0 -23 3 -35 6 -14 4 -23 2 -23 -5z"/>
<path d="M5950 1370 c0 -11 4 -20 9 -20 5 0 11 9 14 20 3 13 0 20 -9 20 -8 0
-14 -9 -14 -20z"/>
<path d="M6120 1353 c0 -5 7 -18 15 -29 12 -16 14 -16 15 -3 0 9 -7 22 -15 29
-8 7 -15 8 -15 3z"/>
<path d="M2560 1326 c0 -9 5 -16 10 -16 6 0 10 4 10 9 0 6 -4 13 -10 16 -5 3
-10 -1 -10 -9z"/>
<path d="M4410 1328 c0 -7 4 -19 9 -26 6 -10 10 -10 20 2 7 8 10 20 6 26 -9
14 -35 13 -35 -2z"/>
<path d="M4463 1290 c-2 -31 3 -35 25 -21 12 7 12 12 1 30 -18 28 -24 27 -26
-9z"/>
<path d="M4583 1289 c8 -20 13 -25 15 -15 2 9 8 16 13 16 5 0 9 7 9 15 0 9 -9
15 -24 15 -23 0 -24 -2 -13 -31z"/>
<path d="M1020 1300 c0 -5 5 -10 10 -10 6 0 10 5 10 10 0 6 -4 10 -10 10 -5 0
-10 -4 -10 -10z"/>
<path d="M5940 1293 c0 -12 7 -23 15 -27 13 -5 14 -2 4 17 -17 32 -19 33 -19
10z"/>
<path d="M4527 1288 c-15 -12 -14 -16 18 -47 30 -29 36 -31 41 -16 5 11 1 21
-10 27 -10 5 -20 18 -24 29 -6 16 -10 17 -25 7z"/>
<path d="M4416 1255 c-11 -30 -6 -40 11 -22 12 12 14 20 6 28 -7 7 -12 6 -17
-6z"/>
<path d="M6113 1253 c-3 -10 -8 -22 -11 -26 -2 -5 5 -4 16 2 13 7 19 17 16 26
-8 20 -13 19 -21 -2z"/>
<path d="M2570 1250 c0 -5 5 -10 10 -10 6 0 10 5 10 10 0 6 -4 10 -10 10 -5 0
-10 -4 -10 -10z"/>
<path d="M5992 1223 c2 -10 14 -19 26 -21 21 -3 22 -2 10 17 -16 25 -41 28
-36 4z"/>
<path d="M4890 1205 c0 -9 6 -12 15 -9 8 4 15 10 15 15 0 5 -7 9 -15 9 -8 0
-15 -7 -15 -15z"/>
<path d="M6062 1199 c2 -6 8 -10 13 -10 5 0 11 4 13 10 2 6 -4 11 -13 11 -9 0
-15 -5 -13 -11z"/>
<path d="M4942 1188 c5 -15 35 -34 43 -27 3 4 3 14 -1 23 -7 18 -48 23 -42 4z"/>
<path d="M2545 1180 c-7 -12 2 -30 16 -30 5 0 9 9 9 20 0 21 -15 27 -25 10z"/>
<path d="M4842 1168 c-5 -7 -6 -22 -2 -33 7 -19 7 -19 18 2 21 38 8 61 -16 31z"/>
<path d="M2496 1131 c-10 -11 -25 -17 -37 -14 -15 4 -19 0 -19 -20 0 -14 -4
-29 -10 -32 -16 -10 -12 -45 5 -45 8 0 15 8 15 18 0 22 40 62 63 62 22 0 27
12 13 33 -12 16 -14 16 -30 -2z"/>
<path d="M6416 1141 c-9 -14 1 -31 19 -31 8 0 21 -13 30 -30 15 -29 26 -36 38
-24 8 8 -3 34 -15 34 -6 0 -23 14 -38 31 -18 21 -30 28 -34 20z"/>
<path d="M5004 1118 c3 -13 6 -26 6 -30 0 -5 5 -8 10 -8 17 0 11 47 -6 54 -13
5 -15 2 -10 -16z"/>
<path d="M2370 1112 c0 -4 9 -15 20 -25 19 -16 20 -16 20 8 0 18 -5 25 -20 25
-11 0 -20 -3 -20 -8z"/>
<path d="M2560 1110 c-12 -8 -12 -10 3 -16 21 -8 35 2 21 16 -5 5 -15 6 -24 0z"/>
<path d="M4818 1078 c-7 -16 7 -46 17 -37 3 4 2 16 -3 29 -7 18 -10 20 -14 8z"/>
<path d="M6402 1078 c-18 -18 -14 -38 8 -38 13 0 20 7 20 19 0 25 -13 34 -28
19z"/>
<path d="M6598 1063 c6 -2 18 -2 25 0 6 3 1 5 -13 5 -14 0 -19 -2 -12 -5z"/>
<path d="M4994 1042 c-18 -12 -24 -52 -8 -52 8 0 17 6 20 14 8 22 1 47 -12 38z"/>
<path d="M6275 1030 c-3 -6 3 -22 14 -36 12 -15 21 -35 21 -44 0 -20 23 -43
33 -33 13 12 7 37 -15 60 -19 20 -19 23 -4 23 9 0 26 -5 37 -10 16 -9 19 -7
19 14 0 24 -25 43 -35 26 -3 -6 -16 -5 -31 0 -31 12 -31 12 -39 0z"/>
<path d="M4860 995 c0 -20 5 -25 25 -25 22 0 24 3 16 19 -17 31 -41 34 -41 6z"/>
<path d="M4310 964 c0 -8 5 -12 10 -9 6 3 10 10 10 16 0 5 -4 9 -10 9 -5 0
-10 -7 -10 -16z"/>
<path d="M4932 973 c-15 -6 -6 -23 14 -23 8 0 14 7 14 15 0 15 -6 17 -28 8z"/>
<path d="M4350 961 c0 -12 29 -35 36 -28 11 10 -5 37 -21 37 -8 0 -15 -4 -15
-9z"/>
<path d="M1665 950 c-7 -12 2 -30 16 -30 5 0 9 9 9 20 0 21 -15 27 -25 10z"/>
<path d="M7130 911 c0 -22 -4 -43 -10 -46 -15 -9 -12 -35 3 -35 24 0 37 21 24
41 -9 14 -9 21 0 30 8 8 14 6 22 -10 16 -28 31 -27 31 4 0 15 -6 25 -14 25 -7
0 -19 7 -26 15 -21 25 -30 17 -30 -24z"/>
<path d="M4266 912 c-4 -13 -5 -26 -2 -29 10 -11 18 4 14 29 l-4 23 -8 -23z"/>
<path d="M4407 889 c4 -13 9 -17 15 -11 11 11 3 32 -12 32 -4 0 -6 -9 -3 -21z"/>
<path d="M6322 888 c-7 -7 -12 -17 -12 -23 0 -7 -9 -20 -20 -30 -28 -26 -25
-33 19 -51 22 -8 42 -22 45 -30 3 -8 12 -14 20 -14 11 0 12 7 7 28 -6 19 -14
26 -29 25 -11 -1 -25 4 -32 12 -13 15 -8 19 30 27 14 3 14 6 0 36 -12 25 -18
30 -28 20z"/>
<path d="M1615 881 c-8 -14 10 -22 30 -15 13 5 14 8 3 15 -17 11 -26 11 -33 0z"/>
<path d="M1675 880 c-7 -12 2 -30 16 -30 5 0 9 9 9 20 0 21 -15 27 -25 10z"/>
<path d="M2820 853 c0 -5 4 -14 9 -22 11 -17 32 -5 24 14 -5 15 -33 21 -33 8z"/>
<path d="M1550 834 c0 -8 5 -12 10 -9 6 3 10 10 10 16 0 5 -4 9 -10 9 -5 0
-10 -7 -10 -16z"/>
<path d="M2707 844 c-3 -3 -3 -12 0 -20 4 -11 9 -12 19 -3 8 6 14 15 14 20 0
10 -24 12 -33 3z"/>
<path d="M2185 810 c3 -5 8 -10 11 -10 2 0 4 5 4 10 0 6 -5 10 -11 10 -5 0 -7
-4 -4 -10z"/>
<path d="M4387 813 c-4 -3 -7 -17 -7 -31 0 -21 2 -22 15 -12 8 7 15 21 15 31
0 19 -11 25 -23 12z"/>
<path d="M7096 811 c-4 -7 -5 -15 -2 -18 9 -9 19 4 14 18 -4 11 -6 11 -12 0z"/>
<path d="M3700 801 c0 -6 -11 -21 -25 -33 -27 -24 -33 -48 -11 -48 8 0 17 11
20 24 6 25 42 41 70 30 11 -4 16 -1 16 10 0 9 -6 16 -12 16 -7 0 -23 3 -35 6
-14 4 -23 2 -23 -5z"/>
<path d="M4240 798 c0 -9 5 -20 10 -23 13 -8 13 5 0 25 -8 13 -10 13 -10 -2z"/>
<path d="M2685 759 c-4 -12 -2 -26 4 -32 8 -8 11 -2 11 21 0 37 -6 41 -15 11z"/>
<path d="M2880 754 c0 -8 5 -12 10 -9 6 4 8 11 5 16 -9 14 -15 11 -15 -7z"/>
<path d="M4274 749 c-3 -6 -1 -16 4 -21 15 -15 72 -16 72 -1 0 6 -9 9 -20 6
-12 -3 -22 1 -26 11 -7 19 -20 21 -30 5z"/>
<path d="M4630 711 c-5 -11 -10 -27 -10 -36 0 -45 -53 -95 -100 -95 -28 0 -32
-15 -19 -62 20 -77 19 -75 34 -48 11 20 11 28 -1 44 -20 30 -17 39 11 32 20
-5 27 -1 40 24 13 26 30 35 57 32 3 -1 4 17 1 38 -6 45 12 57 23 14 6 -21 10
-24 34 -19 21 5 31 1 42 -14 15 -21 15 -21 28 4 7 14 17 25 22 25 14 0 9 -37
-8 -50 -13 -12 -11 -15 17 -27 30 -13 31 -15 27 -62 -3 -31 0 -55 9 -67 20
-28 15 -70 -13 -103 -24 -29 -24 -31 -6 -31 25 0 49 -27 35 -41 -7 -7 -14 -5
-23 6 -15 18 -30 20 -30 2 0 -23 -40 -57 -67 -57 -21 0 -24 -3 -15 -12 14 -14
16 -68 3 -68 -5 0 -12 13 -16 30 -6 26 -10 29 -31 24 -16 -4 -31 -1 -43 10
-17 15 -18 14 -29 -9 -6 -14 -16 -25 -22 -25 -16 0 -12 36 6 51 14 11 13 14
-8 25 -13 8 -27 13 -31 14 -7 0 1 -130 9 -139 2 -2 12 3 22 12 10 9 32 20 49
23 26 5 37 1 57 -19 14 -15 26 -33 26 -42 0 -8 6 -15 14 -15 15 0 26 21 26 48
0 8 8 32 18 53 19 41 66 64 96 47 35 -20 47 16 21 66 -29 54 -15 125 33 173
19 19 21 27 12 38 -7 8 -20 15 -29 15 -23 1 -67 42 -70 66 -1 10 -1 40 -1 67
0 26 -3 47 -7 47 -4 0 -26 -10 -51 -21 -37 -18 -47 -20 -67 -9 -12 7 -29 23
-36 36 -15 29 -25 30 -39 5z m260 -230 c0 -13 -37 -24 -51 -15 -8 4 -7 9 2 15
19 12 49 11 49 0z"/>
<path d="M6394 703 c4 -15 9 -47 13 -70 5 -41 24 -56 38 -33 3 6 19 10 36 10
32 0 39 19 14 40 -13 10 -19 10 -33 -4 -10 -9 -22 -16 -25 -16 -12 0 -7 33 7
49 13 14 10 18 -21 34 l-35 18 6 -28z"/>
<path d="M3646 682 c-9 -15 1 -52 15 -52 5 0 17 -16 26 -35 20 -43 46 -47 41
-7 -2 18 -10 28 -23 30 -12 2 -26 17 -35 40 -11 25 -18 33 -24 24z"/>
<path d="M2720 666 c0 -16 24 -38 33 -30 8 9 -11 44 -23 44 -6 0 -10 -6 -10
-14z"/>
<path d="M2846 664 c-9 -22 -8 -24 9 -24 8 0 15 9 15 20 0 24 -15 27 -24 4z"/>
<path d="M6665 649 c-10 -15 3 -24 36 -24 16 0 29 5 29 12 0 7 -6 10 -14 7 -8
-3 -17 -1 -21 5 -8 14 -22 14 -30 0z"/>
<path d="M2790 614 c0 -9 5 -14 12 -12 18 6 21 28 4 28 -9 0 -16 -7 -16 -16z"/>
<path d="M6544 619 c-3 -6 5 -23 19 -37 14 -15 28 -37 32 -50 8 -28 29 -24 33
8 3 17 0 21 -12 17 -18 -7 -36 20 -36 52 0 22 -24 29 -36 10z"/>
<path d="M6616 622 c-3 -5 -2 -18 1 -30 5 -21 6 -21 19 -5 7 10 14 24 14 31 0
13 -26 17 -34 4z"/>
<path d="M3510 582 c0 -20 41 -84 69 -108 28 -24 30 -28 15 -38 -15 -12 -15
-15 2 -41 12 -18 19 -49 20 -84 1 -31 5 -80 9 -110 l8 -54 -29 7 c-16 4 -42
16 -58 28 -22 16 -30 17 -36 8 -15 -25 6 -55 41 -60 l34 -5 -26 -18 c-20 -13
-25 -24 -21 -42 5 -26 32 -35 32 -11 0 8 14 26 31 39 41 32 66 105 81 229 13
113 7 145 -28 158 -13 5 -28 18 -32 28 -16 41 -112 105 -112 74z"/>
<path d="M2470 483 c0 -10 -9 -31 -20 -48 -26 -39 -25 -45 6 -45 23 0 25 3 19
30 -6 26 -4 30 14 30 17 0 21 -6 21 -35 0 -30 3 -35 24 -35 24 0 66 -41 66
-64 0 -6 15 -25 33 -41 27 -25 32 -38 34 -80 1 -27 5 -65 9 -83 5 -26 2 -40
-15 -62 -30 -41 -27 -50 17 -50 37 0 38 0 34 38 -3 31 2 44 27 71 38 41 39 56
2 75 -43 23 -63 61 -70 140 l-6 71 -47 1 c-40 1 -51 6 -75 34 -15 18 -31 42
-35 52 -9 23 -38 24 -38 1z m170 -147 c0 -15 -18 -31 -26 -23 -7 7 7 37 17 37
5 0 9 -6 9 -14z m75 -177 c10 -15 -1 -23 -20 -15 -9 3 -13 10 -10 16 8 13 22
13 30 -1z"/>
<path d="M7192 465 c0 -16 2 -22 5 -12 2 9 2 23 0 30 -3 6 -5 -1 -5 -18z"/>
<path d="M493 469 c-15 -15 -17 -75 -3 -84 14 -9 22 16 18 60 -2 29 -5 34 -15
24z"/>
<path d="M3776 423 c4 -10 8 -30 8 -45 1 -23 5 -28 27 -28 17 0 30 -8 39 -25
12 -23 15 -24 31 -9 10 9 26 13 37 10 14 -5 21 -1 25 14 7 25 -7 34 -32 20
-48 -25 -91 -1 -114 63 -4 9 -11 17 -18 17 -7 0 -8 -6 -3 -17z"/>
<path d="M4681 414 c0 -11 3 -14 6 -6 3 7 2 16 -1 19 -3 4 -6 -2 -5 -13z"/>
<path d="M4483 371 c-13 -26 -23 -52 -23 -57 1 -9 79 -49 85 -43 2 2 1 16 -2
31 -4 21 -10 27 -27 25 -29 -3 -27 27 2 31 16 3 22 8 18 19 -3 8 -6 21 -6 29
0 30 -26 11 -47 -35z"/>
<path d="M6303 387 c-4 -8 -16 -16 -25 -20 -12 -4 -18 -17 -18 -37 0 -40 16
-38 34 5 20 46 55 48 86 5 12 -17 25 -28 30 -25 12 7 -3 47 -21 55 -8 4 -24
12 -36 18 -29 15 -40 15 -50 -1z"/>
<path d="M2358 383 c-41 -5 -53 -23 -15 -23 13 0 28 -5 35 -12 9 -9 15 -8 26
7 14 19 12 37 -2 33 -4 -1 -24 -3 -44 -5z"/>
<path d="M2330 285 c0 -28 15 -34 24 -9 10 25 7 34 -9 34 -9 0 -15 -9 -15 -25z"/>
<path d="M3905 290 c-15 -16 -15 -22 -5 -35 21 -25 35 -17 35 20 0 40 -5 43
-30 15z"/>
<path d="M460 291 c0 -5 -3 -16 -6 -25 -5 -12 0 -16 20 -16 29 0 30 3 16 31
-11 20 -30 26 -30 10z"/>
<path d="M6440 268 c0 -15 4 -29 9 -33 17 -10 20 10 5 35 l-13 25 -1 -27z"/>
<path d="M6252 265 c-11 -21 2 -61 24 -69 17 -7 17 -1 0 48 -12 34 -15 37 -24
21z"/>
<path d="M225 217 c-4 -9 -4 -28 -1 -42 9 -35 -10 -31 -29 5 -18 35 -26 37
-48 12 -24 -26 -22 -68 3 -75 12 -3 20 -14 20 -26 0 -13 6 -21 16 -21 9 0 24
-10 35 -22 l18 -23 1 50 c0 28 7 59 15 69 19 26 19 36 -5 66 -17 22 -19 23
-25 7z"/>
<path d="M2311 191 c-15 -27 -14 -30 9 -24 21 6 27 28 11 38 -6 3 -15 -3 -20
-14z"/>
<path d="M3740 203 c-19 -7 -40 -33 -40 -50 0 -10 8 -9 35 4 28 14 39 14 61 4
39 -17 44 -3 9 25 -31 24 -39 26 -65 17z"/>
<path d="M3942 183 c2 -20 9 -29 26 -31 30 -4 25 -36 -6 -40 -23 -4 -29 -26
-13 -51 7 -11 12 -9 21 10 7 13 24 33 37 44 31 28 29 37 -12 59 -19 11 -35 23
-35 28 0 4 -5 8 -11 8 -6 0 -9 -12 -7 -27z"/>
<path d="M2518 173 c7 -3 16 -2 19 1 4 3 -2 6 -13 5 -11 0 -14 -3 -6 -6z"/>
<path d="M6300 160 c0 -24 34 -60 55 -60 8 0 15 -4 15 -10 0 -5 7 -10 15 -10
8 0 15 6 15 13 0 7 10 17 23 22 13 6 23 21 25 38 5 40 -21 34 -37 -8 -16 -46
-53 -49 -71 -6 -15 36 -40 49 -40 21z"/>
<path d="M65 128 c-16 -10 -38 -21 -47 -24 -14 -5 -18 -18 -18 -53 l0 -46 50
-3 c48 -3 50 -2 50 22 0 30 -8 32 -36 11 -48 -36 -47 6 2 56 43 44 42 64 -1
37z"/>
<path d="M1648 130 c-8 -12 -24 -20 -40 -20 -18 0 -28 -5 -28 -14 0 -24 22
-31 36 -12 7 10 22 16 36 14 19 -2 24 2 26 25 4 32 -12 36 -30 7z"/>
<path d="M2271 140 c-12 -7 -12 -11 -2 -24 8 -9 20 -16 27 -16 8 0 19 -9 26
-20 18 -28 28 -25 28 10 0 27 -2 30 -25 24 -19 -5 -27 -2 -32 15 -6 14 -12 18
-22 11z"/>
<path d="M1520 110 c0 -22 7 -25 29 -11 11 7 9 11 -8 20 -18 10 -21 9 -21 -9z"/>
<path d="M3380 101 c0 -25 6 -27 13 -6 4 8 2 17 -3 20 -6 4 -10 -3 -10 -14z"/>
<path d="M5087 93 c-16 -16 -5 -33 21 -33 18 0 37 -10 51 -26 28 -32 47 -20
32 19 -8 21 -17 27 -41 27 -16 0 -30 5 -30 10 0 11 -23 14 -33 3z"/>
<path d="M1648 59 c-18 -23 -14 -49 8 -49 9 0 14 12 14 35 0 19 -1 35 -2 35
-2 0 -11 -10 -20 -21z"/>
<path d="M5038 46 c-24 -18 -23 -46 1 -46 19 0 31 18 31 46 0 17 -10 17 -32 0z"/>
<path d="M2357 20 c6 -21 25 -24 58 -10 19 8 19 9 -2 9 -12 1 -25 5 -28 11
-12 19 -33 11 -28 -10z"/>
<path d="M3920 15 c-10 -13 -9 -15 9 -15 12 0 21 6 21 15 0 8 -4 15 -9 15 -5
0 -14 -7 -21 -15z"/>
<path d="M6965 10 c-4 -6 5 -10 20 -10 15 0 24 4 20 10 -3 5 -12 10 -20 10 -8
0 -17 -4 -20 -10z"/>
<path d="M3548 3 c7 -3 16 -2 19 1 4 3 -2 6 -13 5 -11 0 -14 -3 -6 -6z"/>
</g>
</svg>
